<mxfile host="app.diagrams.net" modified="2023-11-15T18:49:19.150Z" agent="Mozilla/5.0 (X11; Linux x86_64) AppleWebKit/537.36 (KHTML, like Gecko) Chrome/116.0.0.0 Safari/537.36 OPR/102.0.0.0" etag="sIZLYuRHCbdNdbmYXSPW" version="22.1.1" type="google">
  <diagram name="PÃ¡gina-1" id="8n47qSTzWYzZHK65T7en">
    <mxGraphModel grid="1" page="1" gridSize="10" guides="1" tooltips="1" connect="1" arrows="1" fold="1" pageScale="1" pageWidth="1654" pageHeight="1169" math="0" shadow="0">
      <root>
        <mxCell id="0" />
        <mxCell id="1" parent="0" />
        <mxCell id="UpuPV8C9MVdIR5FXl3d1-1" value="" style="shape=image;verticalLabelPosition=bottom;labelBackgroundColor=default;verticalAlign=top;aspect=fixed;imageAspect=0;image=data:image/png,iVBORw0KGgoAAAANSUhEUgAAAoAAAAGaCAYAAACfaPJDAAAABGdBTUEAALGPC/xhBQAAACBjSFJNAAB6JgAAgIQAAPoAAACA6AAAdTAAAOpgAAA6mAAAF3CculE8AAAABmJLR0QA/wD/AP+gvaeTAACAAElEQVR42uydd7wcV3n3f8+Zsn339qLem21Z1Q0bMKaEDgETOjbGkm16IDihmjeEUELo4EInBDAtgIEANjbuVpcsq1pdV/dKt+3dOvWc949tM7uz5UpXtkzm0efauzNnZ2dnZud89/c0wDfffPPNN998880333zzzTfffPPNN998880333zzzTfffPPNN998880333zzzTfffPPNN998880333zzzTfffPPNN998880333zzzTfffPPNN998880333zzzTfffPPNN998880333zzzTfffPPNN998880333zzzTfffPPNN998880333zzzbdJGvmHwLenwoQQ7PFdA+8ghhfKwPqlS2eM+kfFN9988803354eY/4h8K1V+++fb1ry299uCk/2dVu3Hl277fFjD3MhbhMCr7GJtu7efWK1f0R988033/727ZpfXdPmH4Vzz3wF0Lem9oM7H5xFYB9RZPkdssQyiiL9hBh95RV/t+KJRq97cMvRaQr4ZxjhzYwRMUZgRGCMQIxlJIZrli6a9gv/CPvmm2++/e3Z++98fygjMp+AwPsJ9D1msI/d+tZbT/lHxgdA385x+9a3Hu5AwP6QLLP3yhILyrIEWWaQZQmyxCDJ0kOqRF9m4tSvrrzySqv0uk2bNimG1X4TSfhXYhQrQB9DCQCJUemxkBh9bvHCvg8TEfePuG+++ebb34Zdd+d1F0lc+oGAWAwARAQCjTOwz8ox+UtffclXdf8o+QDo21NkYvsNPTB5L7joAEEBUQBAxaUrSAA8mTIigXuOXfqqEb3n9RKTo2XokxlkyQGBleeDssx+oBB9PaeLFUwWX2RE88kBfawIfeR4XF5O9HtFCrxx/vyOCf8s+eabb749c+2We2+RB4YGPgDCvxJIIaIS/BXu/8RAoKOMsY99+dVf/iEIwj9qPgD6NlWg99g7OyGZzwPEagAXALQMwDQAasPXgfDE8GxsGDwfGo/Cpfg54E+pgUEGWWKHLFsM21xcVA/0qAoGGTHHcuwjWXnl4rlde/wz6Jtvvvn2zLN3/OQdSwH8gBFbw8DgCX+O5yA8JpP8gc+/8vMP+UfPB0DfThf6nrgpirz9ZgjxVhAuxiQTfA4nu/HXIxdgTO+ALDFUu3trnxceB1TBJa7tztnhBYwoUFflYwQqAl8DKEwxhjcvnNf3W/+M+uabb749UyYg0Pqfrb8eAv9JRJGiyucCwGr4IyIUIVEQ0c9lId/8qVd86pB/MH0A9G0y372N698AEl8C0NP4bDMIJgFExVNPGEglcO/+BTie6oIsSVAaunudIMjQoQwjY8VhINSiyucGQ/KGRJtJ9JGFc3s+659Z33zzzbdz29bduW4WA/sugZ5XBXZerl94jimMMyRIt2qq9vHPvuCzfjiQD4C+NQS/x65fBIm+CuCFNetkFUIOQDAFkBQIKoFfwcazCu7b2YddxzshNVT8akEwEcqBOEfaSngoeqxF0Cs9ZvXg8SfhgHXdtGnTcv6Z9s0333w79+zGn914NQO7FUBHU/jzVv+8FMJRYvSvtmJ//ZYrb7H8o+wDoG9OuNu0LgyBj4DwAQCB8nKSIIIxcCUEkLcHOKszPPBEFx7b1wUwuaF7txr+QipHPJjDmNbmADrWIuhVxnupgdUAKDFKh0LKN6b3d/yzf8Z98803384de9+v3tdmWubXiOhNLqibnOu3oUJIoD0SSf/0oed/6C7/iPsA6BsAsfn6V0PQFwHMrpxFAlfD4MFE3VNqmIQHdrXhvp1dsLjcxL3rVgFVmaE7lkLaiMMSap34vkZA1xgSq0vDBELKw6GAspCINvb3JF7mn3XffPPNt3PDbvrZTS9kxL7DiE1vAnCTg78640C4W7blD7zv+e/b4R99HwD/b4LfpnXzAfEVgF7iWi4p4KF2CEnxfp0AHtsbwe82dCJrBJq6d6ufd8dy4FCRsyJTrvJV4K8AiIrCdkejQYsRXVD43uN30/rafQD0zTfffHua7f13vj9kMeszRPRuRoxOB+zOABI5Ef1IsqUPvfPKdw75Z8MHwP8b4Pfw+0NQsjeDcDOAYOXMMfBgDFyN1n3trqNB/OyBdpxMBtwlWxywVy/pIxayEAvZmNATLah8rGnMn3s5c21TkdlYOBLYqSjS5URghS88QES/m9HvA6Bvvvnm29Np7/35ey8WTPyAgS3yBLYpdP16JIeUtwUgS0T/kaf8Z//xsn/M+2fGB8C/XfjbvP7lEOLLAOa6lqth2MFE3Ti/Q0Mq7vxrHPsGgk3du9XPgwFCX1seE1o7BNVL0GCTUAMblYBhZjSqPhIMyCsIFC984YsV44sAOHNahw+Avvnmm29Pg91y7y1yciz5UWL0USKSWozdmxLXb5NtHSeifz168dFv3UK3+F2kfAD8GwK/TevmA/gygJe6lksqeKhNCFkFhKh77v7jF31IZwUGRhS00MWj/HxauwaLwtCsoIdyx1oEvabZvWBEaA+MikCsO8kp0u4BfsXt4Hczp3X6AOibb7759hTbB/7nA8uEED8gotWTAbuzrRC6Xku0SRLSB9500Zvu98/Y5E32D8E5BH4ldy+83L1RwdWYKCC7aMjyw0mZUjkJS2ZpGEkpyGhSYT2hUAqG4HgOxCMGYiEJ4yV3LwkIQRAC4ACYAIQQECjEFHJRqDItRPEPBR51Ly+M56L4+uLykJRGe9iEoc4mU1A7QaBSlRCFL3pxmbD93ye++eabb0+l3SJuYenfpN9Pgj7FGAu2DGx1xp1lhXANMfrrT7b85BfguPn1a15/wD+DPgA+8+Bv8/qXQ2Rr3L1cDQkRTPDqOn61ECjKHMgFkRDAkyeCUBWB+X15DCbDECRVQIuAoGJjRpeOsXwHxvMMjAGCA4IVAI5zFJYJ53IA5cdUXs6FAHOMERzgrAh/HGASR188DVuZBo0kkBAeAFskxeJOCuYDoG+++ebbU2kdj3VEI/HI+tHM6AkA805LmZts3N+Zb+s1JNMrfrHtF9+1uf3R16163bB/Jn0APPfBb+ON80D8yxDC5eoUkiJEqN3mTHHwnXDikhDVLvwyIFbGGSZh7/EAOmI6etpNcSodJUaEGZ156LwNp7IKiAAmhEPNOzOVr6IcFlTE7tgElFA7dJoOElTkuyrlTxTFSXIs435oh2+++ebbU20hKbRwVtssZIzMjrSenkGgjtOCv7OVHOKtECpEtE6RlNfetfOuz7EA+9JLFr5E98+mD4DnHviVs3ttl7tXFNy9tlBiNhVEMSoRHxwPCjzoUNGo6nmVjaVljKVBF85PCQp2Iql3UCE+T3iAHopiHLmWcyHqgF5pDLngMRHMIpFQYWAajCL4uZRLUYRWEiBGEOX9L35wYYT8K8U333zz7Smen4r/ooHo8mggmp/QJx4zTXMNEUlert9zKDkERNRBRJ+Biev+sOcPH3nxkhf/zD+jPgCeO1+ujdc/H5T9KoAlruVq2LYDcRtMduh91TqfQwUsMBO515NnfkgszDGzTxYTdj+xfCHOr1a5oypFT9QBPadK6ITEwviAZKG/04Ap9SHPWVHVEy61j5XAjwBFkTEyPARZDiEWj1V+hVqHniM2Xf8ZWMFP0yVfTflXjm+++ebbUzBHiQIAAgAjFuoIdlxsqdbxlJHKkKAlzcDu6VAIq5JDQKCFjNidd++7+1EQ/vH5C5//iH9mfQB8+r5Uj75jBhT2aQi8xX0WVG4HEpaQVV4DeawIeXBDnhcQln+7iXIkHSQGzJvOhSbaKW3KxJgox+1BAIKTI25PuOL2SsvdsYBUjPlDMeZPlGP+wASmdWRBgR5o6ABxgEhUdtPh8+UAFFlCQJXBucDOJ3Zh/vxFiESj5UxgzoUE0M2Q9evEpus/hYPJr9Hrfmb7V5Jvvvnm21mcq1ABwNJjWZJndIW7YFjGE5qpdYPQcw4nhzjf4xIievCvB//6X4qifPiymZcN+Ge4YMw/BE/Bl+mJq1Wx6fr3QmZ7XPBHJHgoYdjRbk3Iql3EpOIfiQI9kXAvh3A4bAUINetLvDizxxYz+0MibXWQzQskWVb0hCOOr/jHHY8ry1zvVrO+9NedyImZ/QRLng6LK5X34qLwVx5bTEAJKFBkBk0zoekmLMMqfjL32KJ1AfQlzGt/XGy+3i8L45tvvvl2tmys9j5/ePdhcJtDCIGAHDivPdzeHpSDj8lM1iQmwfknM9n1XCLHMnIvb/a4ZlvMe1syyTWvl5nsHMO4zVdOpCZe459gh/bkH4KzDH9b1l+FvPgaat29lh2KG4AsSHgreRVO9FYBBRWTQap8vvGIhZ6OgMgYMSKzmN2LCsDVd+eiXP6l4goWrpi/6qSPcMDA9G4SefSRVlT8SFDh/66kDgIjIKBKUGQJhmXBMnlZ7bMFL2+75C7mTC5kLouy6LcUgn4rNq+7G0QfpFW3bfevMN988823s6sA/u47v0NyJIk3/OMbsHD5QggIJaSELgYhaVrmHi74inM4OURkzexjuqFfLBrUz/UB0Lep+wKV3L1cuNy9QlI4D7XpQlJtJ+gVQM4BeQSgGJNXkzwBFIVBt+V0Rn/a1i1rPE66JrWc3csFOWIBK+NRBYnO7F6ZbMzrN4Uh91KWS0TkLuEC9weBokgIBhRwzpHJGgBEqbVP4dNxUSbd8jKShB3rFczIENPTVJYEBZ4PIbaIzet+BIGbac3tg/4V55tvvvlWsPV3rl/GOf9PEO6cvnv69265ZXLdMpwxgAIChmZg8arF+PUdv8bMhTNx9TuvhqzIYGBtQSW4ggu+3xKWzASbey4lhwgSmYncxEGb25cUxA+/soTTfBfwVIPfpnVK0d2728Pdq9mRnqyQVAtul63b1Userl7nv/IPNBIQJAjELR7Ad++doz64q13mnOq4c4XLDVxxBTcaK2rGzupKi5nTwyJLfWTZDJyLwp8oZAo7/4gRwiEVsiQhm9WRzRmwOXeMqbymBIKCF/8vADAmeDDO7Xi/zQMR4bp2C8d3v9h0/WfEg2+P+Vefb7759n9cuqN3/OQd6zjnGwG8CALfPrH0xOPrf7r+JZNWAB1zgK7pmLVkFt735fehs68TX3j3F5DP5svrGbGFQSk4R5XUjRKT0vXculVu2bru4TNx/ZYec/DDyWwyZXN7ORe8AH8+//kAeNa+e5vf8TwA2wH6EoBoaTlXQqYd60sLNaZ7xexVcAweMX0FOCQi7vW6Mp6RJJ5/1XPYhfNhc1EVd8cdMX/cAXyuMQ744w70LI7nQqArZvDFc5iwAzNIs4JUeU0tRAKEYEBGOKBA101kshqsYgxJzR8XsG27CJkVeBSODQuQEME224712EIJOkEwAtDNCMp7xOb168SdV0v+leibb779X7N1d66bdf2d199NoNsIFGbESjC0TGLS797183f9+V13vuuCySiApX96XocSUCAgcOXVV+J5r3sevvOv3wEXvDJKCCKitTKTJZnkzTKTecNYvzp/LUNivbg/JkGztI3j2fFptrCncVGZd3wF0AfAqQe/bTdMF5vX/QCC3QNgaXk5k20r0p3h4Y6sIMZBQhDBA+SKkMeaQF4DQIQgwcFwyeVXSC+6LGaTs4RLncSNRiqf8y+ocrF0tsHD8W6WNRMNwU8IQJEkxMIBCA6kMhp0w/Yc50oQ4aJy43Hsn/MzCpAQpAg71Gnb0S5byIoTBKdBiNswr32H2Di5X7u++eabb89o+PvJuqsFF1sJ9Ly6yhuTni/L8pb3/+r9t7331+/tbQqAjj9DN6AElfLzlc9ZiWAkiId+9xCEENizeQ84L8NgGITVDOy4xKQ9T3FyiJXMJTemtfRaAaE6wY8LDht+EQmn+TGAZwJ+m9YpgLgJFv+UU/EDMcEDsTwPRCtVyKn8HzRK+PC24uvIa1wpToOEbRd+3cxZsEL6+/hh/oe/HiXNkArdg2uSPqgqFrC2LiBAmD9dt1mwm2VsldXU84O7k4ciM4TDARCAVFYD56Kc5FEZ550gwgUHUHBdl8Y5XOGVI1FMiBFSQNiRHk5mjklaioGXGwcvA4nfic3r7obAP9Ka2x/3r1TffPPtb9Gu+dU1bQE98DUQ3sSItRJfJxPROgXKG//51//8hWA8+JlbrrxFc25zDGMII+yOAcwXAdDx77mveS5++Okf4vKXXo6fff1n6J/Tj3UfX1fs5i7Aic8CByQmbZMleQYJ6ppU3N8k4wOFEKMn0ydHOOdrS9BXhliUPEr+NeMrgFMBf3XcvUIN63asL8nVqFYbs1f2j9aWbqHGrt766mFRIRNCWDaHbXNYNkdHzxz22peeL7riJm8l7q9aJZzeqfOl8wLclPolw5KpRr1zuG8JQDikIhIOQNNNpDJ5WJZd4+Z1l4Nxb6cEr5X4v3IQslvprCqLI5SwbcV6TR6I265eyQLPB7BNbF73A7Hhpj7/ivXNN9/+luyGn97woqAZ3MkYe9Ok1LOC6zTKJPYJM2fu+9jvP/ZWVFWZ8FIAA4GAa9mMBTNw/OBxpCfS0PM69m3bB13TIar+2cJeYVpmnECbJSYZTWP8TsP1a9nWzpOZk8Lm9uJSvJ8T/rgoKIC+C9gHwDMDv3ruXkmxrEjXBA+1p0Fke8GaKIIMgXhtUoeoD4gET/ipbFcIQRCWVYC/0p8a7mCvfPmzaPFMbjeu9VcBsnjYFssXki1H+1nGDDN3UkcxRo9X/lRVQSwahM0FxlM5aLrpOc4rQaT8x0XBfVA1ptIKpVntQyZ4MG5Z0T5DqBHbcSsrJIow60mxcd0t4uH3+63lfPPNt2e0vf/O94du+tlNX2aM/UEiaXorMXF1/0iayYh9/5N//ORjn/rDpy6v/H52/zM1s6IAFucLYgQ1oGLs1Bh0Tcfyy5Zj24Pbyuu3PbQNlmUV5xiu6ra+Wrf0JAPbMZXJIel8esNwdngp57zLPa/x8p8fA+gD4JmBXym71+Ku7F5BJHgonrGjPeOQA4ZAFaxRg4SPmvWleL7af0KUOM9DBSyW7rNtDsvisIsgaNscAgo9+7nPlp69KmjVKHKORA+JCSyfb1u9/Z1ImR2SZ3yfQ8WTJQmJWAiKwjCRziOb08G5l9rnHSfopQpW//LkXNQonYK8VNLiJ2GM83CbaUd7DCEHnd/0CAifgJrd5yeK+Oabb89Uu/EnN15iMGMbI/YeiSSawoLJa0miBz7950//VlGVOe77MEd7Xzs2/mkjLMMqT0rJ0ST0vA41oMLQDFz64kux8S8by+t/8rWf4NDuQ657us3tnqyRXW7Yxj5GbOBMkkMYMe1k+uTmlJ66SAghlaEPbuhzwqAfAug2PwawNfi7EsDXAFrmWq6GNDvYlgGxqp8VxUCDuiUnqRDLhuqilMWagM7CzzU19QBni4ximT0AEJZt1+X8xeetkdva91l/euCUZNqFBm2lTh8Lp1t2NN5JaR6USzF6zLlLxb69IIAxQjQcgKrKyOV1GKZdjOUjd1CgY8dcOyuE5zjuqgNYGCdYVYVsahTA4agpyBRuRzoNMnXGtKRC3CqtnFFIFOlYJzbe8EFae+t9/tXtm2++net2y723yCMjIx8F4aOMmDSZWniTrKv3Mgb2QkGiGJddiOH+0Hc/hPt+eh++cMMX8Lx/eB5mLpqJP/7gj4jEI+js74Se19E9oxvZdBZaTkMwHISRN6CG1CpnV0Fd1C19kWVbPBwIbwyr4aUkKDqZ/bcsa3AwM6jZtr26XrxfOUPZ6Qr2FUAfAFsGvy1vnwYhf6a6d68gxeLhthQU1YCog3mFxAfhXXncG2QK6ONIFKEmr3OGvAleTgKpZ73TFsmvfUm7/b/37qJkRmHd7cKePT2EtNkm5Syq9O1FsSMHFRM2im8VDiqIhIMwDBOjyWxRfKSacfWSRKoTP5wJJTa3IUCOxJGyTircoNsgkYbKvFpIFFECtq302szISUyfUMB5iaBXg8S9YvO6u8HZ+2ntrTv9q90333w7F+3dd7572ejY6A8ZY6tOu1vG5Iovq6Ui/ZwXMmclRcIL3vICrH3RWvzpB3/CT7/wUwgh8MZ/eiNIIhiaATWoYvmzlmPrA1txyQsvga4V1EEhBE4cOYEnNjyBFc9agf6Z/SUYY1k9u1a39In2UPtGmclrCETNPmMmn9k2nBtexAXvdwJfPehzLufcB0AfAJsrfoXsXk7/CqBSYJgY54FohgdjWXIqedWQR80gDw7CqR0hiEEIIgIXddXDGrAkYVnc+20dy0KxbumVL7lI7Nuz3UzqXcqE7gC/cicPcqltiiIhHg1BCIHxiSy4zctfxlpVzqH81dle7f5RoQxM0TVc2g6vuHlrVdI6nVO8PjRXw5YIhCzSMgoz0jK4KDVXeT6IbxUb130HNv84XfKtk/7V75tvvp0bExHoPb98z/VE9MVSXb+nvKWaxAoxgJYJLjjaetrw+n96Pd7wwTdACAFFUWAaZsE7JDGsvnI1fvyFH+PiF14MLa9BDRYUwO997nsYOzWGB37/AGYtnIVrPnANItEIAMC27cRYdmxtUA0e7Qx1WoyxeZ77CRInMycfS2vpS2qUvZLL1wmDXlnAvvkA2PA7t/GG5wL8awCd51zO5VBeBNsmhMR4hS2EpxhV7NELbzdoBRC9evym7X51iF8aYwTMkO6eUCllu+Gxjnu5mAXcitIoyyFiSpgsraTOVZdlKfxJjBCNBhFQZWRyOnTddNwgqhU/x7Ky2tdgnFMRJBR/oaFSBgZlGKzRWEVZJ60+FqLuRxcgiEDcEIGISbmUysysXP4OENZBZm8UG9d9ARnjM3Tl9zT/m+Cbb749XfbeO987C7/C9xhjVz5dLdWc76EGVNjchm4VsnyJFdYJFLqEBEKFDOFEZwL5bB75bB6GZhSKRxdi/3D1jVfjkqsuwZYHtuBTN30KN3/xZrR1thUaWkFAM7VZQ9YQYsHYtrZg2yzGWEfp/Tl4+sjYkcOmbV4yWejL5DMIBUOuerO++QDoBoSyu5e73b1MNnmoLSmkgOFyuaICeU5FLmsGpaPJGaHpiSEtEchYNUoV81bLdB6VTlprohP2nBBjDIwRjtmvbO+X/jIRpgHDDZC16qGzDqCTf+pd7uUvg6t3b2V/wiEV0UgQmmZiJJ0pv22DX6sOyqsT/4fqfsGOAMZyIWiUxxX3T9STNAtxlNV4SJV1JZXUAYgCTCDcplk8Ikn5CZUsvZQQEgXhE4ipbxeb138Kq/q/RXSL7y/wzTffnlL7x1/+49Ug3EZE7ZMBu7OtEMpMRkgOweAGNFMrQxYRYfq86eU4vwsvvxCb790M27LLCuClL7oUG+7ZgIuvuhirnr0KiqLg67d8HR/+yodd8YEcHGktvSJn5LSeeM9jETmyJm/mDx1PHo9zwS/wjOvzAMFi+RmMT4wjq2cxLTDNzwL2AdADJRq6eyMpEYini5iH2qSNCowYXKZdQ7NjB0bnRYnJtH90SbwrMmHM7Tyc6Q0N6IyKBfOE+7U2l+ikcV5k2Dw/KphCjCq9P0wE2IB4cVsPHkkl6Il8I/VQCAHL4g0JzQmFpfIv1epdQJWRiIXAbYGRsUw5Jo8R1SqaVQkircGhtzJqc+6EvtI4QZXa0F4yKrxiAUU103q9jhTbDnflydYkpqUCZJslNJ8JIW7DphPXiy3rP0Crbrvfv0345ptvZ9vefee7uxVVuY2BvfpsFUyeCoUwLIcRUSPIm3lopoZAOID3ffV9ZfBadeUqfP/T34caUMuxOs9++bOx/aHtuPMbd+J1N70Oyy9djj/e+UecHDiJvhl9rgSRItQFT6ZOXqzK6u6sll0gIJSWkjyKMGhxCyPjIwWVUlSW++YDYAUVNlz/HABfr3b3CjmYs0Nt44JJdlmwI1ETsldIXiDaMzQtsmNwboIjxGSJQWYFX2rS6FB3nurqOKheaPdHB3LTY/uyAZa1S4AyaswKHs2uarMoKjFGIA4I5u7OYXOik+yyhEbdSi89MFHJY3dDlBCifhKIx3XPOYmaL4QAwgEVuZyBXN4ou3EL8XiiKqHDK/GjyuVbd1zVa4q1ACsu4MJ2eOnAe3yAwi/PehJnUfhjXrGS7kxrIQctOxq0yMgpTE8GiJdVwzXg4q9i0/q7QNb7afW3n/RvF7755tvZst5E720pLfV8T2CbStfvFCmE8WAcUTWKjJEpu4YFBBJdCZiGWVb/Cvdbwjs/9U5882PfxDc+/g3c8PEb8KEvfqgsXlQDYOm5buohJ/y1ku1rGAZGJkYQCAYQC8eQH8lXXMTkK4D/5wFQbFrXD8JnIfBml0bEJNMOto1xJajV8gSBEQQvAwVh72BPeMuxOW15KyTLsgRZKgFPpf0ZCDBEUBrIL4ydMhdHO0OD+S7lQO5EdmE0ZfcFGTEwVsi6ZXDX5uOs2JqNAyksDJvUJvezP4/JIsuLoXEVFVDAIwaw0UEoAm1VWRYBUe7i4a3inUnih9e44vvyQis45/sKzlGsfVjr6i0eXO+EmMaKZDmG0LF/Qg0bthIymZ5WSU8HHEVlXgYhvUhsXPddqOxjdOGtp/zbhm+++TbV1hZqW5IIJaTx3Phjuq2vIZBUDWOnBWxnIzmkuC2ZyehUOmFyE+l8GoZtQEDgVetfhd9++7cQQuDovqPYu3kvXvymF+Pd//5u/PgrP8bn3v85fOiLH4KiKjUlYpwJG6U2odXQ1yjebyIzgXg0jqAarMkO9rOA3fZ/qhC0uPcWWWy6/r0A9hRLu5QcqoKr0aQd7xmAEsq5foZQbQHnw8OJwE8eWd53z56FXRk9IFMRKMrw52Sgch9cgsxsYViqtGvsss5xozdYKojcrDtH6S+PHvU4XtOdR5+CcuHoSjFo27Zh2TbKBaHtSkFoy3YWiLYLhTF5bZcPdzcOODp5NPlr2PEDTcfZvKAxusYVagLWFsduobVeo84pdVvrEXEeTGg82pcWasQZd6mAsA4m3yM2rb9Z3HtN0L91+Oabb1M6P0GAEQt3Rbsu7ov1nVAldW/D9m5noaVaTUeOxl1Eyo/Dchh98T70xHogSzLmXTAP7/tSwS3cP6cf9/36PqTGUgABb3zfGzFr4Sx893Pf9WgS4AA6CE8Xb3WrNy54Id4vPY6JzAQ62zoRVIOVLiBwNxvw7f8gAIoN1z8HsRNbi7174+XlciDHo73HRCgxBsF4dZcO7rgOT6VC8v9sXNj1681LekezEbWcYeBKpEAlnbYcbwZE1FE9r5viVKYtYHFQ/dZspV698OyiYfKgNEgv70qzpaHyvhb3swJ9Dgi0PCDQ4qUahd6dOkr9eHmd/r8Nx4n6HUR4o84ghUPvHIfT7ZyC5p1T6gOiEJAkm4fbcna0OyNk1XKc2XZAfAYxda/YuP6tQjSMfPTNN998mwwBlu+JMpNn9sZ6F7eF2h6XJXmoHti18rjVlmqey1qBRMfjaCCKGW0z0BXpgsQkCAhIioQ3/uMbcdsnb4OW1yAgcPWNV+Oxex7DyNBILejViCEeLd0cy7jgGB0fhWEa6GrvAmOsBvxK3UG47SuATvubdwHXc/cKJpki1DZsy8F8MwpOZlT5/j39bbsHOuOSLEGWyaHwodwJo6z4OZ6HlawphMBwKh5gjMCYKDcGLrh9ASGo1CgYXIiC2xfOWMDi2PJjRsP07A6Tdcgd4tEJIWwiqpSBEY5flPXMdiWBlGL2yKX2ecb1FccRCbCaLiVe9XBEw44oJeduTRZw+XHBn+vl6hWl/Tqtzin1j40oue/lgGlHui0ydVnSkiFwq5QxPAskvo8t694lNvMP0OpvPeDfSnzzzbczMQ4OVtRkSlAUVIIXhJSQmTNzj5mWuYKIAudqcohzeUe4A23BNiS1JCbyE1i2dhks3cKnb/w0XnntK7Fo+SIwxnBk3xF09XWVs4mrYwCZMMONMn5N08RwahiqrKIj0lEoKePlIi61ovN7wf3fAEBx7y0yYgPvBPD/ICqKH4hxroaTIhQfK8X78yoplBEEByivSezeJ3ratx/uSgiSSZbJDRLluihUfl6CJoVZPKLkzWQuFiBiBfArxvMJVijxzMpJH0U1jRV/BTqTQTjAGZVjAUvjOSck2QVxg3WoXfafRoVAw04gNWVhSpJ4dSyeqCOXe2T8cjRJ/KBmCSJOsVSUXcDlfONiYjA1bK03ic4p1R8HHt1aCLUldpSAaSm9JunZgGSkg+B26S69FmD3i03r7wLE+2jN7Qf8W4pvvvl2WnOWRzIEABCRElWjFwtZDOfN/EkOfv65nBxSeq0sy+iJ9RRElHwSF15xIWYvmY2ff+Pn+Oq/fBWMMUybO83l8q3+7IrQe7hgnq7gvJ7H+MQ4YtEYQoGQJyDqug7d1CtZwL4A+LcPgGLL+meDn/gaQBe4lkvBrIi0neRMsqrowYUKtgA9vLsjdt/O7k7TViRZpkKCB6oUPo/nTIJIhCb0tB4N6LlogFhJ5cMkVD4qL+cAWMlNWqMcCkhKkAz5/BC0nfmaJJDGXUFEueSKS72ruGVr6/Y1Oug47QSRUFDBq179D8jmTReUFnawkrZbr3NKgetri2qXIa+kHk6itZ6XeijUiGYFwjrT0kFmZIIog6N4GYBCoohkfpRWfXfYv7X45ptvk5q3iv9GBkawZ8MeLFu7DL2zeivh6Iy6o8Foty3sfYZlKEQ091xNDiEQDNtAWksX2nwWoay9ux3rblmHt//L2yG4QDga9uwVXH5cJ+N3IjOBTD6DjkQHZFn2dPlmc1lkc9mCK9qx3Le/UQAUG27qg2R9Dly4s3slybDVxCmhhLKNoh4FJ2x8Mhr73y1dXRlNVUqZvSWFr9q9W/08HsgYnAJsNBsPMiJQKYvXmd1b4qoqAOQoqnyO8RXQq4XEoJwxQgGZuDItAONoFiBhW7zpLaZknHOU6iw73bvOxA+Xe9uro4ezgwhh0p1BVFlCLBoE5xzpnAHBhavTiLsTiHfnlBoVsN5nbuSGbqAe1rqXSfBgPCcCEY1p6RAZ2VJCSCFRhCuvFZvWfw4J9Uu08Ku6f4vxzTffJqMA/vKrv8TgoUE8ctcjmHPeHLz23a9FKBQqw5HM5EVqQBW2sDfatr0EhFhdl+5ZUgibjUtrhYxgKt5AqyFPCSjlGn0NARDe2b7ZfBadbZ0uuCsniXCOVCYF0zLRFmvDaGrUrwP4twyAFXev5eXuHbMD8dFiUWEXIzjLqOw4HAr/+tH2npFUKCDLzBHnR456eBUYdLbFCKmmFQ7Y9oQeK8f5FZQ7L9ArLacqRU/UjfkTjvEKGXYimDe52he0iEDFBAzOBSZTBqbWzUuVJIwyfDWJ6/PoIFIlv3mqh4wRopEgVEVCNqvDMK1Kb+HidiSyRVdwUHN3Aql9n4Lw2OSLTR6uXscWvDqKlNTD8rPqV5Jk81BbBmpYZ/mJMNmGUlzTAYjPYEK/UWxc/3Gsue2HRPDvPL755ltzBbB4J3rxNS/GJS++BFvv24ovv+/LuOkzNyHeHnfCEkkkrZVlOcXBN0BgDRGxc6FzyHB2uOg8Ks1NvNbNS/Vr/zkfF1w73DOurzSPOdU/y7Ywnh6HRBLaEm3u0jHO7fr2twGAYvM7roA48TWAlrtWKMG0FUgMQZJNR/PYGjtySgn8/IFE9/4T4agiS5Dl+u7d6jIvssRFTzyrTejtQUNjMqMKxKFKuROCqhQ9UQf0SpBILngEhEgEx3UW7FFNxIPES6pa4ZtGBG7bNur1J65eVu4EUtOTt7pLiDvxo1FcH6sGRA9wCwVVRCMB6LqFsYxW4jOXdQWHtfM6t0+ElIzt9ELX1D4EHMGbdWoCUr2D4dhuE/dyQ/VQChh2pNskW1Ol/ETEkSgyGyS+j83rbhIb2Qdo7a0P+bcb33z727NbbrmFnVh64v2Ci8Vk0Sduf8vtg6ezHc45iBFWXrkSOx7YgYtffDFWXrkS4VgY3/+37+Pd//FuNywV4q3jMskXgeEogXIAljxdySFccAylhyCRVFuk2QFhXipfPQDkQN1Wb1xwl3KqGzqS6SRCwVCl9291HUDhu4D/JgCw7O6tze41RDAxyJVQxg0BcLUI002JvvO/iWmb9oUSxAiVBA+qk+DheDERuuO5vM6jyki2LcQYwEiUEzc4L6hcwpG4wYVwJH3UFnouLC9kn6AqMSSqpPVgJMI49QcFp+KuOdy5EBCChGXzpj2AKwBYartW3d6tUqqlkYrnIcOBNwBEVZYQj4YgAIyOZx0uZiqPiypZ67zOncneyEmtfokVcoOZqII1L8GynkrpAMS67uU66mHh0FT2Q8hB3YoFdWZmgyyfikDwEppeDOIPiE3rfg4h/TOt/eZB/7bjm29/G3bdj66bPSANfBcCV4IAoYg3rv/p+q9JJH3qG6/7RmbS85oQWHlVAQB/9+3f4aXXvRRL1izBvXfei5PHTkLLapi9aDZIpnLh/kL6HM0iIkhM2kagGUTU9VQmh2SNLJL5JCSSPFu0CSE8Vb+6AFj8Qc6JNyz8XHIRZ3NZZPNZxKIxKLLi3gcHgPoxgG57xtUBLBdzZparmDOIOFejp6xY336uhNJw1HyrKfgLiJEJSTk4FAnP6bNyjKHG3etZ5gVALGSZnQlTT2rxkGZKcv0afl5FnauXoerPPVaVclZ3PK+xUE/AFFGlXpHl0tXtLv5swyrWArRs959t8WISsEc9Poiq2n716vaJBjUAK68hAqLhAOLRELJ5HePJbLnTSGmcRCZf3PlE8nmz/jLYGzmZB6iq3l9Vnb6aeoCVuoBExJ3n3vntpyIr1xb59q4JKLzqENbUFHS/jiuRvB3vG+VqJOfwTROAq0H2brFp3ZfF1mva/FuPb749s23dT9ZdzSS2FcCVJTiSmRyRmHQzEe151y/ete7qO6+WWp7bHP/e/NE3Y/DQIH78Hz+GzW3c9Pmb0NHXgT/9+E/493X/Xr9mHucrIBCPwDyuMPKs2de0KHSDuoBe9f9GsiNIaamyCuhVw6/e/sJzfnGqnPW3wQWHzW0kU0nktTwS8UQlIURUXMLO/fCrwDyDAVBsuH4t4iceLhZzTpSXy8EUj/XutUOJk/Aq/OvxxwGRykvy8dFQaFoH1zoTtu4u5uzu4hFUuT29Q89ZIqyk86GAF8A17ujhDXxeYyXGeXdsIh+JtUsGdQSbF1nmEOCitvhzsTOI5e4MYtmlApoeHT+4R/eOSY8rrA+oMjoSEXAhMDyWQS5vVL2Goz8ymL1q9r2DC9sPpipwJ2oOlfPcuSDPtV40BcR6cFhbft4NiNXvWXmP2o4iAsR5qC1tR3tHhRpythVUAbwHtnpAbFp/s9j/7oB/C/LNt2eWXXvntd3X//T6XwK4kxFrrwNG0yWSbpsuT9/wwV998Lmtqn/H9x/HfT+9D5Is4ZpbrgGB8L1bvgfbtsEkBi2nYWRwBGPDYxB1/nFwNS2kGczW0SYy3vA3BZ1DGGMYmBiAZVvl/XcVXS6qcNVwW/ef1/wJ7y4gAGDZFsYmxiCEQFuiDYwxFxyWXMK2bftZwM9kABSPvbNTbFr3ZTB6tFB7rbT3ks4jHQftSOchTpJRM4l7QEAJFqjiLcXguBoYScrqtHYtG1aFVVL8UFQFe9u1vBxQaTQfD/NJqXzewFcfFDk6Iul8R5siLKk/xAWRpwrHHV04Su3SqOACrm37xj3bw9V06WgEmaLFziDFcTJj6GiLIBhUMJrMIpXOVwKBi38JNaU/d86jgxfN2DISUHQLVZ0+WBVwcRd4NQLExuphLay1ph42vrbqtJyTJIuHO5J2pHsMcsDZWq6UKLJDbFp3tX8b8s23Z4at/+/1f6cIZZsE6dUtddJg8ipidO/Nv735zzf/5ubzmimAPbN78OhdjyKdTAMMuPoDVyMcD+M3t/8GQoiCC3jJbBzcebDJPVsgDxnDPICQSCPM7Ja7iLSiEJq2iSOjR8DA6nbrcKp0zfbV6/d3OQ7QY7umbWJsYgwBNYBYNFazD3ktj3Q2jUg4AiaxigLo2zMHAIW4hYmN698KydwL4D3l/SXiIhAdsmJ9e7gcSnkqQ+6i4jXuP14V7iUAHD6phjM5k3pjmawkCdEZt/Sudphpoy1k2xIT3AFv3Cm7V7VHK0Eib6YIVtzG0UDemNbJdQT6QiZXJU91jQtwXscNDCHq9/4tQaBdhkBREA5rtiW8+vY26wXMC8ogBBCLBtGWCCOTMzA6loFp2q5jE2C6vbJ/98jzFzx8oiuU1FznhDxcvXXbuNVzyRYgzwmHvCVAnIR6iOrwkibuZSWgW5GuMTvcOS5IcjohFgG4U2xa/4jYcP1l/u3IN9/OTVv323XhG356w5dJpt/LTJ42WcWMgT1fYtLWj/z+I7f9y+//pbueAijJEl7+zpfjJ5/9CUy9UBf1Ve96FR656xGkxlPQchoWXLgATz7+pOt28/v/+j0O7T7kCVZjloykYSGKDFSGpq7fZn/juXGcTJ+EIik1fXm9+vWWM4JbVP08wbAEeEV1ERyIRWIIBoMuQOScI5PJIK/lEYvGIEmS2x3NfQh8RgCg2HjDs7D5xGaQ+D6AzvJyJThuxXp32cHEIOq4ewU1dwEL77RPaCZjg2OS2tth53XEAzkjqJyOyuflqi27jXllvEymPb0jmwtGulRdxAP1++gWMLWQXFKlwhEJCBKNev+6YgMtXj9uryS38Sbxf1XqYSiooLszCgA4NZJCLq+7oBXgYn7n8YkXL3no2KLOIynmFVtX9Y+B6kCVEKxKyeNoQZFrQT0kVt+9XFYPT9O9LOSgZsd7h3kwngIxx51IXAJGD4jN634gNtw0078t+ebbOaT63bn+UikvbWOMvUdiEp1BTJ0ik7wuQIG9n/zfT978ld9/xRUCwou/IRdftBhrX7QW3/zAN7F/y35wm4NJDAMHBqDndCxZvQSHdx8u31omRifwm2//Bl943xcgILB3x1787r9+V4h/K/6zBcdJg5A1Mogifdqu32Pjx5DRMyCiur15vbJvJ6P6udzZdbbLJAZJllwZwpZtYSI9AU4c8Xi80lrOsR9+Kzi3nXNZwGL7DT0wxWcB/jY4c0+ZpFmBxDEEQqlSRmbDzmBeq0qZngUXbw0AyhIXs3qExpWuUMaQlOZ9e4tdOoCmNfwq9f8K4xmE6O/Qc1C7QjrkcKHUivAusoxCFq2qSnjowQewYtVFkGWpXGQZ4IKLgspXUjObHmeqqvVX6r7hAL/aA1udGUxQFIb2RAREwOh4BqbFy0kzpXHd0WT+kll7R9rCGaPmFwiR4J5dOqo+SU0Sr0fpFubxOo9ro/ye5Rsvyh04vV7t6hNXt+ZgbcmYSta5o0SNIMEDsQxXIjmmp2LMzIWLHUUYBN4CZr1WbF73VeiRW+iyL+b9W5Rvvj1Nqt9t6xS5Q/4IgT5KRNKZ9MetGtNORJ/JsMxNn/nzZz528/Nv/iERiZJSBgDnP/t8TF80Hb/9xm9x6z/dCmKEjv4O5HN5xLvisEwLpmlCVVXc8/N7MHfZXIwMjkAIgdkLZ2PzfZvx0bd+FNf+07VYsnJJGah0mzCgcSTkMSSCMZgs0lJmsCUsHBg+AJWpZbWyXmZuddkWVykY1CqCAOrXAUQTmCxCommbSKfTUAMqgoGgex8cGcCLlMxa/8o+BwFQ3Hm1hPntN8DknwLQ5qA2LtTYCTsYOwlqWpitQbcIBzcAsKvm8Rlddl4OxlUDapgJcrVf44IcQCeadPSoreHHhXB19OiMafloPCaZSESIUyVZ1KPIMmMMwYACIiCvGTh8+DBWrLwI5TZuVN4XRy9gUYNQ1f/njNfWAYTbJVy/4weBERCPBhGNBJDOasjmjKpMaiCimtbK6YdGF/cOpryLMBf3qFmbOaoGtaIaSoXmIV6AyOCGPLfW3QgQqcF6UWJk8vq9QUSiEG3QBGQLJ9YWobakHYxkWC4VJ0sLFdeEIPAhqNmXiY03vtwvG+Obb0+9vfPn7zyPQD8k0MqpLJJc9dpZRPT9/7j3P276wj1f+Me8lXdBUEdfB67912uRncgCHGjraoOe0xEIBTBz0Uwc23cMMxfOxH2/ug+vvem1uOdn90BAQAkqeP17Xo/BQ4P49r99G32z+/DW978VifZEGcBSFiGbzaE3lBOK0kmCBet39dDTOJ48DlVSG0MfROPlJbCj1gGQe/T3dW0fhXi/nJZDOBx2ZwGXxtiVhJRZsvEmsWl9P8h+F63+1m4fAM8F+Nuy/lJw8XUIrHRJ4nJgnAfbjoLJhnOmrRT8pZbVvwoklKSuAnUlIrbZ0abyvBUP23ahi0ezXrzujh6V3r3OHr1eamBENcyeLsk0qCescQLzAr/yZ2RQFQmKIsMwLdgWL8ju3C7/AquoUgUXqGVNohOI7OwF7FbVnCn6Xh0/QkEF7YkwDNPG4KmJcgu30jiJhLigf2Bs5YwjY7JsiwY4hJIaWwJEXsVqrPDZGtcEbKYeonJu6jIgqwOWNdeWGxBd+0u1gQVN1UNSTB7pHIWlB5iWSpBtqMU1y0D2I2LTuufQmtv3+FOyb749FZMR6F2/eNd7GLHPElFgymrpNR53MTF6MCyF05qp1bhBI22RQokVzmHqJtSQinnnz8PBnQdxfP9xzFkyB+3d7QiGg65iy9PmTsPz/v55+O8v/zf279iPl735ZXjha15YyJYt1s8b0ogC5himBRUg0F/4ye/Yx+MTx5HRM+V4P9FIkUOVO5hzlxvWUbOwJQAsj6ujNnLBkcvlYFkWYtFYpe2cYx/yuTxMyyyPL/rrngfBtotN676JkPwROm/y9Rr/VuxpjQEUW67tFpvXfRtcPARU4E8wSeORjj12uHM/mKzDM4aUGmRliprSIaX1pUQR0yaaP83KKoG4mtHDQe7MGPBI9HAnfVRlGJTiA7lXzJ+ABJvP7sln450dsiY6w+X1dRIsJJkhFFLAIZDJajAMG1wI2Jy7wLL8muJPpepM30K8n+0ZF1joTOJdyqX0GWv2S2Lo7IgiFg1ieCyDkbEMLMtdTgaHnkDwF/9ptx++T5dluxxP50zQEVXnpDoW0BWj1zCeU7jOO69aX84k9tiGK4aQGl9bXLSanFKbvYxWk1PkoGZHu0/ZwbZxR/u7HgC/E1uu7fZnZt98O8uq3y/eOfvdv3r3X2Qmf0liUqBRpqxXckTDEisNyqkUx5HK1HgimEBQCZZ/5Dv/LMtC35w+gIC558/Fkb1HcM+d9+CFb3oh8rl8AQCr/uVzecxcOBP/+r1/xeG9h/Hv762tIWjYAkdzFsYyx6GKjJCYBEYMe4f3ImfkKj17q2v7VcFZablhGRgaGYJhG4XlnLdWBqZO4QXPRBPOkUqnwAVHNBotxySW/mzbRjaThSABWZG9egErAN6DvLVHbFz/Vl8BfCrB786rJcxrWw9OnwLQ7pC9OFejAzwQGwQRh9O9Vy2cFFXAcqyZy8tGtW7g4jPLBv1le1fPX3d1TrNsSWKsEHvXuG9vtcrXrG9vuWkZpnfo2UC0QzVEMEJ2sXVbWVVz77gsMQSDKiAEslm9WEiZyk1JSjF75Qu50stMABCT6QVsC7vUYs61LWeSh1ONjMeCiEWCSGc0ZLK6a78AIB7UjPPU7eNHtvwpMT6QDt7/jRPT9vz5SO7Sty8/2TkvoZfjByer2MLt1udVYpxTPfRUAU/TvewlNFZ+NbXuXnZvt7F7WQhABCIZSLLBcqM9VHiPeRDKFwC81Z+iffPt7Nh7f/neqwl0OyPWNlX9cU+3JVtEiiCqRJG38tAtvayKSYqED97+QQgh0NnfiaN7j0IJKFi0chEe/f2jCEaCNe3W8tkCGIZjYVz3L9cV4gQhcGDPAcxdNBeyLJehK2MBB1NJ6lFT4kBqgoJysG5cXz1XcE7LYTw97l38uUW3r+s3eBUIlh5rmoZYLIZgKFizD6ZpIpvLQg2oUBQFhmFUStIEIhCyAbLK4ejTQeL7YtP6t/1fdAs/5QAoNr/jEgj2dQCrXMvlwJgdTByGpOguyEMR8urN3lRfy68QRGXeHdEXdOw6wTp1gyTGRJ2+vcW4P9dy0aBvr0OqKi5vSxhad2dI6Lwvoluo6qNb1UOXCMGACkVm0HQTlmU7bhCVcaJYx6jSRq20vHDp25MAQBJCOOMI4YDMCgASwiEFHYkIdMPC4MmJ8ntXoNXmF04/NXrJ/CMjEgmx4sIrx/befTix9c49Paf2j4V/8+G/zp19Ud/EZW9ffjKQCPJ6LFS/x29zn03dZ1XvMRn38mSSU9zu5cbJKY3cy6X35HJAR6h9RMqNdRdf9max4fpb6aI7Hvanat98mzr74C8/2MOJ3wbCqyYRuzdVrt/6YxghLscLSpaZhWkX3JhMYWVYmr98PhatXFRW+gLhgBukhEAuk3O5hrv7uyGEwG9/+Fsc2nMIN3z0Bpy/+nwXfA3mTQrKwdbi+hxwlsqmkM6n0RHvQDKddJVu8arvV6/9m0dh65p9CAQDUFW1qmg0h6Zp0HUdoVCoXP/PBY/EYEe6QEYekp4CeCkr+P+mW/gpA0Dx8HUdUKVPQOBdrimRJE0E44e4Gh73VGdEsya03lISFWooE1WtUoMBvPhFl4S2bdmU2rRLj7ea3etWAyvjK/BYGK8q3Jo3nfI6uqN5k4iosQoVUBQEgwosy0Y6o6MUg+HV1Na2eTnOwU04hZLplsXROOCuuEAANncmelSgtJy0IjF0tUUhywynRtMwTNvdJg8Ci3omklcuOXQyohpWmXUYiSUvnJuce9n09Laf7e3c8+fDnYcfG0yceHwkuvwVC4cveOXC8WZwJ7zC5erG7JXOtaBm6mEtIHrA2mTUwzqva5ScUg2InHkrj1wJ5ZgSzJKpRQAQJLoBgA+Avvk2RfaBX33gxYLEtxmxfi8Yaxn+pj45pPxcZjJCagiGZSCtp2HxSmmXf/jAPxTu2kJAy2k1MYCCCstDkVANfOWyOSy+cDF+ettPcU/vPbjhX26ojGuUyeuhyHHBMZochc1t9LT1FH4UwzGet6gAUp3ewB4xh+VMYse6XD4HbnGEo+HCPdQjZhGCFXx4ahiWEgDT0sSMbOmSKLmFXyM2rv8wrb3tB3/r34GzHgNYLuasSlXFnMFFIHLUjvdusdXwGOrG7IHXi7sq1GxrXPOtepngHFyAVq25KP6iy7vSEhO8tS4domHfXsaEmDvNSk/rSyBrd8ZsDvJspVZ8zBhDNByAJDOkMxqyecNdUNpZWJqX+zy6gdNRiBoMotz2rar3r1UdA2jbEIJEvS4jsXAQ/d1x5PI6BobGoRULkpb+OiO5/GtW7z340uV7j0dUw/Q6b4Goal1y7QUnX/GZ5xzoW9aVMXKmtOknu/p+8b675x3dNBgRLbTrc53rhjF7wv2ohTqQpTZuaBB76Ixb5F4xhHXfhxoUlG699qGtxiccbPgq8fD7Q/607ZtvZ27/cfd/vEqW5C9KTOqvV/+uXqxfTYwfTb6NWtOYwarXh9UweuO9aA+3F2LyHAUxBATautsQioZqu4EUXcBey+csnoNP3PoJLL94OT583YeRHE3WlE2pjvdzFmMWQsC0TJwaO1UoU9PWUXblQMD92tMtBA0hPOsLOvbB5jay2WyhHm045AmN5f1w3tdJEjzUxu1YDxeS6rw8Sm7he8SW9ct8BfB04W/jDRdh04mvg7DGtVwKjNrhtoOQZK0s1vCqrF7ykHM8FpWyhVpVDwWvxMrNnrc09pqOofwf7t4nZXVJ5RxgzBGhz4oqHwcEQwXIWFElLD7u77Rybe1xptuRmKusi3tnAAEwiRAOqlAUCXndhOlQ1njJNewszVIppwebFz5tWbkThdcJRqI7YRvrXzx+6Pv3tM2yLElqppkKUaUAitI+CNi2wKnB8aK7t+KGDsq2ffH8UycvnT846hnL5tLZCvTTMSuuveQTzzp88OGB2Kb/2tmfOpkN3PP5DbP6z+9OP+sdFw7G+yOmQ5ATTXU3cjn3G39Ip+ZWx73sVA9rt9u6e7mReljrem7NvSxkRRdMNolbCoAYAukLATzqT9+++XZmFgwEYzMDMxdnjewTqXyql4i6ptT1e5YUwkQwgUQwgbSeRiqfKoPUxX93MbjNa1S1fC6P/nB/jaqWz+YLip8QePZLno3u/m58/ubP49++9W+eip+XGzZv5DE6MYpYOIZwMOxWBT3GeyqAVD8esBoSndsszWGmbSKXy0FVC/F+1QqmltdgW3YFGjmDqMoGEUyBHe2ymZEn0lKMhMMtzLFNbFr3TWjWR+ny76R9AGwF/Hbc2A7DvgXg7wRQgREm5XkwdoArkTHvGdVbl6zM3uQ5gaNO3b9CBrobLG1XvTwg3tYX+vuXR8w//mVr7tSYHHbHAgpHaZfapI9oiJtzZwa0PO+K5U00BD8QEAwqCIVUmKaFiZRe2n94Fln2IIxSDKArdg+FUokAxOXn5cfn9Fi5r/ymbd5wKhDyBJTiMs45vGIAR0bTsLk7+YQRxLJpY2MvOO/YUFi1rcr+FKQu8oQq9zmZd9n01JyL+tOP/+bJzu2/2ts7uHM49qsP/iWy+Ko5o6v+YemwGpG58yN7Ql6LRb4bXps17mXR0L1cD0Jd74mq5BTUcUvXAcRG7yGYYhQBEBBspg+Avvl25mbbhd64UTV6XiwQM1N66jHN0FYQUeBsu35PNznEOa4z0om2UBuS+STSWroQHyixmiQQLet2DTsB0DIr7uRlq5Yhm8riyV1PYu6SuTVJF9WKWjqbRiqbQke8A4pSWyLGqQCWevA6ga4e9FWXiKnrjhYCmqHB0I2aeL9S7b+8lgcxAjFytqUrdHwCqu7PBK6EBZQgl/Q0Iz1TmgUKbuGg/DfpFp5SABTiFoYtg++AYX8ajvZtIHChRo/YgfhxFORXjymxOJMS1So4Tshjnm9cFyCrmUDwgkvU+R5KIKa84iXPlh5+6OHU7sMi3ii7l4MQZIIvnkMZk3VHMxbFiERNYodTxVMVCdFIoNC2J50v10ci8i6y7NoOKsWYS8khXLjfjzsaWMzoNrVPvXVkz/fviU9/eHesp965KniVRY2cZRbfo0Rg09pzmRevPH58WiKnNYSVFmL2mMLEha9ZNDzvihkTG374RN+RDSfadv3xYPehx060rfj7hSeX/t288UaFvFsp8t0KVNVu1wFrDZJTBABqJWiCJqceNkpOIYmZsMobmeFP3b75NkXzVfFLSCClLdh2MQ/w4QltYkhwcYETxs6p5BDHGFmW0R/vR0e4AyPZEeTNfA1UveEf3wAzb9bAl5bT8LPbf4Yj+47gDe98AyLRCJSAgkN7D2HO4jlul2uVsjeWHINpmehq7wJjrMZFLISAbumIiIgbCltU/WpUQI8sYNu2YQsboUjI3ZYOBbe0ntchqzIkWSqArsN9Xa6nQbXaEsBgBxM2KRHOtHGJLKO0pugWXncNGL2LVt22ywdA55dp07pV2HTiayBc6louBUZ5qG2fkGStmLJKXhRXyJZolPHhKJpcs4ac569WBXS4l0WVAlg2ibHLr7g83tezI3X/plSMC1B1di8XwPx+OxNNtKt5HohX8juEezepIDMxRoiEA1AVCdmcXoarco6HR5FlT7mq1PGDV5WBKfMvCTgEMFUR9vV/N3F0Xp+VvfOBttmWJbFaZuYoCIBVsCkKLuxoyDSvXDoysGbe8Hjjc0JoCmtVHy3WHdaf9/61R4d2j4089r0d08aOTIQf+c7jMw7cf7ztkrcvP9E5v00/LbhroB42di+L1t4DrYGuF1gKp7CLZskpqG3dAgAk/E7mvvk2ZYJF4ct13y/vw6xFs7Bw+cLuznBnt83tvVkjGxAQc87V5BDn84gaQTQQRUbP4FT6FCxulSGqf3Z/pY6fA75ymRw+ftvHcXjfYfzTG/4JsxbOwu5tu/G6da8rq2XVyptpmRhNjYIxhs72zvIxdLpnbdtGMp2EYRiwuQ0mWFPVryEAEjzd0cQIwXDQXfwZHIZuFFrkBdWC8leVBYxKjHZDb4yQZGFHujkz8ozpSQmcl0ZdCS7+ZtzCZwyAFXcv3gmqcffu50p0pHZyrRM/VgYbNkkFp+jq9VAPq18oBBelnrletmDx8nhHx7HsH+47pOqmrAguIBjQ1cbz06fFeN6KRvNWsd0ZRJXaV4AnAhAOKoiEAtAMC5mcVtTxasd5/hW3x6riICtJIFUdRLgAFXJOXK+4amV2ZOF0I/ONuzoWjKTdLmHbFlX1BIvQKgmxctb48EtXDg2oKueeHVecgNMsHK9BpZ6+pR3ZV37mOfv3/PlQ+9Y790479eR49K6P3r9wzmXTxi968wVD4baAVQtVBXAS1ezcTCFsGLMHR0xpHXisF2raAHTPpPah43qVHJQ45k/bvvl25sbBwYo3FkmWcO/P7sWC5QsKkyKTF7eH2rlma1tNy1xERJHJumvPtkLo9R7toXaokorjE8dd2cLV/XcBQMsXsoOvevVVuPSqS/GX//kLll64FCsuWwFX0oVD2RtPj0ORFcQjcU8XsWmaGEuPIaAGEAw44Iy3WPvPq1cwcSEgqF4tQmemsaZp4IJDDarF8ly8poA1Kol4hdsta+RVInA1bAslZJOWlJmRLfHN34xb+LQBsODuHbiu6O7tckz4HGr0sK3GjxSKOdfrweWtAhaAw2OmZqV4vjqA2EpWABFsDthWbc9c58OO7pmR174sYfzxL9tyeV1Wl8xTsxra41mjWNalWgBzvLeqSIhFQ+BcYHwi56rZB6/yLl7xf8VxvAoMLV4o3lxdB5BXOmqguvbhrG4z/8m3nHzi23/qmL3lyWh36f1LnUicMDq/JzvxqjVDR7vjuu4+J42gqm4aTksxe8QIS180b2zeZTMmtty5p3fvPYe7Dz440HFsy8nE8lcsHFr+yoWjJEg0VN1ahqpKckp1jlFNoshpKJBNk1MmUfuw9F0gbsuO9af8qds336ZWAeyd3YuHfvNQ+fnB3Qcxd8lcFpSDK0NyKKXb+hbO+UoionM1OYRASOaTxVInqE26cPTftS0bXX1dhcLREIgkInjlNa8EI1b2NHklggCAIiueJWGyWhaZbAbRSBSqokI39IJSJ8jVhaMlAHTsa00GsCOjt7R9m9vQ8zrAADWg1iaOOGFVcJQUQIdfsCE3CAJEqM1EIGxRfkIhyyjdqZ/xbuHTAkCx+R2rsXngGwBd5N5aYJiHEnvBlDxKIMdYLeTxKshjrsPtMRvWATq0BpZwuJcFF8KyeUMxCAACobj6ypdeJm3Y+qTI2kqiVMi52i1b2kHGgFgkAFWVkM5qMI1Kdm9DGmiS+OEcJ8p1AN3HoPTdKsdKVr1lQIZ900vGDv55m5H+1UNtcyyrWNKw+ML2sKm9ZNWpoxfOSk+UD2UNtNfru0xNIa8VaArEVOvS65YPLH7BnJFHv7NjxtDu0fjmn+ye/uSDxzsuest5AzNX9GYmA1WtJqe0ZGfgXj6T5BTigsg2gmXRQucb/WnbN9/O3GzYkCCBQOib24fhgeEypHz7k99G74xevPc/3wsiiofk0CoSdMSwDQ2ExU9bckgdhRAAhjPDkEgqq5slwPWCLCYxfO5nn4OiKG61rTiuXGIFzXv+Ci6Qyqeg6zraYm0giWq7gLTS/aPOuErJtVr1DwKFeD+tEu9XnS1cKHnmKB1TaSHa+jxVUgikgBDRHh16Vpb0lAxuP+PdwpMCwEIxZ/ZvELQO7mLOeRFK7OFKeLiGDYSXeOOANVaP7YSHKuLM3KkGRBKopx469oMLgeqWaaIOVsqSLOm2VGjsVoyNc5ZlKXxpBcJBFZFIAPm8iVRGK8FGTZFlrwSRZokfznF2MdmluoBz8c5V/FVTnzaef2FmeFG/nrn1f7sW2kIGYza/bPHE4EtXjJyQJS68OqcUnhaLansqVaVzQpNX5UQtTnXMimsvueXyJ5/869G2TT/ZPWPieDr05888umDmqr7xS685fyDaEzFbhSrv5JT6CUOeuHuW3cuNjFn5qOMlT9Bl3/ZdwL75NjUECMEKQBGKhiArMjKpDNJjaeh5HROjE+5W84xmB6QAhBDbuOAziajzXEgO0S0dyVwSEqvAT0kBdCpp1cClBBRXPUFn9nCpuHRNKZcqRY5zXuj4AYG2eFv517dTqWtZASRvAHTW+6sGUt3QYZu2O97PMc4yLVimBUmRyq8pqyei8Ekd+osQ9XIQSLjv34Gwaashi/JphRkZuXjzL7mFXys2rv+XZ4pbuCUAFAKETddfC6LPwuHuBRHnSuQQD8QPgZHtngWdj+vF9AmPjF8H5FWph6IJILaiHnLh0TJN1O5zmVs5hwDzqEsoEAjISERDsGyO0bGsI7u3Dhk4Yu0aH3B4JojwIqOV2rSVdKdCckiRIJt0Tpnda+Q+9g8ndz6wJ9F18cKh/W0R0yy9h1fnFE8sEh7yFeqdbg9RkporcnMvnT4xuGcsuv8vR3oggOEnx6MjB5PBaE/EqFYPmyBcrQJdJ2bvtNrRnQ6EtqYeEumpLsfz7/uztm++TZ05oad/bj+GB4axZ+MenH/p+Rg+PoxsKotoPIo//eRPCIaDeO6rngtGbIXEJI1AjwJYRUTq05Uckswlodt6TSZuTdZtK0kXVHnMGHPBn9e2DctAciIJNaAiHAyXj6cTDqtVwHqqX3XpF9c4guc+WKYFSUiQg7I73q8InmaxeYEUkMrbK44RcPlz6iBLzf27tkKsCMUNroYtSUsqZOml+MBpZbcwF++mi+544hkNgGLTui5swk9AuMq1XFKH7WBiN2QlVz0TFsplOOugCY9Jr0E8Xw2F1TlLrbiXyQ2WvNgyreUfikKU2cr51xEPQ5YljKdyxWLO5N3rVzRK/Gh1XDHWz7YLr6iqAyhApa4TnrUPy4eCFeAnHOTWi1aMD3n/0qHGpFM3EaLYs7mOelgfmmrfc2D7qehDd2yfkxnOBUHAvMumj1z69uXHA1HVdiry9cvFnFlySt0bQgP10DM5pRUXQx2vv5Qdm0bcLpWnH4dhf9efsn3zbaoEwIILuAQcvXN6MTwwjO0PbMdLr30ptj+wHSePnUTkvAge+eMjOLLnCKbNmYbFKxaDQEEQLmGMnWRgp4jogqc6OWQwNVioZuehupXVrmYAWAfMqmGu2v2b03JIZ9OIhCMIqAE3nHGBTD4DwzQQEiGQoPpZwCRaAlSvlm5MYlCCiid4mroJYgRJlTw+Q/Wd3aECUlVtQI/EVZdiKEBgsm2Hu2xmaxLlkwFyuoUZbT3X3cJyE/ibD+APICysHAYpL8LxXVyNnCx48Twgj5qogOSturkOc526LuVEEWoGiKyqHiCK0rgNzzIw9bYjnLBaUd1URcLwaKYs6jVX8erM+o6rr278X3Gczbm7EwhcJeccR5QaFFEWDaSrJvF8KEJePZJpRT2s/pii8gU00ob02H/tnP7k/cd7hRCIdoW1S65bfmTWqt7JfXmmIDnFG3SpAnkt1j5sRT10waNtBqR8chrZRsQB5jf77l/ffDt7CmDf7D4c2HEAQ4eHsHj1Ypw4cAInj51EZ28njuw5gktffCn+fOefsWjFIqeC1StI9DJij6uM9QlI3Wc7OcSyLQxMDECV1AJAeYFaq2VXqD4AOuP4yiVeYCOTz4BzjkQsUSm+XIJPzpHKpAAUkkWqkzaqj3nT3sBFJ7CXO7q8LaqAoc1tWJoFJjNArlUFi25xgXrZn2glZps8b/hcDlqI9tpMTytMz6jPFLdwXQAUW9cvhC0eANBb/rqo0QN2KPEkyOHuFVWQx5rLKQIN4vmaqIcVpar2daJ6jId7mdtwl4Fp5o0VHFxIIBKFsixU+dhcNK7bV1fi8cj49QS/qnGiugwMytnC7otaVEFeK51TqBQyUkcba8G9XI+uSuBEDdTDAw8NtG34wc45+QldZYzE4hfMHbrkLecdJ0VqEE1Q3708Vckpnp+TWojkm0RySvGcMVlLdZOR6a6S02+nNXfc4U/Xvvk2xQDoAI7eOb246/a7sHj1YsgBGV0zujB0eAimbqK9px1XvPwK/PTLPy0DxYEnDmDe0nlQZAU2ty8whEA3y0KTErAhTUm3j+oxaS2NsdwYVEltnJjRRPVrBl8uAHQqbzaHZVtoT7SDmLv+nmmZSKfTUFQFwUAQqUzKDaei1tXcEgAK7zqArg4jxRI0tmlDUiWXKuqlHnrN+q55pGGIlqhSDB0vJBI8GNeFEjKZNhEgSy/xVdEtfP214HjXueQW9gRA8eDbY7DFryvwR7Ydat8s1NApgLknNmcXBeYBebwK8lhjOGymHgo0LhfTzL0sRKUXcCsCIIQoZ8sWyrIU3LYcFQCslyBSr8iye5x3DUCvBJFCL+BCQWpngkhR7hKekFe3c4o3IDZSD5u5l9EQqryRKjOcUx+6fducgR3DHQDQNSeeftb6FYc657Xni4e/ktbSzL08yeSUuu3mRJMYwiYZv5N1LzMrF2f51HRUXL4AYELg01hz+yf9qdo336bWSq3gSrfN2ctm4/K/vxy9s3ohhEDXtC7seGAHju8/jjVXrcH0+dNxauBUGUxu/dit6JvVhw995UPFuUFgmIcQNHV0qLqdZW3SVLp+B1ODMG0TEpPqJkW4Yu5EfdWvFQD06gJCjBANRsv1/Zwt2XK5HELBEGRV9u4BLFov/ux8zCE8aw46gdbQCmHhckAuJ45Uxx86Xi+8ZR9XDmTzrODyvIealp9CUmw70pUjU5MlPRmEbRdnJnouGM4pt7C3AhiUPgJgaQn+RLTjYSEFk/UlM2dMJas/47F6IOJWD0U1WDYERNZAeal1L3PBHXUA4bjgGvxK9HI1c1FKvvBMEKkmYZBofVwd47wqBrC4HVFdF8Z1Ts6sc4r35/P+PtR1unqphwLY8dv9vdt/vne2qduSEpTt5a9YcGz53y8ackqF5aSNKU5O8VQBW0hOaQaIzetROg4tt1UpPz6dLD1RNe4hgG6ktbc/7k/Vvvl29hVAJjO85LqXlDNgu6Z34eTRkzh55CReeu1LK5nCExmkRlPQNA3jI+NlCagEVzoYhkySEnLaCikhGBSSzyQ5BAAOjR6CzGQXmNVk6Fapf41Uv4ZJF8XblJfCCOFOyOCCI5fLQTM1RCNRMMZqCy+LYt/5SXT/cJem4XXb0tm2DcuwCv1+FfJWLWtcx+QNgFQtfrSgAjYr7aUETUvusZieCTA9EzgX3cI1ACi23TAdFn9f+Xkgvp3LwTG4KJfVKijeTa0qSgwBEHXi+eod8Jbcy5OIPQRgC6oogKKJ+FfmPEfv3aJCx4WAM/nWW8k7k8SP2nG2XVIAC8uZ63qk6gNft7XeZDqnVB/zmuaJrDX6caqHwweS4Ydu3Tp/7GgqBgB9y7rGr1i/4mCsr5jh26J66Ka2eoqcd3KK5/lvkpzigu466mFrySmCWD7dw8xMH4TrSzECIW7Gmju+S9S0VKVvvvl2JgAo6mSdQiAYCULLaYh3xTFr8SwICEybNw0nj5/Erg27cOFlF+LksZPITGQQS8Twh//+A0LhECzTwtwlc7Fs5TI5YxvoVg1TUtolmyQ22eQQzdRwNHkUxfIzntDXaPlkVL9qAPQCS1cvXm4jnU5DkEA8Ei8ft5oagKejAFJttrAXkJq6CUmWAAlu8GwEx0LAJXW6tBjh4sGGiYSOvp41ySOucUzwYDwPNaxTPhk+19zCtQqgZb8WoAAAQFJG7WDsKDWCLk8ZlNWZOIXH9OpQ0USDqHnmAZbV7mVqQT0UXNRPAqnNDheCQ/Aqny2cmU2i9pKhJkrQJBI/nOMkWUJ7e3u5DAwvAmIRRIW3UlVHlaXGv2+oeJBr4yjru5c91UPHGMsStPXO3dOf+N2BmdziLBhVjdVvWnpw8VVzRisufe8YQogGbteznJzirR625Oit3RVTi0r5iVnErWDVjnwbtvLPdPHXR/2p2Tffzq6VWsF5tUkrPb75Wzfj2L5jZZDon9OPU8dPYctft+CV170SW+/fisFjg4gmonjwDw9i4QULMXvhbPz+v3+PpSuXQkBg2CRF5SnRpzLDkjtVEGvJ9TucHcZEfgIBKeAJP43UrmZ195oCYPH4eJVx4YLDsAyk0imoqopgMFgDW6ZlIq/loQSUurUIa1TIOudAUJ06gCQgKVIteDY4TnGZ8UWxgFFNerUzAlVmdC+wK4foVyalhsBIAJcUm6LdaTLzCssnw+Dnhlu4FgAFvbz0MbgcOgwSwptyWQOQEN6Q50ENBVWkQbmYsnpYR3ksLWnVvWy3GANY+iJw4ci6rahypQrlZVW5aeKHV4JIIzh0A6KqyJg1Yxr6+/qQy+uuccVScqI+3Im66li9lnyNMz4m714+vu1U/OFvbV+YOZULg4BZa/pOPWv9yoOhhGo1hLzTcS97fvbTS05BXfVwcrUPGbhM2fGZZGqdVVvaDi5uoovueNifln3z7SkjwHIh6HqQooZULFixoPy8f04/9u/YjxOHTmDp2qU4fuA4ho4OobuvG4d2H8JbP/hWEAh3/+LuMnTs37kfC5YtoAGuqFF5xO4MxYTN4nKj5JADIwcghAAj5pnJ2goMTsrlCu9C0F5gaZgG9KyOUCgERVVq4E/TNGi6BlmpuKxLNQEnpfpVwFDUqHpCgCmsJsaw0fG4sD2ov3l2RyamyLy4X03Cihopf3UWiHpNKBxMJAcNO9ZrkpYOMT0T9HILY81tP3yqPECyxw7PKH+eQGjEBRaiFrq8Ic8NiIVg/TquXvKANdTTgur48CbhXraE7YoBbM1TUHsuSr10gdNJ/Gg9QURihEg4AEUptpgzeU2CiF2mUbTcOUU0utibqYcNFMRq97KWNuQNP3h89pMPDEyHEIh2hvIXX3vBk7PX9CfrQ3uL7uUWk1NcXUxqBrTgXkZ9QGxa+5ABkpbpJj09A4I7v29pCHwCmWlfpStvsfwZ2TffnjqzYUMS0qRAqW9OH35166+wbO0yKAEFPTN6MHh4EKZuoqOnAwuXL4SW0XDy+Mnya774z1/EtNnT8IlvfAJZi6RcJoOeQNaIhLolzkKS0/VrCQu7B3cjJIcqUNbIpelU3UwTTGZlUWLSCiB5tIKrek/DMGBxC4lEotx5xOlezWt5GIaBcCSMXC5XztKFgPc+iFYKVXtnAVfDXz2VNCBBvG5me/pZXVGthhkaGtWKUE1gsSauvK66SEIEE1lLCeuSNh4my1CKQ6aBxPexZd3bxUb2Llp7686nHgCBDoeaYzgzIOqqgHAWYa6nyglMRj2sTOBN3tNDPWzkXhbcUQZGNHt7UWgeLBiqy7IIwDs5pLwDk0z88BgXCiqIhAPQNBOZbKXFnHMD3cGhwZmRQycK9DR1nVMaZVoXPCcNCnkX1zx5/7HODf+1a6E2oQUYI7HwebOPX/zW847IAZl7V8c5O8kpdVXAJuph4VdYI1dvY/cys80wyybnwDajVSt/Bpm9n1bcOuBPxb759vRYy10yimAx97y5uPI1V6Jvdh+EEOie3o2t92/F0X1HcfELLgYAhGNhyKqMdDKNidEJ6Hkd48Pjru0NG6SO26NielAx5OA0BSSRsNP2k8NHWEgOUStxbM7ae8lMslCeJd7eUu/dRjX5HKpHjaLGJIZ4KF7IRHZ2CuEc2Vy28PnDYZeaV6of6KkAElrIAuaYzPFwLl8Qlo1rF3ZPdCgyrzABOWK1RV0CcQpwBQZBg7GnB4xgsmWHu1Nk5VWmTUSo5BYWeA6IbxGb1n0TVuBjdMlXU08lAKYBdBfEEa4IkvXG5TLqfbiqWVzUjitNrafjXm6kHjaCAA5RdgGL5oIveLEFW7XqVrjQKpK5M0GkYZkXNE8QCSgSYtEgOBcYGy/8kqruNBJV0ullXbt2dweHkmX1y6P24el2ThFNALGRXJ4ZzqkP3rZt4YnHh7sBoGN2fOJZ61bs617QkUX5zDdSD+sNOb3klGYxhI1qHzb8LtdRDwmCMS05g5m5/qr3PQAh3k1r7/iDP/365tvTDICTcZUWY85ese4V5R66PTN6MHRkCINHBvGq615Vfs2MeTMwdGwIjz/6OFZesRJDR4eQnkgjnojj1z/8NcLhMF589YvpWM5UI+Zxu0MS1tGcrkpMIa+6dfUgxxY2xpJjMCwDiqxUumGgxRhAqh+b5+VGJUbgxF37ZFkWsrksJEWCqqienUn6A2QO6VzmKLhGWolDdAJkNfw1y/Ylw8aMBwbQe2BCPvUPy9SOK2fnweDqmtCylQWXZq8TDbWIRuqiUEK6LQcNpqdCpGfD5HQLy/rVYuP6fz5bbmEvF/BBCMwr6ORWBExJ13xQAuoqcq6YPVG/zQpjjZU31ggymGO7DVrOeaiH3EJVJxDhuRvlpTav9N6t+YUEj8SPOokdLSSIMEaIRYJQFRnpjA7TtGp6CyvMNOckDh9Y1LHnKHPGZ9apfdioc0oN5LF617TwgCoP9zIHdvx2/7Rtv9izwNJtWQ7K1gUvnX9oxWsWDZDERPnaaeZerv+9qZu93FrtQ2+APN3OKV5gyfRMFzPSs8G5s6afBoHPImN8hq78nuZPvb759vRadSs4z+SEBhBFoHKmcFtnG2YvmV2GkunzpmPo+BA23LsBV6+/Ghvu3YATR08gdkEM9911H5ZcuKS8vZzFJcmYMC1RUP5ahRzTMjGSHIGiKIhFYshreZf6V/dzicmpg9XFnJ37YhgGNE2DGlAhy7LnWADoCTDjtdOU0d8NmW0H8yI4WQCs15bOSxWcHVaNV3WpmQP68cjQhBF4+PZtiT1/PhS+7O3LJ3oWd5hO/2yj7N1KmRfhmO9aUAFPV10kEjyYyJIS1pg2ESVLL80f/WfTLeylAO4B8HwAYJbWZSnBQYBVsl1cXTrckFcP1nCa6qEL8qbIvcyFKPQCbur+LXODqG69Vsq8LcQAVhJEWDPwQ31ADAcVRCNB6IaJ0fGM+8dH8QLsCZ4avLB/+56QbBiuD9mg9mHd4+OlZnl0TqkU+WYNNisweiQZfui2bUtGDk60A0Dvko6Ry29YsS/RH9cmox5W3MuTiz10be9Max+22DmldPUTCLDMkKQl55FtVNX0w58g0bto5W37/WnXN9/OGQKsJIE0UP2agdLHv/9xHN1z1AVf0+dOx56te3D84HFccPEFOLr/KE4cPoHuvm4c2HUA6/55nQsuOSYHOZquYWRiBLFIDOFgGHk97+6Zyxt0/KDWALCR8sjBkdfyMA0ToVAIYKhRBU3LhCxkEAicEzpV2bxmljr8RIqH/jhit6UtIbcEgCSEZyJMdckbxsULe2OZV8xoT0kAFn/sWdqhDSeCG777eGLs0ITyu0882DX/ihm5S952QSoQUcoAULdsF6uv2NWfl85cXRSSYtmRriRZ+YCUn4iC21JxyHNAfKvYtO4bU+kWrgVALn4PoncBAEx9JgJ4HEwIDhRaoaG2jI4TEBtN8m6lqoGS51XXuIErs1FySs1JE0LYk8gCdhWCdpZlEdVlYEqdQqoSOqhx4kdAlZCIhyCEwOh4BnbZ3UzlcW2B9NiKvid2dYXH02iqVLmvXoHGrfWadU5xK2i16qFtcdr8kz2zd/3h4DxucxaIKMbqNy7bu/QFc08KLsj1OmqgHtZcO5NPTmlUnHNStQ89XEV1ax8KYpI2MYPM7PSqmn4nQOL9tPqOO/3Z1jffzj2rpzi1BCal6gxBFYtWLnItnzZvGn76tZ/i/IvPhxJQ0DurFwMHB2AYBjp7O7F4xeKqbha8eXePIvyks2mkcil0xDugKIp3woZH/GLLils9BRCVmMNMJgMBgVA45G67Bg5DN2AaZsFNXrpXU6H4MgdwXpzlFkZZ/v4xO/5YUsR5EUldaqVwqLCEhsdDCIGeoGy+fW732OyIajpv7nMvmpafsaJH2/7LvbGddx2MPvnXY+GBracCq16/NLXkebNzdd27VZ1YG7QOLs8HbhHszNVFIYc0KxrQmZaOMDMbLsbcy5hit3AtALYF/4IJfRxAOwk7yoz0HB6IHQRYZf4jErxKBXQooFXrCpDHPMUvD8ij1tXDupCH+oBoc6BxGZga0BHlzhuOsixOibu2bl+TzROBSUAiFkQgICOT1aDpVhn8SuNUxdKW9hzYu7jryPHSeT6t2oeNVMAmnVPc58R9XI9vO5V46Nvbz8sO5yIgYOaq3sHLb1ixN5QImu6OO6w2HHSyySkORa5uG8AWk1ManvdJuJeZkW+nfHIBCe6s6WdB4GuwA584m8G7vvnm2+nbskD+wl1GyEtxah2U6mSxLjh/AV74uhdi2pxpEEKgd0YvNt27CYf3Hsblf3e5S0QpJEOQaAY5HBzjyXEYpoHutu5CPJ5XdqzwLgQ9GZdrQczwSLrgHJqmIRAKQFGUMvyV9lHXdHCbIxAMQNO1Quw6CMUpq3xXVSWI53dLyZVtyPz+pOg4kheheucAVe5w52MSAs/tjaReNT2RUhlz12EoChtKQBZr3nDexPwrZmUf/vaO9pO7RgIP3b6tff+9R8OXXXdBsnNum1nT07e+ZFfLGl4OvdNQF70FDyZ4KJEWaiQv6ckYTD1QXDNlbuEaAKSFX9XF5nX/AYF/AwDJyKyEEhzlsppspAh5ugg9oaK+eujlXm6kHtaVYhu4l23BhWcZmDqe00IdQNSod1wUewG7evd6qHweCSKRkIp4LAhdt3ByJF2CjHKCCGMQs9qGDq+e8cTegMStwo2GTrv2YaMPKxopcnXUQy1tyI99d8eCgw+fmCWEoHBHMHfptct3zb5o2pjn4Zyke9kzOYVVQWlD9bDBCa0Lhy3UPiwlp3ArIOUn5pOldVUNeQRC3EQX3bHNn2J98+0cVP2239ADg39lm67/wxNG0KP12CQAsE4Wq6RIeO1Nry0ni/TO7MXAkQEMHBrA1euurlXkuGgIc6ZtYmxiDMQInR2dLgGiUZasp7LX3OXq2n51UkkgFICqqi7V0bZt6JpeqJ0YVAvAWYJQgqv7BndMS50KzLfMoJO70iL85xHRkbWFXL1Pdp3P165I1pvnto8ujgX0ArBW+b3KYlRhZmibETNf8olnnTr86InQo9/b2X5q/1jg1x++v3fx82al17zxvFQgqnIvxa5heBs1Gjs5dbERLApZNm25a4z0XIhpqRiEyy28RWxa9xVo1idPp4i0dy9gOf9lmKG3AVgEIRQpO3IVgvHHoMaOeY5nhWzZ0glgBMF5Fayx5uqhFyAKsDoc07p66EyEELaAZdstZQADAsR5VR1AKlWBrvQCbjHxQ1FktCfCAICRsQxsm5fBrzSmK5oaXjtj387OSDLTWKlC49qHzAPyqtXD02itt/fuo72bfrxrmZ4xAsTACUC4PZjvnJ3IVJP3mbqX64LsZJNTyp+FigrhadY+FIIkIzWdtMwcQEiONWMg8c9YPf3bRLdwf5r1zbdzEP42Xv8WmPyLIHS6XKM0CVASkwfFUCSEfDaP9q52zFs2zyPWkIu68X6GhtGJUYSDYUTDUU8XsWmZLiWutK5lABR1YgA94hFlkt0t4Wwb+VwesiJDUqQa9bLgzqVKsLzHrXdZlGUXRJB7cEy0bUqJRGnO8HaHc6ztDGXeMKtjTJXIs6cvGshzcy6Zlpuxoie/45f74o//7kB8z91HYkc2DIVX/cOS5KKr5uQaVhOrUhebXG2O+Whq1EWhhnO2EsozPRUjIxMpHlEFwAcQlK8Rm9Z/HhD/SWtuN1v9TtSvVrNl/TJw8RCAtvIyWT2GUMcmzqRc4SIRVaFRlYnTBXlVc7gbDgsKEPN6nXM6Jq/1jnekYnXvOh+wBID3Pt4x+w/b+tbKEoMkSZBlBkliKDwv/l8u/F+WGHK5ZD5vKaFyCZhiVu6s6Z0YGBqvqHflnr5UimkEEcCIIEkMiVgQoVAA6Uweec2sGRdWjezKGQd2LuoaGhJ12kxUflM0+ZzlBayKb9znxLWuDrCX1icH0qGHbt+2bGj3aC8AtM+Mjc971oyBHb/ev9jMW0ogohgXvfWCnQufO+uUA8ZQN2i2CFT13MuE+tXa3Z/FAxBrrq+q96ynHjbYV2bpCconFxO3IlWC9vcgmTfTqu8O+1Osb76dg+C35brZsKVbQfi70rKt+QB+MREvt2VjxRZt1c/rPW55XLHLh5E3cHjPYZy35ryabcTERO6UpYarFbdsPouJzAQS0QQCqndLuJyWw9jEGFRZRXtboQ5gUkui1OLodD4XAIxkRmqUt3wuD0mWIMmSK95PCShgEnPtn57XIasyQMDyuJR+w6zIMBr/vAYXoBFDKHePyp3HdAoxYggI3do7PigLIRCRyH7D7LaRVe2RnBcn1HN68TrZu8mjKeWR7+zoGNo9GgSA7gXt+mXXLR/rmNdmejJI1XxRb7s1M1mDeZBqtRCqR2auGENhypRLtpFVdguXbAsk9hpaeevhMwJAABCb1l0A4C4AsxwvsYQa2s2DbU9wkF2vNFs1HKJKyZsMIDJWBywrimOddZX3LEHT3TvaZ/9hS89FFeiTXNDngkGZQdcncnlDCbshrwSAycIPGxfMucdFwgG0JcLQNBPprAbB4Vovkc0X957at3bmgf2KzO1yCGA9mK25mFjL0ATXelYfHh2ruc1pxy/3zdrxmyeXWLotywHJWv6KRXuW//3CY0xiIjucD9z7pY3LT+0f6waAGav6Bp77rlVPqFHFroHOmhI1jb8YDdXDmuvLC/JQ616ugd0mgMgthekTC5iR7696l50AbqQ1tz/oT7G++XYOgp+4hWHz4DsB8WkAUcc9wXjMaEv9ZoR1tQRHOEtwWHweFRO5YVMNO5U1wzQwPD6MzvbOSteNqkzcdDYNXdcRDARhmiai0SiEEEhpqUKv40b7gfr7CwKG08M1CmAun4Msy2ASg67psGwLSkABMapRLvWcDilQ6NW7MqGmXj8rPFwfkip359IcvjdP4XvH5C7LMsSe0RPK+fFA9q3zOoajEuOeYFd3pqD63FAcfOiRE+FHv/d4R25ck4kRFl05K73mTcuSakTlXiJU9b5OKSzWEXjqTXVkZMNMz8TBLac3dxiMnkurbtvV7DsiNVr5yds3n7pl3ervAtQJYGVxHxjZZi8zsvMBYQhJHS8VtqlEyVPBHen0bVZ9AFHl+qVypUaCq8EaI5dvvbb7BismThTfEx7vSWV3JA4MBtv2Hg9PJ3IfVKrU8HEt59wwTZsp1aeiLR5CKq3Vti8rmqJI6OqIQlUljCWzyOX0mtBEOrQL+NXtxPZtsfqXdgwHE6rpHW9QOTaVTiDkIU4XEyE8XkuVxsFA3aomznPCMHJ4InL3Zx5bffDhgTncFqxnccepF9x86cY5l/aPECvI74GIbC2+cvYAScw4tW+8c2Igndh//7H+tunxiXh/NF/oK+zxnlSvTzQ59rf+bxQqexbcrytdB2XCbPQ5wYq/Hhx/zivZyEyT8mPLyTadpV0ygPgIQG+nNbcf9qdZ33w7B+Fv8zuWYjDzPwDWAVCLX34hApFRO9x19LgOaV+GJ8hxr6n72NGnFw5PT73HTbfn+AcAAaEbGZtUpwJo2RZ0XS+4fauUQZvbSKaSsG0biVgCtrBhWiZUVYWAgGZpLr+j535Q/c8lSCCn52qSLizTgiABXS/E+wUCgUKMmmP/OC8ogyCUW9P1BEhf3hbItqI8iVIolALz/ChPpwwuXdohT7x6RtuYysgVnyQ8NlZ3ux4TQWls+4yYufQFc9KWZtPIgWRg5GAy8OS9x6JKWLa75rQZKMyrnnOQaARqjgcVNqndr2qvdb3tCq8ZX1ZNrkayIOJFNZAARCDw6lvevvLOT35rS+q0FUDXm2+84SKQ/Z8APcvNX/K4HYhv5mposEYFrCLZGhdxg5SO2vWn516uVg//uLVtzl0bOi8uKXxu969UowQKnslmDTniUvdAmD2jA8cHk2XOKCt6EkNbPIxIWEU6rSOT02qUwVhAT1886+CO1L0PxJ74w8FltmHLTJGsRc+Zuf/it12wVw5IhYbVHkqVp1pXchE3UA9rVbU6KiAE2abNNv5497w9/3twMbcFC0Rk/cJXL951/svmD3i5bEtK3/CT49G/fm3TytRQLs4IYsFzZx28/PoL95Yl2qoTRg32tdxit15ySjP1sIF7uZF6SACEpcelfHIJcStR9Q38JYT8PrroG8f8KdY3385B8Nu0TgHoZkB8FEDZPSaYrPFg+3EhqzkAeCxptt910prZTPU7q+7hohIXQyp70pAjTheqYRoYT42js73T3Y/XKixXFRXRUCEmUDd0aLqGSCQCAYGUniq0bmug+jXaX0ECw6nhGndzNpMFtznkgAxZkWtcxDa3YWkWSCKQXCk8vbI9MPGmWdFTTeGDSpReJwzMw7jHZpqpi424Y/RgUn3w29u7Rp5MFtzCC9u1y65bPtoxt804HXXRzTQNVMApUBeZpatSbqwbgpdSJn9Pa+54aaPvi9zqF4vW3roBwOVi8/qXQ4gvAcVuIdxql/Jjz2eGOmgHo5sgB8fLpNKgLRlj7nIxHKib7lHL8M5EiAaXh0dyiuCVVnDePw1EVfIp96gDWF0GpmCRcBAdbQV374mhZCEHxFE6Rpa5ceG0od0Xzz32pERc4I3nDS54zqzjj31/5/kD20/O2nP34aXHdwxPu/Sa87fOWt03erq1D+sW4y7Aa92agCDg6Oahjke/8/iFmeFcDARMX9F7/IobVu2MtAeMehnapefdC9rSf/+F5z3w2Pd3Ltzz5yML9917dP6pfeOdV75n9db22YlcYVcaJad4EL3X+52t2oeCS0xLzSEzO7eqpt9BCHo3rb3t9/4U65tv5yj8bbh+LYBvAWK5czEPRE/agfipQuXV0j28UHqlboIEiTNOpGg5k1jUljrxjPfTc0ilU4hGogiogYrq5jXeq/YftdDyzvmvKgGDQJBUCbIi1ySJWIYFy7IgKVJxLnK4q4UNIuIN48Ed93TPunh1RQISDbfr3EILo9rnJvRZq/uzowcmgkII5Ebycjapsw7vNhH1P4tnj4PqBNh6xCoKibQCLRwvKo4VxOWAjnDHsJQd6S2ue4nYuP61tPa2n5+xAujavSeuVpFvuxGgTwJIuPZcCR60g4nNkOS8Fx0zh4xVu6419dB7PWoVQo/klLs2ROf96rGOS5wqn3cMYClBJJ/JanLUqfIREebM6MSxwUISSECV0dkeBSPC+EQWhmm7kkIYIzG7I3n0qsWHtsdCmu5S3IpK1b57j/Zv/snuFfmkHgEBMy7sPXLpdRc8HuuO6PUkbq/WeuXtTlI91FO68uh3dyw5+MiJeUIICrWHspdec/62OZdMG3H8OPNWHh3qYWnN4UdOdD3y7e0r8mkjJKmSteLVC3dd+OpFR884OcXNs94q4Gmoh8zMdVN+YllVTT8TwDeh5D9MF/4w60+xvvl2Tqp+YQD/D8D74AhrEpKSFeH2o5wpmij2+y55SR4dNzt+O2TMqlHAMHWxfa3GFEaRyg7pLOIEOMMykEwl0dHWASEEMrkMcvkc4rE4JNmdbavrOnRdRzgaLow1MuCCN1T9GiqAEDiVPlWbkZzXwGQGJjEXrJq6Cc45JFUqg6QTEFe1B5JvnZ0Y8ipzQnX0m7pjPZ40HduiujgxmFHu//qWnlP7x0MAMGt1b+aKG1cNq7GqWMB66iK1qFpOUexivW1KWrKd6dl48em9tOb2500pAJYP/GPv7IRkfhzATW41kSyhhHbycNvjXBCvOSisEQC2AIhUByydAFhH5v31Y5F5v3q449J6SR/VLmFVyWWyuhp1ZfkSMGdmFwaGxhGPhhCPBpFK55HO6qge1xnRx5696MjWud3jo55764ARQ7OkjT/YuWT/X48t5haX5IBkLvu7ebtW/cPSJ5lUKfznnfEL73WOg14PDvfde6Rv03/vWqGljRAx4vOvmHng0rdfsEcJSnYr7uV6cJhP6coDX998wfFtp2YAQN+yrsHnvGf1jkh70PDcX4+7welmL7fsXrbMsKynlsLSu6vG/BVEN7USSOubb749TfC3+R3Pg2C3A5jv+PJyHoid4KHYqXKNfkcpDgLw6KjR8ZuTxuwzAjtMDSjGkM4MahR1qmamZSKZTqI93o6J9AQsYSEeidckXBiWgYnkBGRFLieBpI20twu4lc9VvIGeTJ+scfHqeR2SLIEkKquOpmaCGIEprG7pmNVtweTb5rYNesEaNaq8KjyYj3nf0Kvv9dSAcmq2K4Anfn8gsfmnu7ss3WbBuGpfcu0FJ+c9a2ZWNBCp3ILU1LqiPWGx+Jqm24UtKamTM4oRlQJCWkBrv3lwygGwfEA33rgYZP8rgKvdR0DK2mp0C1cjB9z06oC1mpg9DyWvGpuosXrYCBDv3xnuv+OPiedJjJFnGZiq5+GAns7oSsyV3YsCAAJAXjMwPpErp92XxoVUO7969vDOSxccP1hb+7BRaRtg9FAq+sgd21cOHxjvB4BYbyR58TXnb5m1qm/UG5ocInO1QkjeJ1wIQamhbPChO7ZfOPjEyHQAaJseG7t8/YVbehZ1piejHjYDxD1/OjRt4492rTA1S1Ejsn7x2y7YtvA5s0/WUw/rAuAk1UM37Farh4Iol5rHzMzCKnfvEATdPBVtdnzzzbezBH5br2mDrX4ewHXOeUxIakqE249wJhvVN4OyCgjgkTGj4zdD+pxmqt+UKYANMoljSGVO6BR1um9Nq1D8uVA/VinH+znVNd3QkclmoMiFlnDhcEUBPG0ALGY7DKWGamBO13QwiYEkqsT7ycV4P4+ewaXHq9uDyWvmtp+oATBqBiFVYEcNkjxOU12cGMwoD35ja++pfWNhAJi5qi99+Y0rT4USqj2V6uIZA+Mk1UU5O9JLth4uLn4Trbn9v88aAFZ+jV3/Igj6AoDzXMuZPMyD8Q1cCZ3yTPaoEXCYNxxWfXLna1tWDwE8sjvY99172i43TDnUrBZgJGykM5oSI7jLu0zrbcP4RA6GabnAjxH4or7xJ190wbEd0YBl1gPdVmof7r3n8LRNP929SpswIiBg+vKeI89av2JbrDOsw1N1q6eqVQGiALb/et+c7b/cu9zUbZUpkrXk+bP2XPLWC/bVdGNxHPTTdS8TARMDmdBfvrRx9diRiS4QMHtN/+Erblq1Uw3LdqvJKQ0/52QAUc91y1rqPAjbWdPPBsQ3APoYrbl9wp9iffPtXFX9rn8ZBH0TwIzyMpAtgvHjPBAdRgvqz6OjeuevSwD4NKh+7jqAbgDk4DBNE0PDQ+ho76ipAcgFRy6fg6ZpiEQj4DaHbuhuAISYlOpXDwCdCqChG2CMweY2bMsuuHwJTfsXr24Pjb99XkcFABsLdN6wRpMY24q6yEFP/OHJti0/2dNtGTYLxFT70msvGJp3+YzMlKqLdamrdrtTqS5Keqqd6en24vL/R2tu+8RZB8DCAbiFYdPgm0HicwB63SCoHrPD8cdIUlPwyuqlOtnAU6IeukllKMlCX/11x+UDo4H+gvIneUJgPGKmMpoSry72zIq9gSuqIKGvLT/0ovOPbZ7RmZlwKZZekNdi9rKVs6RHfvj4sifvO7qU24IpAclY8qJ5T6x5w5L9TGKildqHThs7mIw+cOu21aNHJnoAoHtB++DlN63c2j49nqsPVXWAy3HQG8FheT0HNv5k14LHf/vkecIWLNIdTl9x46pN08/vmqinHp5p7UPn5yDBAyyfXEqmNqNq6BYIdmMx0ck333w7F8Fvw019YOZXAXqta7kcHLOCbUeJSWazWbJ0P3hk1Oj89aA296lQ/ZqNi4oJtwIIAdM0kcqkkEgk3OoaF5jITICDIxKOgEAwTAO6riMULvQ2zugFhjndzwUAgxODNTBnaAY4L+AIU4oiTVX/4er4v4ICGBq/bn7ngFuNnQQETjEwZkdz8v3f2No/uHMkCgAzVvamL79x5VA4EbCnUl2s2V+axNgzVBeZno1JWrKnuJEf0Zrb3vyUAGD5w21/SwRG6J9AuBlA0IHlHHJgnx1IbHElitQEQ7IaOKz+0DWQ1wAQvdRD2yb63t1tyx/aFVsuSUReEJhI2KlMXo57FXkudQYJB6zcsxYMb7t88fDB001OaVbaZuRAMvbwt7avHj000QcAib7I2KXXXrBp+sq+sVbcy9yw2cYf7V6058+Hzi+UdlG081+5YMeFr1x0ZFLqYR04nAwgntw7Gr//61vXpE9lE8SIL75q9r7L3n7BnppyMQ7Zv2El9abJKWAsn5zLjOxiQDgz35OAuAUHk1+j1/3M9qdY33w7R+Fv07qrAXwDQKX/NjGTB+OHuRoZE+Wqs82lIiFAj4zpnf8zmJ/XaqmWswmKEaTSg3nEXIkVpolUNoW2eFulNqBlIZVJQZbkstrHBYdhGjAMA6FQAQCzRra5AojWANAJc6ZW4GtSa12+9VrZccHxvN7YqdfNaj/ZCIDqni6axNgWYPHJvx6LP/q9x/uNnCmpUdW++C3LhhY8d3ZqStXFpyp2scGESHomLuWTvcVlP6TVt7/1KQVAx6+2mSDroyC8w30YyBRK6HEeat/OCbwR2TqhilWNaFU9bORefnhPqP+//9J+hW7LoepagF3tfCKVVxJe4CdLwrpwVnLXS1cM7FRlYZ9JckqrnVP23nNk+pYf71qjZYwwEYlZq/oOXHbDhduDMdWsVg9Lrzu6YbDr0e8/vjY7ko+DgBnLew5fceOqrcF21aynHnq5l6sKedcHrhbUQ1OzpUe+9/jSA389tlAIQZ1z4sNXvveiTfH+iFb9M+eMah9aWhvTJi4k22qrWvUzWPzddMm3TvrTq2++naPg99g75kKi2wB6gWu5Ej5lBxNHwZjlnCCpxVntgeF892+GtHlTDnaY/PaiIpUe0ETMCU6maSKdTSMej5frAmayGQSDQSiq4lbmjAIABsPBQscOM9c0BrCZAnhi4kQNzNncdpVAawR9AgIqgb9iWvuJq/qiY83UsmatL1qHH++x2bG8/MA3t007seNUDAD6z+9KP+eGlSdC3WF7KtVFT7A7C7GLzdRFpmUTTCsCIMS3ac0d73haALC881vWr4EQ/wGB57iWE2URjG2x1Og+1FT1Y3UAEE2gqrl6WA2Ig2Ny5Ot3dT/75ITaW3IJyxJDT4eYSGlKwtm3l4gwszN//JVrTmzoa8tnpiI5ZTKAaGQNedOPdi/dd+/R8wQXTA0r2gWvWLBt+SsXHSoVQWAA8ildeeRb25cffmxooRCCwm3BzNo3n79xwbNnnKyronqoh1572zQmr8XklAMPHe955DuPrzUyRlAOSObKq5dsv+Bl84/WUw9bg0OABBSmjS8hIz+v6jrfByHeSWvvuNufXn3z7RwFvzuvljC//d0Q+BSASqwuSZoVajsIJThRO0GKYpOL5tPagyNa9/8M5uY/Xe3fnOpiRKTSJzQRc2UBFwEwEU8gl88hr+URiUQgSVKN6pZOp2HbNmLxWKGHsFmoWDWZ9m/VZWAGJwYbxvVVq3/Vy2eElOw1czuOTQ+pOlpUy+pO8q0AYwO17Mm/Hk089r2d04ycKSkhxV559eKT5790/thUq4unB4tnR12UtFQXaenO4qh/pzW3ffhpBcDyB9h4/fNB9EUA57snc3nYVuOP8UBosBE0VcNh/fW1UNXMvWxzsB/c3XHhw3tiF5Zcwn3dIpnKqW0l8EuE7YkXLj+1YfXc5AnX1pplL59h7UOvTKBTu0baHvrW9ouSA5luAGifGTt18XUXbupf2pHc/5ej0zf9aNdaLWOEiRGf/6wZey59x/Kdcki2G8UetpKc4v1ZGquHjQAxM6IF/vqVTatP7h2bBgB9y7qOP/c9q7aG20NGjfJY2m6D5BSmZ2cxI3U+BORRJG8AAIAASURBVHc2ys5B4PNoC/w7Lfyq7k+xvvl2jsLfhuvPA2PfAsQlTlGFy+FBHmo7CnKXFqtWf1qZ1B4c0bp/dSK7YMrA7gwyiaM8nT6u2TEnUJlWwQXMqFBzLxwJg0Au0OK8kAxiWRYYY2UF0LBy3BJgp/u5BAROJE80zOytB4MSgV/VExl6+fT2YUYQrZyMEtQ0U29LWdw1w+qoZbmC6jf9xI5TcQDoO68rfcUNKwdiPWGznro4GVf00wOMramLUmZkJtl6pEiUr6fVt/30nABAoNiuh+haCPH/UJ0oIikDXE08AkUdc07ynpDnASJToR7+5fHIzJ8/2P5si0uB6X0smcopbQFFGGsXpHa8bNWpJxTG+aSSUxyrp7z2IQe2/s/e+Tt+u3+VlbMCxIgn+qOjyYF0NwAkpsdGLr3+wg39SzqSzdzLpTecTGu9GkA8A/Vwx6/3zd7y832rbMOWgzE1d+k7lm+ce8mM4Rp4rLpyy+tMIy7ryQthmz1VW78LEr2bVt562J9effPtHAW/J65WobX/CwQ+jFL/XgCCyVkRbn+SS2oGrcxi5XtP/ent/tF89/8MZBc+Fe3fmmUSR0QqPZDnbgXQMHFq7BTisThCoVBt5w3LQjaXhaRIkCDBtEwEQoXuIK/ux76t43rnnqzoPJ2sZQAYSA40dfFWL+8OSPlr5ncenhtW8wKtqWousKNWxlZtt84L9t93tG3DD3ZO17OmrIRke9Vrlwye99L5Y1OtLjYCxqcPFrkkTwwtLNcBZPZcWvXtI+cMAFa+8DdFkbM+CMKHAIQcGigXLLCXhxMby4ki3APkWAM4bAiIzdXDY6NK5Ju/73qeGgwpPQlj9HWXntzYFTPyp+Nenmxyiic2NXEvZ8a1wCPf2r7i2OaTC4UQJCnMPO8l87et/oel+5jExNlKTqmBvGaZ2E0AcezYROTeL226OHk83QUC5l48bf+z37lqh6wW+yN7uZeFkJiWXExGbgngquk3AEHva9QKxzfffDsH4G/TuosBfAtOzxARF0rkqB2OHxeuWhjUVP1pOLERcP+pXM+vTlQB4FOo+rkAkKdSxzU77gQqy7KQTCXR1tZWA1q6oUPTNAQCAUiyBNMwYVgGAsECAL51JntiVpBye9JW/H9HrFlJk0KT6VACAMeTx1uCPi44QEJc0R05+dqZ7ScUIuFVd7Hp+W8uANYqhh6D8+Oa/MBt22cc3zrUBgC9SzvSV9y4+li8SvU7U3WxIUBNgbpILR4vr/Esn+xlRrazJHbTmtuvaPLWT/OX/9F3zIDEPgbCdXC08gHIFGpoOw+0bYPErBJwMI8T4w1VzQGxkXqoWSQdGw3E5/fmk56Qd5aTU5oBopd6OLD1ZOfuPx9esPoNy3Z2zoxlvfbVE/Ia3FNr158eIDZVD4vHy7IE2/iDxxfv/tPh8wUXLNYVnrjippWP9Z/Xnax2L5ORnca01EoSPOzYVKGFW0j+CJ33jYw/vfrm2zkKfoVqEZ8C4d3Oe79gSsoOt++DpOQcs55niSlP43VUwOJr7h/O9/xyIL3obKl+k8kkjoiJ1PE8jzvj+izLQiabQSwWcwFYXsvDNE2EQqFyQoZpmrBMC2pQhYDA22aynbNDLCuEIEuAHhrlvQ8l7em2YFIr+wsAx8eP1433c6qCalLH0gdPmC98wbzDc581faKeWtYMyOsCWBP4cY49+NBA4tHv7pippQ1FCcr2itcuPnH+S+ePFjM3p0xdrAtr54C6yEwtyvKjs8rfFSFeS2vv+MU5DYDlD7/5Hash2OcBXOn+0rKMUKKbrUB0T0HS9HD18mrFrQEcVg16Kt3LkwXEqap9+FQkpzSDw5rXVrVxq/4sx7ed6njo1q2X5Ma1GJOZveT5s5+4+G3n7wEjMG5HWG58FdlGf9Xd4X4IcRNddMcT/vTqm2/nMPxtXP8CkLgNwFzHzcjmgeghEYoPCOE5mxbvN9R0Mm+k5Pz1VLbnlwOZxZMGO0w9KIZFKnU8Z8WrXbyZXKbc3k1wgWw+CwhADagAq2TjWpYFwzDKAHjtLOXx2SHKOo/DmCXUPw/zmXuzoquVQtDHxo81LPECIXC+xMY7frwnkD2SDgNA//ldyUuvW360bXpMr1bWmqlfk4HF6u3qaUN69LuPTz/w0PEuAOhZ3JF+9k2rjsT7IsZUqot1xzaFxadAXRQgpk90MyPTXfmhRH+hNbdd1cLhPNduDNc/H0T/CeAC1/JCR5GHuRI6wTx/9BUVQlZ7lCcFiKehHtZA3hQmp0xl7cMayDvD5BTv9acHiF5waGq29NCtWy489OjgIgDompM4edW7lw4nYnwJwJ01/UZB9GGsuu0Ov4Wbb76dw+C348Z26PYXQLjGOQcJWR2zQx37wGStwWxKLc9arnsPVQNg7y8G0ounvPjzaWQSR0Rq4ljOSjgTKyzLQi6XQyQagWVbyGYL8X6qopaVv7IqmM2DQFBChfIwb5spPz4vImVK8OGsjbM3IxJ/GuFzUhYLNVIAj40f83b9CoGQDPP1M9sPre4IJyEEdt51oGfbL/bONDVLkmTGl75w7uCqNy4blBXG64IdawxLzeCntN3DjwwkHvnu47O1CV2RFMbPe+n8wdWvXzpERFOqLjYEu6dbXbTMoJwfn0HcDDlWHYLFL21W5ozO2ZvEvbfIiA++HUJ8EkCfa52kHOeB+ENQAqM14FSnWTJ3ZI82VA89DrbL9dwKIJ6heui9/uy6l6c8OeU01MNGySl77j40Y/OPdl1i5C0lGJXx7LfOwZwVbYVDRfgRLOX9dPHXR/3p1TffzmH4K7QL/Z7rnk7MFMHYfluNNq/JSQ6wazQzVt7Rc467bzjX+4vjE0uervZvLgWQpyaO5cxETZJHPotAIIB8Pg9VVSErco0al8/nwW0OogoAXjs7sGNemGXqZUYbXLD7RjF9ywSmCWLMCwCPjh/1zPZdlgiOvnVux6G4zCxn3cXMaE559Ls7Zx3dNNgFAUQ6Q9pFbznvyNxLpycnW6Tbc0jVadYzhvTIt3fMPPjQQDcAdM5JZK5456rDHbPi2lSqi02v56dTXRSCmJ7qYXqm1zVK4H4o7I204taBVr5O5/YNY/tbIjDD7wLERwFEHXvOhRTYzYPtGyBJucZQ5Yaus6oeOgZNPjmlNUA8XfWw5j3PyL08RbUPW1APGewgyydXaqOZuX/9wWEc3VEoATZnZfvYqlf0vrb7lf99rz+1+ubbOX4v33j920F0h/NrLpTASTvUto+YbIhGYEceyt4ZwOK9pzK9vzg+sfTpav/mBsDkxLGcnXCClmVbSKVSkCSpEO9XcvmWijJbNvJaHpIsgUCwLAtKsACA180ObJ8blTKeaqjjQJ4yRPBPIzT3uMbaawBw7Kgr/i/EyHzNjMTBS7sjY04FrLry9tEtQ/GN3398zsRQLgwAfcu6xp91/YrD8f6CO7Y1+KkCsKrXHHlsMPHwd7bPzSd1VZIZP++l806sfv2ywbLqN0XqYivA+LSpi7YVlHJjs4ibztj3PEAfxer+LxHdwlv9ijwzbh7bbpgOk3/cM1FECW3lkbYtALMq0FBfVfOEQ0+oaqQe1gLiU5WcMnn38tOfnFIX8homp3Amm5n5yKdXEYRS+hbt+utw/uGfHpW4LVQAh0H0lvWbNz/oT7G++XaO3r83rbsRwNfLcw5JOg/Fd3M1MuL4wnvPR8xb/Wg4oAkw3nsq0/fzRgCIKS794vW4CIshnpw4mjMTTlerZVvIZrIIR8KueD8ODsu0oOs6FFUBkxgs04JlWZADBYXw+rnhbXMjLFMNNPUm+51pdNw3xublOAuUAPDI2JEy/M2LKMm3ze18sisgGbVqWe12ucVp+//s69v5mydnmrotSQrji18w58Tq1y85oQRk3gp2eHV10XOG9MgdO2YdfGSgBwLomJ3IXPHOVQc7ZsW0qVQXW1IBny51kQCWT/UwM9MP7qx4QY8C4lpac/ueyXwv6Rl3I9myfhk4/zxAL3F/EpaxA+GNPBDfhapaIMX1DaEJzMPV6wGIZ+Re9pNTmgJi6WXM0jtIG78Ytt1VdSLvgmXf+K2btsQ48F8AVgGwiOgLAvjY+s2bTX+69c23c+ievXn930GI35W+3kKSJ3ike6sgZtYKdlVgxxqIey0Co9d27zmZ6vvF8YllT5fq5xwXtieSR/JGmzPmzrZs5PN5hCKhSixesQSMbdpQAkoZDG3ThmVbkFUZXHCsmxfeOi8iZzwmqrqZ0aZg7P4xMWNbWp7BBdiR0SOQidsvmRY//MK++FB9+HHWenZvN3Mqpz76/cdnH9001A0Aka6wdtFbzj8095L+ZCsqoJMAC6rfjnn5pBZgEvHzX7bg+OrXLxss1smehGu1sbrYFBifRnWRcSvA8mOzYZlRx0gdoE/g4Nh/nE4/e3rG3lQKiSJfALDctZyxMVtNPERq+LDXSfNUCInVX+ehVLFJqIeu7T5FySl1FbnTUg893vNsJqdwW1X01IUw80uqyj7sB/AuWnP7n0oLbnnuc+X+VOqjAD4KQCIhNnAh3nzDtm37/WnXN9/Ogfv01mvaYKt7AfQU7s9K0o50b3H28K0La839ZLUkUy8ksAoW/3Iq1fez4xPnTaXq19I41I4L8onk0Zze5oy5sy0buXyuDICCF0rACAioqgpBFbXQtmxYlgVJLbSJu35OZOuCqJyuq6o1gJlhDaH/HWULjo4PStfOa987LahoZ1p38ejmocSG7z8+L3Wy6BZe2jX+rBtWHkz0hfXGahnIylts4492zdh79+HpQgi0z4pnnn3Tyic757bl3WqZoFazg1rtGX02YhdPS10kQNLSPUxPT4dwqX6bwfnbzqTiBT2jby6NEkWYfJiH2x4UsjrmPBvCS+VjaAyAzQDxqVAPPd74bLiXG8XkeYPw1LmXmZ6eL+npNYAIOl6ag8CnER7/PJ33M8PrOrh15cpLieiHAOYDyBPRv6zbvPnL/vTrm29P8z1607r/B+BjxfuoZkV7HgGTjEYTklex9zOFxWoV8J5T6f6fHUued9pgh6kDxRCfSB7JFgCwlOBhWza0vIZgJFhWAyVFgizLKEYCVuIFLQvc4pBUCRwc6+dEtyyIKemG0NyUgBgg+JTVXbQtQTt+ta//8d88OdvSLUlSJXvxVbNOXPSm848xhQkvIjm27VT84du3LcyO5IOMkVh01ZwTl1xzwVEmk6hVy1prAViBxdbwp1VYPGvqom0GpNz4XLLNmGOpBYgvIJT8eL058f8EAJYPZiVR5CMAYq7jLAf28lDbg0KSC3WRuHAfeHdqby0gNlMPq+rsta4e1kLXU5WcUl8JRQN4PDP3ciP1kNlGnPLJS2Gb06ouz7tg2++hi791qNk18JWLL44HTPPzANYVF/3BkqS3v3PjxiF/GvbNt6fhvnzn1RLmtZ8C0AEAPJTYxtXIUKMZj8oTevNED3JM6JOCRQB/Hk71//zo+Pmtlmo5YwUQjQHwcFZrq07y0DQNkirB0A0oAQWMsZqyLLZlwzItMIWVXcI3zI9tXhBR0w3OTOvz/hTVXSxZeiinPvaDx+ce3TTUAwDxvmj2kmsvODDjwp5U6TWmxtnGHzw+a+89R2YIIRDvi2affeOK/T1LOrON1bIWwG6SPaOfTnWRGZkelk/NBIQj5wHbwehttOq27VPxHaW/qRvOlrdPgy1/wjtRJLidB9s2CCaVs83IS551AmIVdLWiHtZCVevu5dNOTmkCiOducoqQWS51AZnZ5e7zhRMQ9C+09rYfTPYauG316qvB+a0g6gBwioDr1m3Zcpc/Hfvm21N9P15/Kbh4uHBvkPJ2ou8+IZrPRrUxew3ArkVYrFYXM5Yt/+zI+PwN47lZRBJNJmljqkExyJPjRzJ6e7UCmM1kwWRWU/i5BICGYUBYAlJAcqmCN82Pb1oQrQOAky2jM0V1F6vt4IPHOzf86In5uTEtCAJmr+k/eenbLzg0djwdevi2bYsyI/kQYyQWPm/2wCVvO/+IpDBRT12sojVqhXZagsWnSV1kwlJZbnweLCPhVv3w7wiNf+pMVb+/WQAsH9jN71gKIX0OEC9zf1qWEWrkUSsQewLk9TOIOcjc+wLzBsTTVQ9xbiSnNADEs1b70MzOYvnUpSR4tOoi/wY066N0+XfSp3v+v7527UzZtr+PQkcZAeCOkGX941t37Mj607Jvvj1F9+FN698NiK8AgFCCR3mk83HB64Ad81D2moEdNRrbmrp4JGtEfnxkfOmxvNX5VLZ/cwGgSI4fTmvtLmXPtpHL5BCKhlzxfiVANDUTQohy3J9TGXzngraNngA42VI65DX29Oouepml29Lm/35i5u4/H57JbcFCbUFNm9ACQoDivZHsFTeu2tu7tCPTqrpYmoOnsmf0U60uMj3bw7SJ2VWq3xMg/jZa/a3NU/0dpb/pG1AhUeTzAFa4ljNpjCuRR0Qwtq+uPOtZf8cBiM3gsIqehKdLtgkgnnZySuHZU5ac4hjUNDnFNqNyPnkJWcbcqkvxAQi6idbeunNKzj1Ad6xe/R4hxGcBBADsBtGb12/evMWfmn3z7am4/677EAifBQCuRPaLcPteT1hrUMVlyoCxibr4wHCm7zcnJpZpnNRmSRtT7R4O2snxw5kCAJbi+mzbhqEZUEOqq/Az5xymZoIkAslUcQcX/8/F/2/vvOPjqK72/5yZ3VWzJcsN2xhTbEowLtLaGFMNpJBGCsHJmxDTbMk2gSQkhDQSEX7JCyEhbyjGkg2EkuQNTkjyJqEXU42xd1duVGOKcS/qZXdn7vn9MbP27GirtJJW0vnqsx/tzM7cnbnTnn3uPecqLJ0yYt2JwwqaU9VxwojrnojFHriLbz37wZi1928+weg0PJpGfPy5kz6ac+kp73sKPKo77mIux4zuK3eRlPJqHQcnkxEuj3u8A3eirOAHdPwd4d64RmnQ34S4RkNg50UAbgVwdPxB9n5oFg5/gb2Fe+NEHjjpaZZKHMYd/MHSvJzAPeziEGbSvMzQtHDzydTZNhuxnH4WBwH+BfxH3pFp8spsqJsxYyrr+h8BzLAdxl+WT5580/xV2YfMC4KQjQNY9UMA/20JwKJ3uXjk612EWpKfrylFndY7YrE5angf+aj1+FBT5ySAqDddvzgBqBob3mvtKI+LArYFYGx0D2aGEbHy/WleDaRRnOhzuodXTS5/7cRSX3PCX+8JxQ8yED89y7uYaHnTULT+gc3HvP7Ee0czg4YfUdJ2ZtXMN8efMqalJ+5iXGqaHPVd7E130XL9mo8Fxw1t+iZIXU7+la/25jVKQ+hmVAzQ1QD/GEBp3LHSfe9w8YjnleZtdiZsTHZ1HG7n7xv30Pl5d5uXuxWckqPch1q0Yzw6ms4iZZa7fk89BMa1NKtuf28e+/vmzSuMtrTUMPN19kausZNHvyuPaUHoLQew+isgXgUA7PHtMUvGriXXfTKThxMnGDIy7bI9cBffaY+U/vXDpql7wqq8VwNE7D6FPrOx4YM2SwDGxJwy1SEBqFjBiBhQprKCPQhxUcBO8aegcM2UUWtPGF7QnG1kdG/mXXQvsOetg8NevDt4cvPO1mFExJPPOHLH6dUz3vX4PCqX7mKGLlG/uIukTK/W1jCFzPCouG9grICv41qa8WCvd1miIXdTWl81GlZagqUAnIrbYG9hUBWNWMuaJ5xUABLi+wkmEIepKvZwgsseCMQs3MOkArEP3EPNNIq0cNNcMsInuBbZAI2WUGXtmr489nUVFR9noj8AOBJAM4DrqoPBOnlUC0JvCMAlJ4LMN+1fgmFj2LgniOwUHpS+3x7FPxUzMlRy5S4qAKv3tE18ek/nx8IMX0ph18NI4gLVcPC9lo6RcWPvmgqRcAR6gQ4jbIBh9fdLJvqc637nhNFrjh/u7AOYWWR0uu5tXcV19u6iqZiCf3590uZH3z2OTdaKyws7zlw0/Y2J/nGNuXQXM3It+9Fd1MLtY7TOxsnguNawrQAup1l1fTaqFQ3xm9NNAC6OrxHqYE/ROqOwNMCkmYlFlZbYIczQPUxW8Rm5h0nO5ayCU5w3ul4JTmFCR8uJerTldHBcTr82gG7qbtbynLiBM2eOiOr6Mmb+L3vWKr2gYPHCNWsOyiNbEHJ4j7W633wEYDwAmEUjX2Zf8T6iFAIs0S01aaRvCmGXI3ex2VDe/9vRekJ9c+QYgka5Gv4tXgA2HnyvpX2kU8wpUyEatgI9oAOaV+sSBexu+o2t/+0Tx6w5aXhhc6YCoC/yLgIa9mxtGPbSssDUpp2tw0HAsadO2HHm4oq3fSVeM5fuYlZisa/dRTa9envj8WR0jo77fQO+E6Af0qy69r68RmnI36SC1XPB/BswTo/7QNcOmt7hL7Fv2FuJzgmlmLSEJ6uW3CFM4x5auTcHQvNyityH0fAYvbPxbChjnGvn/w2lL6VTl23Ph+Ne6/dfDOY6ACMAbAfRpdWBwHPy2BaEHN5f1y/6LUDXAgDrvn3m8DEvkfueluKpT5Ru2QQPs15wF99ujZT9c1fntL1hVZ6L4d9cQSAH3m1pGxWXB9A0YUQMaB77uZBM9Lmagn0aGT/42BEvTyz2tmcUGZ2tGEf2eRdNkyn45y1Hb35s2+SY6zd34fQtR88a35Ctu5jTpuicuItaJleB9ZyMto3SOppPACuf48P3QepK8q98tj+uT5JblJ2VO1D1FQA3Azgu/qTy7FRFpc8pb+EO54nURQCmE4jp3MMMBGJPg1MyEojdDU5h9untDXNgdE53beJWEF1N/trH8+243z1z5jGkaQ8QcJZ1X+M7wi0tP7hm69awXBWCkIN7q9XSsgmAFwC4sLTeLCzdRgnuP8ke6JShWEydFqbn7iIDWL2v46hn94WnRtgVLZzl8G/OaZ9qPPBec9sop5iL/QcQ38SbwgEcV+RpuHLy6A0Ti33thMzS6CQVYDnKu7jnrQPDX1xef0rTztZSEHDMnAkfnVFd8VZBsdfMpbvYV30Xu+UumqZP72g4nozwWJfrV4si73U0dVlrf12fIgCdR2TLxT50jFgCUI3tDB06VPD63jQLRjzPHm+j0x3TEl4rLoGYI/cwdmPry+CU5ALxsHuoRdqO1SPN86Dicvp1gnELWiM307l/6MzXY/7wxRfrB7du/T4R/QKAD0RbWKlvLA6FNsgVIQi5cAGrfgPge/Z9jJVv+CYuLH0npbPncIC6IxZ7011sCquC/+zrPGFjk3msBo16GiBSYDYeeLe5dVSqfn2p5mtgdc4Rw9/+8sSybbpm9bHMeRqdtAI7/uGhTKb1f9py7OuPbZuiTKUVjyjsmHvF9M1Hzxl/MJfuYjoV01vuYlcRmNhd1CLto7WOhpPA7HT9PgTTQppd+1R/X5siABMd11euHAmf9gOAvgMrh1ysukzWvZvMorIXoBe0K2bSktTgIXGYC4HYy+7hIWGZZXAKmZERWlvjuaSik1yfPAvwVTSr7s2BcszrZs6czbr+EJhPANDJzDW7Q6Fba6z+4IIgdPt++t0ieNueAWHuoXma54AqKt8AT8FBpHmgU6Ifswl+PCdcthfdxXdajRH/3hOZvj/C5dm6fq4+gPvfbW4dnapfXzL3b5RPb7n0uPLQ8cOKm5OKql7Iu5hKLB74sKn4hTuD0xs+aC4HAcecOmH7GVUz3ioY5jVy6S72Vd/FbrmLZHr0jsYTKNI53rXSvXbmi6Z8uDZFAKa6cQWvPBqs3wTGJfF1RZ3sLV4TLSgNaDoZSHKHyUggphOHrmVUyojfvglOIbBHa2+cRZGO2aDcDOGWD9w2d25RSWfnzSC62q6Kp5VpXrZkw4YdcjUIQg/upWuvGgU9+g8AZ8bN9xR8oApHbGRND4OSK7Wkzh6lfqj1truoFOjlBmPi6v3GtCiTr3sOYMP+rbYATNSvL9F8QPFpo4a9+7Wjy9/yaaRSump9lXeRNdT/461JG/7+9sfMiKn7hvnCcy89ZdOUcybtzfmoLn3Qd7G77qIWaR9FHY0nE6sC17NxEc2ufTSfrksRgJncvNYtPhXEvwH4rLj5pDUrX8kLXFy6KZFPpMDJWlWhmJKKw6wEYq8HpxwWiASAIq3H6eGWeVDKPU7hMhgFN9BpdzQP9ONdV1n5KQbugxW92MjMSxeHQn+WK0EQenAftbrY3ADQDwD4HE/zKBcM22wWlL0LJB4tmJL8KE0nFpHG/cmVu3gwyoX/2h2Zuq2dJ1G2AlA17t/a1DI6kyAPZsZwXWv/+rEjgjNGFB1EGrXWV3kXGz5sKn5hWWj6gfebRgHAhFNG7zr7Gv+m4hGF0Vy6i84v74sxo7MSjMwevfPgCRTtPNK10IPw6t+m6Xc35Ns1KQIwmxtYoPrzYL4NwJT4Hz76LlVQ+gz7ij501qxiotQxQslOyO66h4BSlDSiN6FAzLR52YwM93Q0n0lG+OT4XcB66LSEKmvXD6Zjfff06WM1j2clgM/bs1b5lKq6vL6+Ua4EQejJD+olx4HMm+FOwaV5Gs2i0qDyFO5P9FDXkvxoTfdgSy5+cu8uvt7Ko5/Ya8xsNqk0rQC0I4m9qmH/u7YATBXtC8UYuXEvJq/ZE512/tFv+r968rZ0QajdiYzOSiwqpg3/eHtS/d/fOdmMmJ6CEk949jdP2XjCucfsSSosU+iq/u67GBOLGZXrFIBGxyi9o2kqsXKmPdsNpsU0u/af+XotigDM9ua1vsoLosvBfBOAsXEf6t73TF/ZU1xQsM9xl6BkNZ9KIKZyD628AMkv0p64hwlutJoebppJ4fYzXR1ZGwC+sbeGcMsXlldULCCiZQBKALyvAQsWBYMvypUgCD0VgovngdSdAKbGzfcWvm8WjNjAut6Z8FFNh+9zye6P3RWLyQVQ5u6iSUTP7TMmv9aoTjZZ86ZzAH1mw76tTS1jEom+mBgs8lDnZ3y+N9r/+MaEfVsbjgCAsnEljacumLrxKP+4g0lFTS9GRjduby5efWdg5sH3m0YDwPhTRu88+1v+TSXlhZGkgrGPR3XpdXeRla6HGydTuP1Y1+mxCsDS3h7lSgRgf928tiwdhnbj+yBcD6AwTrt5fPVG0YjnoXvalKIkTbKuQJEuR0VLGWre3eblbIJTyGybqHU0f4KUik9aSXgIFP0eVd63bygc61q//yQwPwTAb9/ffzOis/Nn87dsiciVIAg9/EENXgrQTQCGO+5FBnsL3zSKy14H233cNC35mOVIIlco3bK95y42GKrwsX1q2nttdDS5XL/4NDAN+95pbB6TLNr3hGG+HZdNHhka4fNGAODtZ94fv/4vb8zobAwXg4Ajpx/x4ZlVMzaXjCoKJ3rO5DwyWgGhv795zMZ/bJ1qRkyPr8QTnv31qRtP/PjRu5KJpR41RacQjL0pFtOJZoqGy/XOhmlQZolj9j4wLaXZtX8dCNefCMCe3sBeW3oUyPgpCAtdp12EvUWvmsUjXwazmfTEVJR8OKIUAjFl87KG5AN9Z9K8rMxCvaPxHDLCM1xnyEYoXkKnrnhlqB3nmnnzPOObm38K4KcAdADryDQvqdqw4W25CgShh/fR4BUTwJ6buwTckd5sFpQGVGHx7oS3zxT3OXe2j7Ri0fFEzKW7+Horj3l6PypbTCpN6AAajfveaWoa4472LdQofOGE0tA5RwzrEoQW7TD0dQ9tPvHt1dtPUIbSPQV69OQLjnujYv7H3tV1cHcjo9OJxebd7YXP3xWcue/tg+MAYMLU0TvO/pZ/Q/HIwmhGYqMfR3XJnWAkXe9smEKR9uNc1fsfaEYVVd67c6BcdyIAc3UDCyz0g7VbAZwbX8NaM/tKXjQLhodg52hy38CSR/wmdw/tszhJ87KWXDwihXuoAdTWOk2PtJwHcJHjk3YwbkVxw69o6qoh7XqtqKw8TQEPwuoH2kFEP1oUCNxOVrZIQRB6ch9N1iys+3aYRSPWse5rz8gF1JL83k4qfnrXXTRYaS80aJPXN/I0Bd0TLwAb9r3d3DTGmfrlqBLP7suPKQ8cUeTtSFYuATjwfuOwl+/ZOGPf2wfHA0DJyKKWWZecXD/5jIl7kz3ouxsZ/foT7x25/s+vVxidhtdb7AnP+q+T60/+1LE7U5bbh6O69Im7aIbL9Y6GGRTv+jWC6Hry1w64ceVFAOb8Brbo4yC6DcC0uPmavk/5hj3NBSXvdDmZYydYIlXmvGF16bOXu+Zlzewcq7U3XgBlHula4d92Tr8P5eha3D5nTmlBNHorgCoAYOAJIrq8OhDYJbUjCD28hx5uFv4FgFLHXcpQ3sI3uGTE5kPNwokEWFyyDy3BLTWx+9Or7qL96YEoFz21X5vxfod2dEwAeo0GywFkBQ8h+slxpRs+N6F0WzZN0W8+88GE4F9en9nRFCkBgDEnjNx15uKZofIjS9sTPeiziYxu2tNW9MJdoYq9bx0YDwBjji/ffc7V/mDpuGGdGaXRiZkL6URor4jFHAlGpXSts/FEzeg4Dux0qPEYdG0RzVw+IFOFiQDsjRsY12hYv+sSEN8CIH5MXN2zzSwofZK9RXviRF4yu84ZmJtxRK89oVLY3IdC15VX72g4k6Lh01znw7tgvppmr3hMjmhi6ioqLmKiWgCjAOxlYOHiYPBfUjOCkIP7aJJmYSa9WRWWroOvZFecAKMUAiwDsZhILvaWu7i5BeNePKhXtiqt1Gs27H27sXHsuEJ9/6XHjFx7dImvtTt9F03D1AJ/eXPK649vO8WMmB7NqxvHnz3x7VMvnfaGt0BX3YmMfv3xbRPX/2lLZTRs+jwFenTaF47fVHHRie8lExEDbVSXjNzFaGe51tFQQWw6R7pqAtEPBqLrJwKwr25gG75ZgmjxtwD+CeI6ODPDU7DRKBjxNDzelrTHIROBmM49dC2jFJEn2na81tl8AVg5fmUjCvBtaInW5PMQbvnCXbNnj/OY5r0APm3PerDIMJYs2LixTWpHEHJwH31t0TnQ6C64moWh+z4yi8rXQve0W/2iOYmkSeICpvWKUgvGnrqLJkN7uUmfsulgy/gx3ujeiyaWvamTxt11F2PLNu9oLXr1/s3Td2zYezQAFJcXtlZ+9WOhE891BGmkcRdb97UXPn9HoHLPWwePBIDRU8p3n31VRWDEhGEdycRiFwGWw7yL/eIuMmt6uHkyRdpOArMzROQJKH0Rnbps+0C/tkQA9sUNrH7xkYiqm0C4FO5AEU/xS2bxiFdAyUYUSXOcUojDuEAR5+kbCY/Swk2fJjN6rGtLn4KuXUUVte/IUcvi+AJUV1m5CMDvABQDeFMDLlkUDAakdgQhB9dYimZh9hVtUSVlm8CaSi4CXfdGpBJVWkZiMWG53XAXTcWaHhvNI4d9F7e9/NERgT+9UdG6v70MAMYcX77zzEUzgiOPKWtLJS7fePy9owL/+0ZltMMo8BTo0WmfP35D5fyTtuVj3sXechfJjJZq7Qf9pEzngAfNILoOlbUriAZHn28RgH15EwssnG4Hinwy/ihQC+sFG7hgWKhLEtSUEb2ZC0SNQBxpn6RFO6YiEq4g9xBuRNeSv/YvcpS6T92MGVPZ43kIzDNhjY7yy/LJk2+av2qVKbUjCDm4hyaLFta0Ji4sW2t4i3Ynf+7HP/0zFYsD0V2MvTejpla/6q0prz/+3jQjYnp1j2ZOOeeoN067dNobnkKP6SyzbV97wfN3hWbteWP/RAAYddyI3fO+VbluxMTh7anqq7/zLqYst0uRadxFItLaG4/XjLaPuVy/FwG+nGbVvTuYricRgP0iBBd9Ckyx/oFHxB8Rz3b2+t5iT9E7yuvdA9KtX4bJh/FNLBCV0khFRmnRyJFQ4clkGlPAqsi1lAHQXTB8PxsMQ7jlA7dPmVJQWFZ2IzNfB0Bj4FUP8M2FweBWqR1ByNE91GoWvhPAKXEfeHzbjYLytax72pI8+1OLqiRiMfWyrjLzyF2M0by7reiVezfO3LVp7zFgoHhEYeu0Lx6/4ZTPHPehUkzvPPvhhHV/3DI73BYt8vj06CkXTq6v+MrJ7/a0OTqNFLeOJTLss4fedRfJiJZqnQ2zSBkjHB+1A/QL+MffOhgHPBAB2F83MAYhUDUPwAMAJiY+OhRm0ndC03eCPAdZ9x6EprWBPGEFCkNXHijlIdMsJuZhxEYZDGMksTkByhgP53ibXQt/FUotoVNX1MvRyD3LKyrOJ037A5gnAmgGcF11MFgnNSMIObqHJm0WJoO9RZuN4rKNh5NIJ0z5nLRpNZFgTO0YDgx38f01O8aue+iNWa3720cAwOhjy3Z5i32RXVv2HQ0Ao44p233Ot/xryyZZrl9fREanXrZP3EXSOhpPoEjr1LhdJrwCjS4bzF2iRAD2903s4Yt1HDvyUyB1OUCfB1DQi1+3HcC/QerPqFz50mDpx5Cv1Pr9Zcx8FwHfsGf9LerxVH/rtdcOSO0IQs6E4HgQbknULGz6yl5VBcU7k4mkZOJDSzJcUiIBNNDcRdNkCv3v6ydueWzbDBVVHgDQvJpxwnlHbz5twdQ3yKNxKhk6EPIuHjo30rmLZqRU72icDTM60jG7A6AbB6vrJwIwX29kr1w5Ej79AjA+DcI8JHMGM+cjgAMA1kLhMXH7+k0IXgzmWgDlAHazpl25eP36R6VmBCGH988kzcKs+bYbJSNegeZp05LIq0RuWVpXzVHUQHIXw81h74vLN1RuD+w+HgAKij0dF/z0jCdHHjeiNWt3kVKL0ITb24d5F5MtSwDp4ZYp1NkyI35T6FWwdhnNvvutoXDNiADM5xta/eIjYfIcgE8CMBnAZDDKYDV3lAHoBBAGqAHEe6GwHRo+AGMDlCdApy7bLbWYH6ysqDjaJHoAwNmwRg1ZAaLvVgcC7VI7gpCje+ZzNR4M33FVomZh5S3cxMXl9QCphCIlaUa47onFZOKjP93Fras/nLD2wS1zI62RYt2jmSecf/SG0y495XVN1ziZu6glq4MBlHfRWS4ZkWF6R+OppKJjHIt0AlSDbQd/Q/OHTtCeCEBB6CNqAG2C3381M/8aVv/M10mpb1TV19dL7QhCDoVgkmZhJq0JhWWvKF/RjnjjJ/Nm2N4SjL3pLnY0Rb0vLw/6t4f2nAAGyiYM23f20sqXxx4/stm5XXnVdzGNu9gdsahFWibrnW0VgNX0bZ8Vr4H4MvKvfGOoXSciAAWhj1leUTGLiB4CcCKAMDP/fHcodGsNoKR2BCGHQjB5s/CHXFz+EuuetlTNhVoSuZLILetLsZhMACVyF995fvuEtQ9sOiPcEinRdM088fyj6+dcOm2LrhP3d9/FbNzFbNLodJGLZmSY1nHwNDKNsY651qAHoBtoVl10KF4fIgAFoR+4be7copLOzptBdDUAYuBZ3TAuXbRx40dSO4KQQxGYolmYfYUbVHF5CNBUxoKGMhE//e8uRtqjnldWbpy57ZUdpzAzlY0r2XfW0oqXxpwwsim24FCIjNYiLVOoo8UPsMP1w0arr9/y0FC+NkQACkI/Uuv3fxLM9wGYAKCJgKuqgsE/Ss0IQo6FYNJoYb3RLCx9Gb7ijxIJIC2FAkrtGAL95S5uW7vriFfv3XhWR2O4lDRSx5991IbTF83cQDpxIrGYsFz3NgywyGhNRUv0tsa5UNFxjtkGwL9FUePPaOqqyFC/JkQACkI/c29FxRhD01Yw8xfsWavMaLR66aZNDVI7gpBjIZisWVj3faCKyl9UmqctufhBZuIngQrqC3cx2mHor6zcUPneyzumMTMNG1108IyqGS9MnHHEgVSCMaGwy/fI6FTiOtx6nB5uPhXMXsfszSB1GflXyhCdIgAFIb9YXlGxgIjuAjAMwAfEfGlVKPS81Iwg5FgEJmsWJoqyp2iDKioLKriTSCeWTQkdwwwFYy7cxdhyH6zdPfbV+zae097QWUYEddzpR246a/HMgO7zHupbPJD6LqYU2EncRc00i7SOhrlkRpwp1CzXr6zw53T8HWE5+0UACkJesmL69GNZ1x9kojOs+zXfWR6JXDd/y5aI1I4g5FgIJosW1vRG5Rv+kioo2Z5KzCQUNVqK5l2VSvwgM/HjUkHRsNJfXB6Y9f4rO6Yzg0pGFTbMXVSx+uiKsftTCca0wm6ARUajo+VYPdpyGpRyDqbwOhRfRqeuWCdnuwhAQch7aubN84xravoeEd0EwAtgE4i+UR0IbJLaEYReEILJxhbWve9HC8tfgMfTmtIFdIkfrdtiMbVgdLtfH6zbNfaVlRvPbW/oHEEEdezciRvPXDxjve7TVS7dxeTL5kFktDKKtPaG08mMTHLOBWMlCN+lWXWSa1UEoCAMLGr9/jlgfgjAFAAdRPSjRYHA7QQZwk8Qci4Ck0cLR01PYT2KRwRAWuIkwVq8WNOSLZRAAGXjLsbcQiPM2isr6yu3vrDdb7l+RQfnXjF99VH+cfvivnGA9F3stmAMtx2rh5tPB7PT9dsGjS6nytoX5KwWASgIA5Z7zjhjuNHR8RsAVfasJz3Ml18ZCu2U2hGEXhCCqZuFX0BB8YfxT1EtofhJ6QIi3bLJ3cVdm/aOeql2w3mt+9pHE4GPnXtk/ZlVM9d5izxmLt3FVIKx391F0yjydhw8HWb0GOehA2MFfB3X0owH2+RMFgEoCIOC5ZWVXyagDsAoAPtYqUWL6+v/KTUjCL0kBIPVZ0PxnQCmxc3XvO+rohGroftaUkWuJnUBKdNlD3+oFJMZYW3tHzbOeOu5D+dAsVZU5ms67dJpzx53xpG7uuMudhFqWuZiMfHyKZZNIhi74y5qkbZj9Y7mMwAudCz1HoAraVbdc3LmigAUhEHHijlzjlDR6D0APmvPetAIh5detWVLq9SOIPSCCEzRLMzewqAqLlvPpJlO2cKpmoKzFYy2u7h9497Rr9TWn9+6r30MABw5Y+yWc6/xv1wwzNdlBIueuIt91XcxlWBM6i4qVaC1HzidjPDxzkMExgoUe75HU5fJfVAEoCAM4gcSQHWVlYsA/A5AMYjeU0TfXLJ+/ctSO4LQS9dd8iTSDVxYutr0HW4WdgrAdEownVg0oqy9ek99xdvPfzSHTaUXDi9onr1g6jMnnD1xBxIJsG66i6mX7Vt3MZFY1MJtk6iz5WywWeKY/QE0upIqa5+RM1QEoCAMGZZXVJxsjydcAcAgot8ycEN1IBCV2hGEXhKCyZqFde97qrj8WdZ8LQDADgFEaaI8kgnGnRv3jXqpdsMnWve1jwWAI2ccsfmsqypfKiq1XD8tsZ5KKMJSuYt91XexW+6iMgr09qY5MMInu5TLg+gwrqIz722Rs1IEoCAMOWr9fi+YfwLgBvv+upaV+ubi+vp3pHYEoZdEYOpm4YBZNOI1kGayLYCSP2RtF5DjBSCD6eW6Df6tz28/TZlKLxzua559ydSnjz930vZcuotZicX+cBej7ZP0jsZ5YHa6frtAVE3+2n/JmSgCUBCGPHUzZ57OmvYggOMAtAD4fnUwWCc1Iwi9KARTNAubvuHPqYKSDzJ90MZE4L6tDWUv3hX6ZNOu1iMB4MjpYzedc3Xli4WlvkhCwdhNdzGRAEsqGNMM0ZZzd1GxT28/eLpmulw/YBUi5mI6/Z6DcvaJABQEwabW7y8D850ALrFnPQKi6upAYL/UjiD0ohBM3iy8TRWXP6M0T0vqB63V5rn2gc3TX39s2zw2lMdX4m059etTnzzh40d/mFQwdsNdTKXA8sFdRLh1ktbZfB6xGuZYYA+AxTSr7h9ytokAFAQhuRC8GMy1AMrBvAeadmV1IPAfqRlB6EURmGJsYdNTuF4Vl68lUMIk0vvebSp7/s7ABc07WyYCwJgp5W+f913/0yWjizuTCjskEGvJti0mwLIVjH3pLlqu3xmIdp7i2shVML1LaM5dB+QsEwEoCEJ6ETiJlLqfiebBGjVkBYi+Wx0IyJBIgtCbQjBpEmmtAQWlz5je4vedy7/2xy3TX3/8vXNVVHl9RZ62mV858ampn5vyLmXw1I6JtUzcxZgAy+SB39fuIkU7JugdzR+HMkc4VtkLoiXkr31EzioRgIIgZPMgAmiF338NM98CoADAG0rTvrFk/fqQ1I4g9PL1l6RZGJrvXbNoxNN732ulF5cFL2jc2ToJAMZMGfHWud+b8+SwUYWdSnFy882RJK+LAMtALKZ+6HfTXaQMy3W5i8Ts0Toa5lCkw+9afRWApTSrTrqviAAUBKG73D1r1imaUn8EMB1AFMCvyidPvmn+qlWm1I4g9KIITNQszMAbL+031/zlQxgRpXuL9LaKi0588pQLp7wTE0uxyNl0aV4AJF42gVh0CrB8cBf1aOd4rbPpk1BmuePjBjB/m2aveFDOnsEvAFnEqCD0PvfNm1cYbWmpYebr7KfBK6auf3PpunXbpHYEoZcfdHazcOuByCXP3/8+7XijGQBwTEV5ZO6lUx8rGj/qzS7Cjh0uYBo7MKFjmEIwZuMuZiMWUy8fE6HK6+lsOI0iHbPiF+dHoZmLqPJeGeNcBKBskyDHKtcsnzXrE6TUfQCOBNBEzFdXhULya1sQeplav/9iTaN7lKmGF5V6cebXJ+HYStv80r1bzaIRT7LubY6JpUPj3mZwVzu0bAaCsT/dRc1oH691NF0ApUY6ZjeC6Hry10raKhGAIioEOVa9/CAaDeYVAL5oz1qlFxQsXrhmjeTWEoQcc9fs2eM8plkL4ELrLkX/+fKPP7Z29NHF34crWpj1wrXmsPJXwFa0sAKnC8SFUzBqGd4F+9xdVOzRww2nU7RzdtwWMh6HqRbRaSs/kjNFBKAIQEGOVR+xvKJiARHdBWAYgA+Vpl26ZP361VIzgpCzH1sXQ6nlIBoJoBHA9bEE7fza0nHQjV93TSKtHVS+YU+qwmHb4oRdeg2YunnXJRaBvnEXyewcq3c0fhrKHOuY3Qyi68T1EwEoAlCQY9VP3D1z5jGaNYLImQAYzHeEW1p+cM3WrWGpndxxxR+vOG7ShEkf1pxbY0htDH5WzJlzhIpGl8N22Yn5UVOpqiUbNuzochNLFi2s+94xi8ueMDVvc1pRR4eFnZbhNvaBu6jpnU2zKdJ2lksTPgnlWUinLtsuZ4oIQBGAghyrfqRm3jzPuKam7xHRTQC8ADZrwDcWBYMbpXZ6xsUPX6yPMEd8H4RfEOg9ADfUfa1uldTM4MVOxL4MwGgATQB+kG5YRke08I0Ayhy3tCh7C9dEi8tf0ThxEulEo27kXDBm6S7qRniM3nnws1DqCMeH7QD/GP4VtxN1uXcLIgB7tC3zAFQDqARwFIAOAO8DeBTAHQD29rOoIABnA7gUwCwAEwCMAmDYD103EwFcbK8zE8AY+1I/AOAdAM8AuB9ArvtO5Koe3fv+KQCfheU0jQcw0r457gbwIoB/AHhSBGD/cfesWadqzA+C+QQAncxcszsUurUGUFI72bPw4YXHkqL7AZwFAEQEAoGIntGgfX/Z/GX1UkuD6PqZPn2s5vEsA3CRfXN6QjeMhYs2bsz4Hp20WRjaQbNw+BPsK3k3lfgDAKUotVDTelEsMjS9o/FUirafDbDu+OQlkHk5+e/ZKmeKCMDuPsATLT8SwJ8BfDLFek0AvgHgPxmW25O6S7SN4wH8JfYgcGEC8DimzwTwIwCfzqA+OgHcCuDnWe5Db9VjMkH5O1vEpuMVAAsBvJHFtg+E83zAcNvcuUUlnZ03g+gaACDmp0ylLk/UdCWkEH//u3ABge4i0DAicoo/aKSBQIqI/qhBu/5/LvqfXVJjA5vlFRVfIaJl9g/1ZgDXVQWDK6ib9ysOLDwLrN0JK3fn4fma7x2zuOwxaL6mVKNuZB64oWWYFia9YKRoeIze0fg5sDneMbsDoBvhH38rUY38kBQBmFMBWAbLPZqewXdFYLlpa/tYAI4B8CqAycmuVQB6D7flIQDf7EG956oe3SyB5RrqWWxbI4AvAHhBBGA/PtAqKy8g4D4A4wDsB9Gi6kDgH1IzaYTfnxYeoWnaChA+r0FDQvHnmCaiNg3anRppv/z1F37dIjU4sLhv5swREU27BUBV7AcTa9rC6kDgwx4/HFM2Cxe8wiUjX1KM5MncmSi1+ItTdpRO/FnCMoG7yND0zsY5FGk7B+S41xNegcGX05wVb8uZIgKwNwTgXwB8FcA+AL8E8C8AO2A1rV5kzxvuWL4eVtMm96EA/AesjsAmgFpbrL0JoN0WXN8D8DXX+gyrifevANYA2A6g1d6v0wBcDeA81/dcCeDebtZ7rurRvT0rHdOmve9/BBCC5SaOBnAugB8DmOpY9gAsx/AjEYD9x93Tp48lj+ceAj5nz3rQCIeXXrVlS6vUTleq/1z9FWi4m4hGExHcAjCB+HMuswOEX7zb/u49q+bLCC0D4kfSrFmfIaVWwOrO087Mv+iNLhPJmoUZdFAVlT3GvpKEzaqHnL0MOvkpdgm7DN1FMjpHa51NF5IyJzgW6QSoBtsO/obkXBYB2IsCEADegtXMuDvBZ2cDeM51Op8F4KUcblMm29gKq0n3pQzWfxTAtbZITMUvANzgmN4Nq8+e0c1tzGU9ngQgAKDYnm6ElQPrxSTLF9gi9AuOef9CLG9W7x0rIX0FU11l5SIAtwEoAfA+iL5ZHQi8JLVjUfVwVRmBfq1Bq0og7NxNvylFoUZaUCPtezWfrlktNZuf1Pr9ZWD+NQ67fi9rRJctDAZ7tX9bsmhh1n1bzMKyJ+DxNffo+R5zAdMKRg1Q7NU7D55K0c5zAPY4bhhrAP1ymn33W3KmiADsbQFoAPADSBWtuArAVxzTv7MFVl8KwG/Ccr9yzTOIdwK/COCf3djGXNfj3wB82TH9GQCPpdmmYQA2AzjasY3TAGwRAZgXD72TwPxHWM6vQUS/ZeCG6kAgOpTr5apVV53PxPcR01FpxV9y9y+RSHyamb/zswt+tkXOvvyhrrLyU0y0EswTAXQw8419GSjFz9V4ULrzW2DciPgk0hH2FKwxfaXrDwlBa5jeQ7n5eqoFNDBxtO0YLdJxCqKRk4lQ6Pi4E4yf472G34rrJwKwrwTgw7CaLlMx33aXYqyG1ezYVwJwEzLrW9cdvgjg747pOwBc041tzGU9HgsrSjnWF+RpAJ/IcH++aztNMWoA3CgCMD+omTfPM765+acAfgpAJ+bXoNQ3qzZsGHJ9fC6777LCkmElNUR0HYG0Q6IuA5cvC4cwqpF2n2ZqN1z3qev2yhnYf9w+Z05pQTR6K4BF9n1mDZnmZf117vNrS8eBjFtB+IbrvsfQ9O2m7nudCkreUp6CA3F9AZOrOwu3WDQ7R1IkfIyuIkfDjE4G87AEd+H10OlSqqx9Xc4UEYB9KQDn285UKk6A1bwZYwesFCt9JQB/BODmXqq/cQCcEYQvw4oiRj/W47cB/I9jOpu+iScj3vF7BsDHRQDmF8srKuYS0YOwAps6iOhHVYHA74fK/i/565LpHngeJKLp6YRdVuIv+XINAG7xdnj/55rPXCMJuvv6fLfGz14JYBLs9Egjp0z5zfxV/e90cWDhWYD2JTCuAuDrKuy0VpC+nXV9L5NvD0hrhu5rUZrWaS8Rhk4eGJFhZJjDdFKlHI2OJVajYUYnAao0xde/DdCdaBl/N0mCcxGA/SAAJwPYlmadYQCc0XWtiA9o6G0BeA6SR7T2FB3xff4+gtUPEP1Yj3+FnQfLpgJW0EgmlNjlxvgQh5uERQDmpyNSZc963ND1y69at273YN3nmudqPAcaDnyPmH6hkebrlqvXM5H4oUbaDUvPXPogEUki3V6m1u8vhlL/DaKr7XvLWhBdVh0IvJlP28kMwvpFXwZoIQjnI3Fe2VyxC6CHAf4zzapbK2eJCMD+FIDDALRlsH/KVYbWhwJwHIA93TgmZwD4Eqxo2BNg9fcYlmbbW+DsF9I/9fiWvb0xzBT1SWnquc3eNhGA+eqOVFR8hYBae6zTvQRcWRUM/nuw7ed3//bd4xSp+wl0ZlrB1sOm37QOoUZrNWjXVp1e9Yqcgb0m/s4E830ApgCIAvhV+eTJN+WD65fyxv7KlSNR4PkCmC+EFag3qodFNgL0EsCrodHz2HowJH38RADmiwCkXvieXAvAIlgJmzPldADLAMzoZn1qvVDv2ay3D1Z6l744P0UA5gF3zZ59lMc074fVJ5QBrCgyjGsXbNzYNuB3jkHf/cd3FwG4jYhKkkTu9qzfX/dEIhPRXz3kuX7BnAXvyVmYG26bO7doWCTyc2a+zr6XbiSlLq2qr68fcKcug7Bu0cnQaAaAaQCdCOZxIExwGAUF9n1zL0C7ALUHwJsgvAkT9Xi/cZMIPhGAIgB7b5+cfAFWXzxvLx/P3qzHKOJHNhEBOARggFb4/dcw8y32Q+VNEH2jOhAIDtR9uu7h68aZXnMFEX0uG2GXcJncBoccXpcoorG2HAo3XHLaJc1yJnaf5RUVc0nT/mAPhRglottGdHb+bP6WLRGpHUEEoAjA3hSA42E1nzr71e2GlUx5NYB3YblrHejaFJtPArAJ8c3QZbCGRsqH80foZepmzJjKuv5HWA62AeCXA6HpzM31/3f9fFOZy4moPGPB1lOR2DOHcI/G2s/wLu6ZP3++ODZZcN+8eYXRlpYaZv4+rH7Vm+y+fkGpHWGwo0kV5AVXu8TfBlhRsTfAioZ9H1afOKf4G56H+3HANT1JDu3QoWrDhi2+0tLTiOgW+97y84Z3332x1u+fPJD2Y3zp+I+XFZZt10mP6KTDo3mga3rcq8s853LkWI48ccskfJ/glWlZHs0DnfQjNF2r1U/UNz9S/8jn5EzMjFq/f06kuTnEzNcDYCK6pTwcniXiTxgqiAOYm+/o6fohWAEfMT4F4Mk065yIriOG9LcD+CTi8/4tBHBPnpw/Qh9SV1HxcSb6A4AjYbnA11UHg3UDYdtvf+H2ZTrpS0w22xvaG3aYyjy+x/3+ejs4xLkc6GkF9b0vTPvCRjkTEwo/L5h/AjunJYi2sFKXLQ6F1kvtCEMJcQDzg2Nc02syWGdOHu7Hate0uBFDlKpQ6GmfUqeA+U+wugXU1vn9q1bOnTtyIGw/M0MnvXjssLHHjyoZtcNDnt3ZOHk9cQhtVy+lQ5jo+w+Vpesf9+m+0ONvPv7Ac1ueGydn42GWV1TMAPAagJ/Ddv3CTU1+EX/CUEQcwHg6gLghbnywAht6a59iRBAf/JFJ9LDbbcv0+3qzHk+BNfpJDAVrbOB3euH86emxEvrOcbkYzHUARgDYzcDli4PBx/N1e3//wu+XadCWxFw2jazfyZ3Rzi2d0c5jiKgkJ/3+eis4JP472sD4TVFx0S2nH3V6xxA+B72s1LVEdJN9r31XAy5fFAy+KFeoMFQRBzCeRtf0mD763n2u6Yo0y38SmQ+x1pdsBvAf1/l1H3IbGdzfx0rIkupAYJXOPBNWUvRxBDxaW1Hx+9unTCnIyw1WlgPofBEIxb7iqeUl5b5CT+HbuqZzRq5ehu5d1g5hOsfxsJNY4tE9PzcixpvPv/X8V4fi+Vfr908D86tEdLN9L6oD0XQRf4IIQMGJu0/daX30va+6pn+Bw+PpupkG4KE8rsMfI969PAPA/8GKCE4HAbgAmY2e0l/HSugGC0OhD8onTz6PmX8IIAqiawrKygJ2k1ye6T8FTvTHDA2ad1jBsBOGFwzf79W92/I8OOTQfGYOt5qt3x9K51zNvHme5RUV14N5PYBKANuI+dzqYLC6OhBol6tSEAEoOHnONX0rgM8AKEfvNpe7x8v9OKzo3/NhjYZRCGAqgJsArIXldv0tT+twI4DFrnmfhjXc3C9soTbK/iU+AtbIIfMB/B7AdgCPwcpin6/HSugm81etMheHQreQUmcCeAvMU4no1eUVFdfX5NO9KIEDyBwvBnVNHzOsYNhxRb6it3TSGxL23cvCIUzo4GUgEjNxCA3TWNMabj1SKTVhqJxrdTNmTB3f3LzGdv28AOqMcHhGVSj0vFyJgnDYcekv8rEP4JG2szSsm3XXk8jUvwP4YobLvmMLqQPd+L6+qEcAuBzAciQapDw352ZPj5XQj9w2d25RSWfnzY6xVp9WpnnZkg0bdvT3tv322d8u0zS7DyC0Q/0AnX0C4/oHEpRS6m1mnkJEnlSRujnt95d+OaOls+XlsBE+h8FgxTsvnH7hkYP5vKqZN88zrqnpe0R0I6yk5O+D6IrqQOA5ueoEIR5xAOPZAeC/0HvJi1NxCTJz9V4EcDaAg3lel/fBGtrumSzWMQA8Yq+Xz8dK6CHXrlnTUR0KfZssd3gXgI9rur651u//en9vm4JK6Pol+wOgeXTPST7d167r+pupmmt72yGMuZAgHGhoa3g7bITPYWYoVlBxaUQHH7V+/+Rxzc3P2q6fD5brN03EnyDknzOSjw5gjHEAFgA4D1ZC5pEAil3r5toBjPEpWO7ZXABHwOpPtwNAEMAfADzr+J58GwkkGbMAfB7WeLFHwxov2ANr5JCPYCW+fh5WX8FshW13j5WQJ9w9ffpYzeNZAeBCe9Yqn1JVl9fXN/bH9tz6zK3LNIqPAk7lACZYbjsx+UijI/pj5JCoEd3U2NF4hGI1VrE61H+RmXd+acaXBp0DWANo4ysrFwL4nX3tf0DMC6tCoafl6hKE/BSAgiAIh1heUbGAiJYBKAHwATMvWBwKvdDX2/HrZ36duQBEQgEIjTTomv62pmmTCFTY202/sbJaw60vtnS2nMZgr9PFVKzAzDsvmnnRoBKAy2bPPk43zXsBnBP78WBGo9VLN21qkCtKEFIjTcCCIOQFi0OhB0xdnw7gFQBHE9GzdX7/zQ9Pnerr621hZoCTBIO4AkMAJGwaVqxOMJXJRLSxD5p+O/e37H+tpbPlLKf4U1Ax8TeomoAZoNrKyirdNDfa4m83MX+hOhicL+JPEEQACoIwwFi6bt22XaWl5wC40RZi1zcUFLy0bNasE/tqG5KmgXGkg8niVWSYxnRDGXs10j7qjZFDGPzBrqZdH0VV9NRD/f34sPCLzWPmQXGO3D1z5jF1lZXPAKiF5Rav0gsKplaFQv8nV5AgiAAUBGGAUrN6tVEdDNZowJkAtgKYrSsVqvP7v8190G1FKZXW9cvqjxmmMsd2RjsnGsp406N7GnMVHBKOhNfvbdk7wmBjSizQw9306xSCA5mY66dp2iYA54J5D4i+VB0Mzl+4Zs1BuXIEQQSgIAiDgEXB4Kthr9cPoA5AETP/T21l5WO1fv/43hcbPXL9kgrGiBk5qbWzdRgzb9A13cxq5JB4h5Ab2xtf3t++v9JUZpnz+xI6gHZT8EBlZUXF0XWVlU/Ccv2GAVgFTTulOhD4h1wpgiACUBCEQcY1a9c2VweD1cT8FQAHCPgUmOvrKiou7DXxp3Lj+iV7KVae1nDrjNZIayuB3su26ZdALTuad2xoCbecwWAtVbPvYHAAa/3+i02iEKwE+XuJ+SvVweD86kBgv1whgiACUBCEQUxVKPQ3Q9dPIeZHAYxlon/WVlY+8MD06SW9IgJz6Pol+4ua0bKGjoZj28Jt72mk7c1E/BnKeOujho8aDcOY2UXgwSH8kjQFDyTumj17XG1l5T/B/DCsEX5WeZlPqQqF/iZXRJLTNvVLAeiANYDAm7BGU6oFsBTAjF787uOzLOuENOV1d/978hIBKAiC0F9ctW7d7kWh0OcAVANoB/DNDo9nY93Mmafn8nsOiaccun6pXh1Gx7H72vaN6Yx2vq5reiRZcEhLZ8srOxp3TDLYOMrp6g1GB7DW77/YYxhbYOWGbARQXR0Mzr8iFNonV0K3IVjDio4EcCKAeQCqANwFoB7ABwB+BWuUpVxyRS8vL4gAFARhCDzBuDoYrGPm2SCqB3Aca9rztZWVNQ9ffLGeEwHIKq1oS5giJvEoIZmJRcXU1Nl08t7WvSYrftvZJKxpmrGredfL+1r3na5YFbn79bmSPcelfumMdqIj3DFgRgJZMWfOEbWVlX8H88MgGknMj3qYp1YHg3Vy9vc6kwD8CMC7AP4b1lB6uWABgEyvTd1eXhABKAiC0JXFodDr4aam04joFvs+9vOD77770srKyim5KL+3Xb8UzcJFu1p2nXCg7cAOjbXtitXubfu3vdUWbjsjmauXbH5Lewv2HtwLwzTichbmK7V+/8UqGt0Ca0z0JgDVVaHQZ68MhXbKGd/d30tdXsUAxgP4mF3PvwTwsmu9AgA/BLAGwNhufneL4/0EWEM+ZsJn7O1LVE539jfb1y8TlPuACEBBEIQ84pqtW8NVgcAPNeATIPqIgNNMIFhbWVnVY/GXw75+3RGLbZG2Iz9s/PCo9w++f9BU5tRU/frc8002caD5AFraW+Dz+g4LRJWfDuDd06ePra2s/Kvd128UgMc1wzhFXL9eoQPAblh9AP8J4Kew0i1NA/CQa9kKAP+2RWO2/MU1nWmzrnu5/+3DuvkcgB+75m0AsFgEoCAIQh6yKBh8FsApDPwRwHAAtbWVlX+989RTR/VIBPaR65fsT7GCyaaWrl+fc75hGth3cB9M08ToEaOhkRYXIJJv1Pr9F2sez2YAFwFoBlBdFQx+ZtHGjR/Jmd2nbAbwTQBfBdDqmD8bwP3dKO+eBOIqnZs41l4uVTm9xXEAHkR8ntEGAF+2RbMIQEEQhHykOhBoWhwMXgKi+faN+yJvNLpl+axZn8m2rJwmgu5pJHGCfn1x0b4OMRiOhrHnwB54vB6MGD7C6jDpWjZfuG/mzBG1lZW1tus3hpifMnT9lOpgsI4GcdTlAOBhAJci/hh8BUC2gVavAnjdMe21BWYqFgDwOKZfB7C2D/a5CMAjAEbE/Qa0tnfbYD7YIgAFQRhMQnCVzlwB4HkQHUFK/bu2srK21u/Pqhmrv1y/JHkDkzuA9jptHW3Y37gfw4cNR2lxKUCIGwM4n6KAl8+a9ZmIpm2BFYHaTkTfWRQKfeqqdeu2yxmcFzwCYLlr3i+6Uc69rukr0yzvbv7tK/fvbnRNg/MLAP8Z7AdaBKAgCIOKhaHQB7uCwfOI6DsAogCqwLzu7lmzKjJZP6ED2Jeun7usBEO6OcVgY2sjGloaUF5WjgJfQdJl+1sA1vr9ZbWVlbWk1H8ATCDml3VgRlUg8Htx/fKOWwAYjunzARyVZRkP2tdfjI8BOC3JsnPtz2NE7fV7m8WwHE8nj3VT8IoAFARB6G9qAFUVCPweRLMAbAJwsqbUmuUVFdfXpLnvKaiEQi5h6pdEKWKQWRTxoeVSlGXASDikm90/EPsa9qEz3IkxI8fAo3u6NBE7hWR/NgEvr6y8AFY/syoAHcz8w52h0NkLg8GtcrbmJR8AeNw179wsy9gLK4jESTIX0D3/XwB6O+fjbAC/d817D8A3AKihcJBFAAqCMGipDgQ2tRUUzAHz7QB8RHTzuMrKp1ZMnz4x1Xr96vo5RSIjYeBHNBrFngN7oGkaRpWNAhF1aSI2DAMtbS0wldlveQBvnzOntLayspaAR8E8EcAaMs2Zi0OhW2qGyEN2APOCa3peN8pwNwN/FYB79J4SAPPTrJdrRgP4KwCfY14nrGCkhqFygEUACoIwqLl2zZqO6lDo2yC6AMBOAs5THs/m5ZWVlyQVf/3Q1y9d/79YU3BHpAN7G/eipKgEZcPKoKirQAxHwjjQdAC6R4/bp75k+axZnyiIRmOuX5iZf1g+efJZVRs2vC1n5YBgjWv65G6U8RgAZx7H4QAudi0z354fYye6uo+51j1/gpX42skSAKGhdIBFAAqCMCSoDgSe9DLPJKJ/Aigj4MHaysqHl02bVt5FBPZTIugufypBtG84jOLCYhQVFnXt6weF1vZWNLY0Yviw4SjwFsQ1HfcFtX5/cW1Fxe9JqScAHMXAqyCqWBwK3TJ/1SpTzsQBww7X9MhulGGiayLlK9JM32+v11vcBOAT7t8rAP4w1A6wCEBBEIYMV4RC+6oCgS8y86Ww8p1drHu99XUVFefElolLrNxPiaC7OIBIP+avqUw0NTeho7MD5cPL4fF4ugjEPhB/Z4J5A4iuge36jZw8+czqQOBNOfsGHO6m0O7m1XQ3554F4Hj7/QmwElGnWj6XfB7WcHdO1gL49lA8wENJAH4VVqQZA3haru1e5VlHXX9FqkPINxaHQg9ohjGdmF8GMImJnqutqPj9w1On+g4FgfRnIuhUw7w5xaAtVg3TwMGmg1BQGFE2AtAP92M8FDjSi13ubps7t6jO778ZzM8DmAJgAyk1V1y/AU2ra7qsm+W8A+BF928x1/8YLwDorcCgybDcSGey5332MyoiAnDwMhzAbY7pn2SwDrtefYHPPiGd33sAPRuUmxO8/pODclLhrN/fARgm91Ih31i0ceN7O8vK5jHzDwEYILqmoaBgvacxPKrfE0HjsHhL5QjGEkAfaDwAn8+H4SXDE/cfZO61kIu6mTNPL4lE6pn5egAmEd0CotlV9fX1cpYN+Oemk56IJHdOv0vt59qCNMvliiIAf0N8smcTwNcADNlRZ4aKALwB1oDUAPAo+ia7eHf4AqzoJCcjAXwpx9/zGXQvoitT1gB40n4/EV3HVxSEvKBm9WpjcSh0C4jOsp2KacVv77som1QtKVPEJEv9kkYsxsoDIy71S1xal1h/v2arv1+sT6Bz1BDDNJzDyuW07u6bN6+wzu+/mTXtBTCfAGATiE6rCgR+WB0IROXsGvC4+8Y29aCsVQBaHNPjAdxh/4/RDCsytzdYjq7Jnn8Mq7VqyDIUBOBEAFc7pn+Tx9t6ZZbze8KvEW+F5xpnPX/HdaELQl5RHQis9RQV+QHUAdD70/Vz/plsJm0ObmxuREe4A2WlZV36+xmGgYamBkSikbjyc8WKysrTIs3NIdv1YyK6pTwcnlUdCATlbBpUz04nO3pQVjuA/3XNW+Sa/l97uVyzBF2dxkfsZ+CQZigIwJ8BKLTfhwA8l6fbOQldI5NinA/gmBx/32x0zb2US56ClYAXsOz3G+R+KuQzV778ckt1MFjdflTpE/3R1y9ZWYdEX6w5WDGaW5vBzBhROgIaaXECMRwNo6mlCV6fN25kkFxEAcdcPwW8BOAkEG1h5rlVgcAP52/ZEpGzaFAx1zX9Rg/Lu7eHn3eHUwH8j2veWwAuk8M7+AXgOJfyX5nH23p5iuNB9ue55pewBunuLe5x7d8YueSEfKdjTNG2/nT93GlgEjmABb4CDB82vMvoIB2dHWhpbUFRcREKCgrihpPraRTw8oqKGZGWljVO1y/c1ORfHAqtl7NmUHK2a/rVHpb3KoAtST7bgtx3zUqU7LkVwJcR3xwtAnCQcjUOB1B0wkr+mI8kEnhrsxCI2eDsmzMZlj3eWzyEwx2HCwFcJZeckPco9K/rl8gBdPTrA3CoyTc2TymFltYWdHR2YPiw4YeHhXMJx+5Q6/d7l1dUXE9E68A8E8AbStPOqAoEfnjN1q1hOWEGJccA+JRr3qM5KPe+JPNz7f5pAP6MruMXXwHgdTm8g18AehDfd+4pAI15uq2fAHC0Y7odVmi6sz/EUQA+mYPvWuGavgFAaS/t1wHEN7kvAqDLZSfkM3mTBBpdI3ndgSAMK9CjqaUJCgqlpaUgojjB2JM8gLV+/zQwryWim+1rtw5Es5asX/+anCmDmutd9+rnYY2T21MecJkQMVPiwRxv//8D8HHXvNtgBaMIQ0AAfhrAEY7pf+TxtrqDPFbBCk1flWa57nAj4vM7jQbwg17ct7873k9A8n6OgpA/IrAfh39LFvThTAETm45EI2hqboLH60FJcUmXJNGGacCEmbUDWDNvnmd5RcX1YF4PoALANmI+rzoYrK4OBNrlDBnUXASg2jXv5hyVvQ/Av1zz/mXPzxUXAviha97ztqgVhogAdAc4PJmn2zkKVvoXJ/e4/jtP7NE9/L69AH7rmvddHE6Tk2uecE1/VS47Ie8FYBapWjJOEZPmL+573Y6fY6g3xQpgoKOzA82tzSguKkZBQUGX0UE6OjsQDofj+hFmQt2MGVPHNzevsV0/L4C6IsOYXhUKPS9nxqDnYlhDsTkzRDyC3I7Ne5Fdfux1UQ7LTpTseaf93DHk8A4NAagBuMAxvQ35m+zxm4hP9Pw2DmdNfxFWxFIMn718T/mNLQRjFMNyBnuD9wF86Jj+NHo3/Ywg9IhETad96frFfU+S4d/aOtrQGe7E8GHDoXv0OOFnsom29jZEI1EUFBYAhIxGAom5fqzrAQCzALwPovOrg8HqBRs3tsmZMaiZagunhwGUOOa/ga6jdeQrRbZYdY5YEoXVnWqPHOKhIwArEO+UrcnjbXU3696bZjoXzcCtsAbEdnI5gJN7aR9fcbw/Al0TcgpCXpETEZeL4JAE7l80GgUzY9iwYVZ/P4dANA0Tba1tAANFxUVdXcskrKis/NiEpqaXbdfPB6DOCIenVQcCz8nZMKgotO/BJ8BqUbrJNho2JzAX1gE4Fz1LAN2X1AKY7pp3bZ4///sVzyDdrzmu6c15up2nAjjFMW3Ast+d3A8rXYvH8UvtNPQ8JL8WVoLmyfa0Dqufx4W9sJ+bExyfern8hHxEQYGYDjfNEpKO5OGcPvSeM1zOXR51/SwumMMuW/foKPQUdknxEolG0N7eDl+BD16v1yqDLfePQAkTQdcA2vjKyoUK+B2IigF8wMxXLg6FnpEzYRD8jukenbBaiW7CwBojN1Hr2B32KxcMuparweoAVrqm38jT7Vzomv4PgN2ueXsA/Ns1LxcuYBTAT13zPg/grF7YT3fup1lybxbyWQD2q+uXaOxfR1NwomU6OjvQ0d6BoqIieL3ersmjmWGq+KHgls2efdz4ysrn7B+DxQBWmdFohYi/IcsHAH5lmwI3DDDxJ3SDweoATnFNb8/DbSyGNRC1k2QDYd8D4IuO6a/Ccu962i/nLwC+D8DvmHcrLIcxl7j7X06WS0/IYwUIpvTuXSrXL+ly7veUejkodAkEiRsdhBU62jtgmiYKhxWCQPHRwkodaiaOFckA1VVWLoJp3garv9duBqoWB4P/koM/qGFb1LUD2A8rOOJtWK0xLwHYKFUkAnAwcLRremcebuN8AMMd07sAPJZk2cfsfYhF6g63178vBzeE6wE87Zg3B1an2VwOyu2u/2Pk0hPy9impGNCQnQCkLAQgZy4U3alfYo4fGDCVifb2doC69vdTUIiEI4iEIygsLjy03t0zZx5Tp2n3wurbBQCr9IKCxQvXrDkoR37AQ4P0u2kA7P+AZLA2AY90Tbfm4Ta6m3HvR/IwdRPAH9Ks312eQdcUOb/K8Y8D97A75XLpCfltlWSeqiVl6pc0TcSpvovBVg4/Vz9AMBA1omhpbbH6AxYWxrmCJpvobO+EYRjweD2H1qeIUaxp2iYA54J5D4i+VB0MzhfxJwgiAAcTxa7pjjzbvhMBnOmal24onHsQ36n3DAAn5Wh7rneVfTyAqhzur7v+S+TSE/KVjPsA9kE6GKeQdDb7RqIRFBUVWQLP0ddPmVaTMBPDV+izmphjZXVGRgAYBmBV1OudWh0I/EOOtiCIABzs5Js17HbvXgDwTpp1tgFYnaac7lIPa9xEJz+3Hxa9Uf8sl56Q1wKwH4d/S5T6JS74A4yCggKQRnHfETWiaG9vh+7R4fV54yKELZEIxcBF1cHg/G+99toBOdKCIAJwMOIeqqgwj7bNA2CBa97ZtihK9zrXtd4CWJn6c8FPER/1NRbAdTkquzDN8RGE/CHD5tteSwLNictIlBIm5v6Fw2GEO8PwFfqge/QuEcDMjGiRvndxMPiIHGBBEAazAHT3aRmeR9v2ecSPUdwTxgL4XI7Keg/Acte87wEYl4OyS9McH0HII/3Xv65f3MtMnP7l0DzFh/r7+Qp9gIaEqWMUFBRlMRiwIAgiAAco77umJ+TRtl2Zx+XdBKDZMV0CoCYH5brr/wO59IS8FoH96fo5/txRwIeGdItFAXe0H+7vh/j+gqZpQqn4FDKCIAiDXQBudU0flSfbNQHxYxQDVtJqyuI107X+BQCOzNH27YeVB9AtME/sYbkT0xwfQcgbFNQ7bNE/rp8jACRRH0AwYJgGOto64vr7OZc1TRPRcBSkE6DjkFsoCIIw2AVgwDX9sTzZrsthDbkWI2S/smEDgKBjWgdwaQ638TbEj0bigTVEXE+Ymub4CELecN9/3fc7AGczeGMmqVoySv2SLEVMmr9DOQMd/f1MZSISjsBb6IXm0boIRCNqIBqJQvNqIJ3i+hAKgiAMdgH4mmv6lDzYJrIFoJOV3SzLPWLIFchdpHM7gBtd877YwzLd9b9WLj0hn7n36/e+dNS4o/wAvsPMzX3l+iUa5q2LA0iAt8AbHwUMhskmIp0RmKYJ3acD5HIQJfheEIQhIADrAexzTJ+WB9s0D/FDoHUA+FM3y/oTrAG7Y0y2y88VK2ENEZQr5jre74XlYgpCXlNzbo2x4msrfo8oTmLmB+PkXh+NFWyymXAsYABx80zTRLQjChCg+bT4/oOO9QVBEAa7AFSIH1btOHTth9bXLHRN/w1AYzfLagTgTueQy2AQA8BPclTWMQAmOaYfg+QBFAYQdd+s21X3tboFJsxzmXlzb7t+zpfWGh7jdPCcTcGHhoZTCtFOq78feSmlgygIgjDYBSAA/MU1/ckelsfdfAHACABfdpV3Tw+3xz1yyEX29+SKvyI3TbWfTHNcBGFAsGL+iufNBrMSjO8wc0uvBYc4+wt2hEcldADtfoTRSBSRzgjIR4f6+zmjhZ3fLw6gIAhDRQA+gfhghi/147Z8A/HJkLcCeL6HZT4LK3dfjEIAX8/xdl+fgzKc9b4LXccdFoQBQ111XXTZ/GW/J4NOAvBgr6SEcf4RoonEXKy/nzIVPAUeEFHKfIHiAAqCMJQEoIn4IIuPI7cOWTa4m2fvRc+bQRnAfa55C3O83c8DeLQH648EcJ5jeqV9XARhQHPnf925846v3LGAQOcx+PXeGjUkWl78XhcHEAwVVVZ/vwLtcHNwkiZi53xBEIShIAAB4E4AYft9tg4Z5egFdM3199852r+bXOVWZrAf2fLZFPuVjm8A8NnvwwDukktOGEzcftHtz3Xu65ypSH2Hwa0ZpX5JIRatX3ZxQSAqTszF+gb6NJAncX+/JA5gK6zxvQVBEIaEANwD4A+O6UVyyPsUp/N5n308BGFQUVddF739S7db0cLgB3s1HQyUldxZQ5fRQdxjBh9yBcGvmmxW3vP1e1bK0RIEIQYNgX08EsA7AIrs6fMAPCeHvtc5H8DT9vsOAFMA7JRqEQY71/792vM10u4kopM00hB7EVHa9+7pXU273jSUcZI7mMPZtBsTfXFuovU+CsavmrxNN62av0q6XgiCEIc+BPaxBUApgDPs6THofv49IXOW2aIPsEYX+btUiTAUWPOXNe/N+fKce8lDBhGdRkQeIgIIIPvP+vXd9b17uiXcsl8pNdrZx8/dr8/tJtpicDMIn73n6/f87+urXpfoD0EQukBDZD+HA3gDh8fMPQ0yGkVvchqANfb7HQBOAtAq1SIMNa77+3WTNY/2ew3aZ7vjAO5s2vmmYdoOYDLRF+8KKqXUnSXlJT+44zN3hOUICIIw1AUgAMzH4Rx0z8JqohR6h2dwOPp3PoBVUiXCUOb6f13/eY202zVox3RHACZp4o0Tg77GThz7+Idtw7e3XFsdDNZJrQuCIAJQEAShn/nuw98tKioqul7TtB8SUUFSAYjD0zsad1h9AFP392NEo/fPvHtLsSdszgcAIvqr5vNVL1yz5qDUvCAIIgAFQRD6mR/+84dTPB7PHRppF6RrEt7RuCO1Awi1m0xatOKSFf8GgFq//2Iw18HKebqbmK+oCoUek1oXBEEEoCAIQh7ws0d/9nkC3alp2iSn6+cUgNsbt79pKjNhFDCAVeFIeMkDlz5wwFnuyoqKo02iBwCcDYDBfEe4peUH12zdKn0CBUEQASgIgtDf1Pyrphge/ICIfqSR5usiABssARiX+gXcyIqvXvn1lQ8lLRfQJvj9VzPzrwH4QLSFTPOSqvr6eql1QRBEAAqCIOSDEPxPzQmapt2hadon3Q5gXBQw+ImwFr7ygfkP7Mik3OUVFbOI6CEAJwLoZOaa3aHQrTWAjAsnCCIABUEQhHzg/z3x/z4Pwl0aaUfFHEDDNE5SrNpB+PGKr664HZTdOOK3zZ1bVNLZeTOIrrbv+c9ohnHZoo0bP5IaFwQRgIIgCEIecOsTt5ZEELlO07QffdDwwTbDNBp0pV9a+43ad3pSbl1l5afYGpJxPIBGEF1VHQhIUnxBEAEoCIIg5As3P37zjF1tu87Yae6szdVQbvdWVIyJEq0EcKE9a5VPqarL6+sbpcYFQQSgIAiCMIhZXlGxgIjuAjAMwAfMvGBxKPSC1IwgiAAUBEEQBjHLZs8+TjfNBwGcDkCB+c7ySOS6+Vu2RKR2BGHwo0kVCIIgDD2Wrlu3bVdp6TkAbgTAILqmoaDg5WWzZp0otSMIgx9xAAVBEIY4KyorT1PAgwCmAOggoh8tCgRuJ2QXcSwIgghAQRAEYQBxzxlnDDc6On4DoAoAGHjCy3zFlaHQTqkdQRABKAiCIAxi6ioqLmKiWgCjAOwj5oVVodD/Sc0IgghAQRAEYRCzYs6cIzgSuZeJPmPPetAIh5detWVLq9SOIIgAFARBEAYpDFBdZeUiAL8DUAyi9xTRN5esX/+y1I4giAAUBEEQBjHLKypOtscTrgBgAPhl+eTJN81flZvk1IIgiAAUBEEQ8pBav98L5p8AuAFW+rC1OnDJwmBwq9SOIIgAFARBEAYxKyorz1NE94N5IoAWAN+vDgbrpGYEQQSgIAiCMIip9fvLwHwngEvsWY9EPZ6qb7322gGpHUEQASgIgiAMbiF4MZhrAZSDeQ/r+hWL169/VGpGEEQACoIgCINbBE4C8wMAzoE1asgKEH23OhBol9oRBBGAgiAIwiCFAVrh91/DzL8G4APwutK0S5asXx+S2hEEEYCCIAjCIKbW758G5j8CmAYgCuBXu4LBX9QASmpHEEQACoIgCIOU++bNK4w0Nd0CoqsBEAPPmrp+2VXr1m2X2hEEEYCCIAjCIKbW7/8kmO8DMAFAEwPfWhwMPiQ1IwgiAAVBEIRBzL0VFWMMTVvBzF+wZ60yo9HqpZs2NUjtCIIIQEEQBGEQs7yiYgER3QVgGIAPiXlBVSj0vNSMIIgAFARBEAYxK6ZPP5Z1/UEmOgMAg/mO8kjkuvlbtkSkdgShf9CkCgRBEITeZNHGje/tLCubx8w/BGCA6JqGgoL1Kyorp0vtCEL/IA6gIAiC0GfcPWvWqZpSDwE4HkAnM9fsDoVurZF0MYIgAlAQBEEYvNT6/cVQ6r9BdA0AEPNTOnDZlaHQTqkdQRABKAiCIAxi6iorv8RAHYDRAPaBqKo6EPiH1IwgiAAUBEEQBjEr5sw5QkWj9wD4rD3rQSMcXnrVli2tUjuCIAJQEARBGKQwQHWVlYsA/A5AMYjeA7CgOhB4SWpHEEQACoIgCIOYFZWVH1PAQwAqARhE9FsGbqgOBKJSO4IgAlAQBEEYpNT6/V4w/wTATwHoxPyaYr5kcX39O1I7giACUBAEQRjELK+omEtEDwE4DkA7Ef24KhD4vdSMIIgAFARBEAYxt8+ZU1oQjd4KoAoAGPg7WZHC+6V2BEEEoCAIgjCIqfX7L4ZSy0E0Esx7iGhhVTD4b6kZQRABKAiCIAxi7po9+yiPad4P4FwADGBFkWFcu2DjxjapHUEQASgIgiAMUhigFX7/Ncx8C4ACAG+A6JLqQCAotSMIIgAFQRCEQczds2adYo8nPANAFMCvyidPvmn+qlWm1I4giAAUBEEQBin3zZtXGG1pqWHm6wBoANaYun7J0nXrtkntCIIIQEEQBGEQU1dR8XEm+gOAIwE0A7iuOhisk5oRBBGAgiAIwiDmvpkzR0R1fRkz/5c9a5VeULB44Zo1B6V2BEEEoCAIgjCIWV5RsYCI7gQwHMB2EF1aHQg8JzUjCCIABUEQhEHM3TNnHkOa9gABZwFgMN8Rbmn5wTVbt4aldgThMJpUgSAIgjBYWFJf//7IyZPPZeYfAoiC6JqC0tL1yysqZkjtCMJhxAEUBEEQBiV1M2fOZl1/CMwnAOhk5prdodCtNYCS2hFEAAqCIAjCIOW2uXOLSjo7bwbR1fYz72llmpct2bBhh9SOIAJQEARBEAYxyysrLyDgXgDjATQy89LFodCfpWYEEYCCIAiCMIi5e/r0sZrHsxLA5+1ZD3qKiq668uWXW6R2BBGAgiAIgjCIsdPFLANQAuB9DViwKBh8UWpGEAEoCIIgCIOYWr//JDA/BMAPwCSi34zo7PzZ/C1bIlI7wlBA0sAIgiAIQ47qQODNXaWlpwG4EQCY+fqGgoKX6mbMOEFqRxgKiAMoCIIgDGlWVFaepoCHAEwG0EFEP1oUCNxOAEvtCCIABUEQBGGQcvucOaUF0eitAKrsWY+D6IrqQGCX1I4gAlAQBEEQBjHLKyq+QkTLAYwCsJeBhYuDwX9JzQgiAAVBEARhEHPX7NnjPKZ5L4BP27MeLDKMJQs2bmyT2hFEAAqCIAjCIIUBWuH3X8PMtwAoAPCmBlyyKBgMSO0IIgAFQRAEYRBTN2PGVPZ4HgLzTAAGgF+WT5580/xVq0ypHUEEoCAIgiAMUu6bN68w2tJSw8zXAdAYeJWILqkOBN6V2hFEAAqCIAjCIGZ5RcX5pGl/APNEAM0ArqsOBuukZgQRgIIgCIIwiKn1+8uY+S4CvgEARPTXiK4v/tZrrx2Q2hFEAAqCIAjC4BaCF4O5FkA5gN3EfEVVKPRYvm7vstmzj/OY5gomehnAb6sDgSY5iiIABUEQBEHIkpUVFUebRA8AOBvWqCErQPTd6kCgPZ+2c8WsWV9hpZYxMAKAIuAAmH/bWlh497Vr1nTIkRQBKAiCIAhCFtQA2gS//2pm/jUAH4i2kGleUlVfX9/f23bPiScON4qLbwHRFbZAVY4Xg+gjTalf7ygr+1PN6tWGHE0RgIIgCIIgZMHyiopZRPQQgBMBdDJzze5Q6NYaS2z1OcsqK/068AcAx7nEH4NZgciaZmYmelsDfr0oGPyPjH8sAlAQBEEQhCy4be7copLOzptBdLX9fH1GM4zLFm3c+FFfbQMDVFdZuZSAmxjwstXkq0CkmJlj78HcRQwyENItIfiqHE0RgIIgCIIgZEFdZeWnGLgPwHgATQRcVRUM/rG3v/fu6dPH6h7PcgbOh8P1I0vc8aH3LjGYQBi+YgC/uSoYfEOOpghAQRAEQRAy5N6KijFRopUALrRnrTKj0eqlmzY19Mb3raisPE8R3Q3mMWBmZxPvofexJuAEwhBdxaAB5qc1w7ijLx1MQQSgIAiCIAx4lldULCCiuwAMA/ABMy9YHAq9kKvy7zvmmMLwqFE1ABaCGamaeDMVg/Z7SwwSRQD8Sy8oWLlwzZqDckRFAAqCIAiCkAErpk8/lnX9QSY6wxZid5ZHItfN37Il0pNy60499QQ2jBUEfCyFk3dYDB5+r0DEh947hCExKybi2HsQWcKQuV0RPVJiGH9asHFjmxxVEYCCIAiCIKShZt48z7impu8R0U0AvADWm5p2ydL169/qTnnLKyu/SsDNAAqR2snjtIEg7vQwsbLs5WPv7eWbiHnVjkjk/2p6KGAFEYCCIAiCMCSo9fvngPkhAFMAdBDRjxYFArdnmn6l1u8vg5Vz8PPIQRMviCxxaH+e6H0iYQjmvaRpq3asX/9MTT+luhFEAAqCIAjCgOGeM84YbnR0/AZAlT3rSQ/z5VeGQjtTrXf3zJlnaJr2exAdkVUTr0PAJWviZfs9pRGGCcTgdgb+Wh0IrJUjKwJQEARBEIQ0LK+s/DIBdQBGAdjHSi1aXF//T/dyNfPmeSa0tFzDSl1NRJRlSpesmngZYIcwjBODccLQFpKx9yB6hzyeVVWvvfa2HFkRgIIgCIIgpGDFnDlHcCRyLxN9xp71oBEOL71qy5ZWAFgxffpE5fH8HkBlVildsnTyMhKGREoxpxODryul/rZkw4YdcnRFAAqCIAiCkAR79I5vA/hvWEEdm0FUCeCTYP4lrBQy8U28ScSgs1k3Iycvg/5+rJS1vEsM2u+tJuWYMLTem0RUr/t8/5LUMSIABUEQBEFIwfKKipOJ6CEi+gczFwCYn1FKl0ycPJcwVOnE4OHgEk70PpUwjLmECjA0onVF0ehTkjpGBKAgCIIgCElYVlnp9wA3M3BUypQu3XHykjTrxt6z/T6D/n6pxaBS1vKH34eZee3ISOTF+ZI6RgSgIAiCIAgWDNDKWbO+qZT6PgC9J028yDKlSzZNvEgWdJKZMGxlTXut/Ljj1s9ftcqUoy4CUBAEQRCGLPefeuqoDsP4byI6PV0Tr9vJS9TEm1FKlwwEWyJhGOcSEjGUsj63l4+9d++HszwNaDQMY93ijRu3ZJr/UBABKAiCIAiDhpWzZp2hTPP/gWhkXEqX3DfxZpPSJdsm3jgxmKkwZOY9bJprJWJYBKAgCIIgDAlunzKloHD48O9A075mC7fuBWtkIAbTBWskbeLNNhDEIQxVBmKQrIWYiHZEdT3wrddeOyBnhghAQRAEQRiU1Pr9kwD8BsyTkUXkblYpXbKM3E2a0qUbTbxJXEJWSfbp0LrA+2YksimWA1HoXTxSBYIgCILQhzBfAGA8ATsVMJrcyZtj7+0h2wAoaNqhzzRNOyTeNE1Tyu4ryK7AEbdLGFc2c9w4wrF1NUeTsGalcjlUFlxlkfO7mBmx7XK8B7NiTWNSSulEinRdsWkyiA6VrQ4HlYz3FhWNWV5R8UFBWdlbl69e3SkniwhAQRAEQRhMVDDQTkQvE+BTShWnauJ1ije3INPsaacw5JgAAxRr2uEmXltIZl224zN2L2s7gG5haDdhx32Xcny37hCDMWFoKqVI148MNzaOvXPGjA+mlpdvO3f1akNOFxGAgiAIgjCgIUtEAYAXzGco5gYieo2YRzIRpXLyYoIr5t6ldPK6ird4J0/TDjfr2u9j8w85eQmEYbKyY+IulqtQOb5LOfIZxqYpJkod6+qHxzjmAk2b+G5r65i7Zs/+cN+6dTtqrGWFHKFJFQiCIAhCnxML/AARDQNwFohGAtivaVpUA6IADGY2YL2POt8DiDIQP+3+vOu6hgZENWarbMf6ScvStMPT9nsAUdY063PmKGuaQcyGDkR1q3xDOb5bubary7Tju8n1uclMXqU+O97vP11OmdwiDqAgCIIg9K8QjL0ZDaCMlXpHY97Hmlbm7u93KFjDbtaFu4nX6RKmaeLNxCVM1MQLO1o4YRNvrL8fENffj3RdmUpZTp/HoxB7H9tOImXaLqAjKKWYiC5k5rlK066TU0UEoCAIgiAMNhF4OCEy0TGKaAIDm4k5zMyF6Zp4DwVrOIShu4nXHaCRqTB0B2skauJFrFk3RROv5kpQTUTK8HgUmaYl/jweBdO0yvN4joVpfo2ZxwKAZrmCgghAQRAEQRiUQvCQDARwkgLaNaJNALzMrMMdvGELw7hgDSuKN62Tl0wYxglJ5kPBGrot3kxXMIdyBZUoVx9GpzAk1/JeezpWNnTdazCfD6XmgcgbqwtTBKAIQEEQBEEYyJgANCvfXjIR6PzAq4BpDDTpzG8rokKyhntLntIljZOXUUoXZxOv08nTNNaUUnCndNH1w826bjFoN/ECsJw+u4nXdLmEJvNRBHyJbNePLRFMBHEARQAKgiAIwmAhuQiESwSCgGJFNFUj2qOU2kFEhUmbeLuZ0uVQnzzbjUvVxAt3ShencPR4rJQuVlPu4SZeXVdkN/GaHg/H3isiTSOaA+bzGPA5xF9s30EiAEUACoIgCMKAh9nytqxkzwmFINluoPMTxTwSRMMJ+FAp1QLAC7eTlyylS4ImXi026oejGdZM1KzrTOniGn3E2d/P2cTrcUzHyjacLiCgTE0bozN/lpnHA6CY6wdYaUrYnqc8HhGAIgAFQRAEYRCgFKDZ2dhSuIGErp8oYDyIRmnM20AUVZZeyrqJF0SHIneRpInXtCN6s23idUb2xj7TmJVOpHy6jijzKYZhnAeiAiDe9dPc0+IAigAUBEEQhEErArNwAwGQIppESnVomvaBTqQMgJKldEnWxEtpmngPJWd2NPGapmmtn6aJlxIIQ12pskgkcr4imkhEWjLXL7aTLEEgvYIkghYEQcgtX8XhjvxPS3XkLc86jtNX+vTBGxN6ThEYJ+soacdAskRa3OdM5AHzJINoJIg6mTmW5NnQmKM6EI0lakYGyZjd0wo4lNg5lqhZAwwPEPXaiZ+9jnVNV9mm1XxrJYj2eqeYRF9WREfExJ1TkDinAYCZrSAQpUQAigAUhJzCGbzCAPYBeB3AnwFcDSthqyC4GQ7gNsf0T5Is977rHDsny+9Z7Vr/tSzXP9e1/ntZrOuzrwfn+gcAFOT4OvxPDspJhfPY/A7AsD4/W5xCT6lk+5JUCDqnlSWWikipozTmQg9RB1kjfkRVbNQOIKrrelSLjdqh64fFYGzZRKN42J/FiTt7nlPsOcWgF4hqShmGJUajpGmFJvPHSakzFJHudPk0a3/iXT9mYmaKiRSPCEARgILQD/hswfcxAF8DcDuAHQD+B0DxEBbLQlduADDBfv8ogLVJlnsugSDLlAIAc1zzKm3xmSnz0mxPKr6Q4AfQSABfynFdfibBduaSNQCetN9PBPDjfjljiPiQEFQq2XWXVAQmFIJAqck8kZXyMlEECZy8mLg7JAY9nkPCEB5PFMxRxWywx3NY/Ol6vLMXP2SbYTrEYuyzAiBaSHQUA58honH2DsW7fsxdXD/NKVCIKFJQIAJQBKAg5I0o/DaAlwCUSnUItoi42jH9mxTL9kQAngag0DVPB3BGFmWc2wMBeGWW83vCr+FqEswxzmP0HQDj++JEMZk3A9jbRQimFoFZuYEKAGnaCN00x7BhmKZDuCFRk6+jiVcHou4m3i5iz27WhaOJF0AUBQVR03LrotGiIl0pNSdqmnOI2cPM8a6f7fI5hd8h10/TwETERASIAygCUBD64Pd4glchgEmw+gk95Vq+AsAfpNoEAD9zCLNQGlH1XAJRV5Th95zjEgaJ5qeiCF0dxEwF4CQAn0jy2fkAjslxnc4GML8Xj9lTADY56uWGvjhRlgaDr4JoBoBfg7kzTgSm6P+HbriBikjXNG2spmnldkBG1O0CKpe4UwmcPG+CJl4A0VgTb2z52LTGPMYTiZzHmnZkTNw5hUdS10/TLPHn+txnmiIARQAKQp8TBrAdwN8AfBLA91yffwnAXKmmIc04AAsc0yvTLL8dwDbn8y2Lc8gp9P7meH92huufYX9fjK0APspw3ctTPDfI/jzX/BJWrrve4h7X/o3pixOmOhBorw4Gfw1NO52BR+LEHXM6EZhcCLoE5CE3UCmPptQoUmo4a5qZsInXHbyRaNohDDWlDLuJN6orZUSVMrxWOptTFDALgI8dLl9C1w8g1jRyCj+X+CMwU3s0KgJQBKAg9Du3Afi7a97XpFqGNFfjcBBEJ4A/ZbBOd5qB3ULxJocYmI3M+qS6v2d1hvuYSOCtzUIgZkPU8X4ygCW9eOweAhCx3xcCuKovT5zqQGDX4mDwOybwZTAHDlW2lTale26g1XLaRQjaB9Hn0bSRxFzocTh5JrMBWwwmauI9JAYdTbzEHAVzNGpPl2haKRvG6ZquJ3b93BG+tvDTDuteSnDOAQCK29pEAIoAFIS8YHkKVyYTt+gaAI/bLlCr/doG4DFbTBwxyOuPAFwA4A5YzaW77YfwPlhNcstgua25/L5zANwLYCOA/fYDNJqDsj2I7//2FIDGDNZb3Q0BeCoONxW/Y+/L6/a0F5m5iN3t//cJAEc7ptthdYtod8w7KkfHbYVr+gb0Xl/bA646WASrT2WfsjQY3FgdCn1DKXU1W0FmgFLIQARm7Aaa9gumCc3jKYKmjWTAy0qZ3iQpXZI18QKIoqgoJv5g+HxTwkpVgLmgi+vnjPDVNLCmWa6fQ/h1cf1cYvGYY44RASgCUBDygoBr+sgMhcLPYDW5/R7ApwAcC6DEfh1ri6Lb7WV+ksWDqLsRuunWy/SzbL5/HoCgLXa/BWCmLXi9sKJLT7EdnycAvAwr+ron+zMewPO24LocwDQAo9wOQw/4tEuw/yPD9Z5LIO6KM6i7GM/b/1/I4odICaymuVRCNBnuII9VsJqOV6VZrjvcaP8oijEawA968Xp2OvoTkLyfY6+zpL5+NRF9mYhuA1FrTATm0g08JAQtinVNK2Vd15xNvD47jUusiZeBaFSpQ2IwopQRUcpQhlGkmKfrpjlOA1gly+sXa+K1ElVn5PrZO7ZLaVrVuatXiwAUASgIeUGza3pEmuWL7IfMjfZDOB3DAPw/AH9Fz/Kr5RtLYCVHnpnh8qcDeAWZ929zMxrAiwDOSvZ8zME+uYMUnsxwvR2wXLwYXqSP5D0ngQB83jEvXT2difj+dG8B2JnBto6Clf7FyT2u/zEuRM/zZO4F8FvXvO/icIqdXPOEa/qr/XmRVAcC0UXB4F+Y6KsKeMQevzedEMzKDYRpHhKBpOvESg3TPJ4S+Hww7fx9ziZej1JGERAtBqIe0zQKo1HTG42O8/p8J+vMBQog5c7rp2nkFH4x8RcTfmlcP2bmfxLR15asX/8aBBGAgpAnlLmm29Msfw+Az7nm/cF+4I+wyzsdwP2uZb4IoG6Q1NmVsJp2dYcRcT+sJsMxsPq3TQDwDQBbXOL6EVhpVrJlBaw+ZKb93afDyllXCMtxW5WDe+gFjultyDygAsiuGdhrb797XacAnJPmB0N3m3+/6Sr3bVtYw/7/luMzn718T/kN4lOlFNs/oHqD9wF86Jj+NHo3/UymQrBpcSh0BxNVMfO6pGKuqxBMdrKy5vzcMA65gRoRk2nqrNQwpWlFmq4rRxNvFEVFUQKiEaUMlJR4tYKC40E0HgBiwk+3X4eE3+ENysr1A7CTmb+9OBS6pToQaIcgAlAQ8gh3M9rWFMteDOC/HNPKdhguh+VuNcFyFNcAuMwWQM6b+AIAX+6n/aQEv8wTfUZplj0JVtN2jEZbjFwGq8/cflj9inbBCqDwA/iny4Fa1o3t/yKspsR5sDr3rwHQACuyex16HrxTgXi3a02W67sF2LwUyzqDPJxCc7ctyGAL2zm9IADdzbr3ppnORTNwK6wgFyeXAzi5l871VxzvjwAwI19uNtWBwIfVwWCNUurnMaHaEzfQLQIBKykgAOhE7NM0XZnmMN3r9SnDMAFEw8yGikRMg3kERyKTTaUKFTMpW8zpug6laaQ0LT7CNwvXj5kVMa8C0ZWLQ6EN8pgRASgI+chi1/SzKZb9uWv6RgAPp1j+TwBuTlPGQOOXiO/f9nWHg5SIMIBLAHzgmPc5AFO78d1LYCXs7g3cYmtzDwXgbCQfkixR82+MTPoBDreFtZPVGWzjqbD6ZR6SDOjqVN/v0BCwj9NpOajfWgDvOqb1BNdGrtic5tj2/00nFNow4rjjfkDMK8HcHBOCKVZJ7QbG1rVFYCzyIyYEox0dvqLi4mKjs9Ojd3bqXFAw0avUWAA4JPw8Hkv8ufP6ZdvXj+h9n8dzbVUodG91IBCFIAJQEPKQaxHfH8pA8mbas12iZTes0Q0yEUz7HNPTkbwfW75zrKu+noYVAJKOVljBMs4Hxley/O5NsNJ89BaVruk3slx/N+KbTz2w+uklYl4KAZhJP8CzER9U9Drco1Ek0Jb1PAAAC9JJREFUZqFr+j/2djvZA+Dfrnm5cAGjAH7qmvf5XroWtrimZ+XjxTR/1SpzUTD4LBNdD6LHAER75Aa6RCAcItBjf+YpLPSZRCNYqQITIFPXCR4PdI8HThcwJgyzdf1A9H+7hw+//op167bJ40UEoCDkEz5Y/c8ugtVZ3N05/ReI78zvxJ0S4y+w8sSlo81e1sknBmj9XegSHn/OYl135/xsH/x/6uV9m+Ka3t6NMjLJB+hB4v5/iQTg6UicOLk7zb/F6NpMfk+SZd3zv4rMAp7S8Rd0jbq/tReOpbvv5uR8vqiqA4H2qvXr/6b5fDVQah0B3Y4U1ohYJ2K3CAzb772axgBgejwEjwce+4J2u36KmXRk4foxb2fmn1cHAn+qkShfEYCC0M8kSmkSGwnkry5Bp2BF6v6/FOW5m8GeyWJbnklT1kDBLdqCWaz7gWv6+Cy/+5Ve3rejXdM7u1FGJv0A/TjcNPxBgnrZDuA9h2iblSMBOB9W03GMXUju3j7m2v/hyM0wbgzgete8OcjeDU6H+9gdMxAuroVr1hysCoUeVFYf2w9TuYGKiFUKkagDjGh862vs16rh9RLsXxaJXL+Y+IsJv5SuH2Aw8PfdodCNS+rr35fHjghAQRhI/AdWAMANSJ33zu0iZNNHbNNAciRSMM01vR5Ws3nsZTpeyvFixOeCAw7n78uUt3p530a6plu7UcbqBGKvNIUofD5JOc757n6AIxCfeodTlOPE3Yzr7uvnxETXcbGvzFE9P4Ou6XV+BcsZzRUtrunygXSRVQcCH1YFAnebRH8B0JTKDUwpAmNuoIMOWM0gXgBmEtdPP3xipe3rp3u9/704GHy85vAAJYIIQEEYMJwL4PwMlnM/RPZn8R37B/IDKYVI0l0vzfFKFUkMZN+k2NTL++ZO3NzRjTL24vBoHrH6cbum52QgAJ2BIO5+gGe77vebMjgXT0TX/oj3plnnHtcPojNgRYDngutdZR8PoCqHx7Kjh+daPsBL1q/fzMAyYn4OROFuuYHRKPQEn5kpXD9nHkCH8HP29TNA9Fh1IHD7orVr98gjRASgIOQb7nQmRQBOgNWU9bLrwX8bLAcwFe6IzmxyWrndpOEDtE5H9ON3d/bD+dMdUjUD64hPEL06SRlOYXgm4vtddmf83ysTCMx30qyzLUHZuXIB69G1/+jPkTxquqfHjgfo9RZLJP2q0dl5r1JqM4iSOm1JRWAkAo+msTfB527XT6Vx/RTzh0Ve7+3VgcBzNIDrdTA+7ARhKMNZXhM1iE/JwrD6BT6dZPlGxCeNHo7MmwlLEe9gNaCrm9bd/ejOet39jibEN2mWoetIKv11PHuKe9+yOb5OLoLVxzRGAIf78c0GEBsJ4SNY4+0mYzsOJ8yeDau5PSaenHntvoTUQ9Z57O/KxZjUe+1tiubguB0L4E1YLZIxfuG4Jnty/Ie7zstGDFzXPY57KyrGGERzAIxWVhN+NO5lD/+mMRvueVRQEAVRNGqaJVCqHIDXC3gZ8KrDLcNeAF6N2cdEXsc8BtEL1YFACCL88g5xAAUhO2pcD2oCcB8spzARDa7pbIbIGp2mrJ7SV0PMHXBNTxpE58PBBCKiOzzvekBWOH44ZNL8m+jzWDPwSFhphA4ZMhmU8/kciT8AGIuuo+B0l/cALHfN+x6AcTkouzTNsR2wXBEK7asKBv/t0fVnNDt/YCISNgt3HjbRY6rOPonixLXm6htIwPthr/fe6kAgKOJPBKAgDBa+hfgO4xNh5QZMxLuu6WlZfM+0NGU5CbumCzMof1Qf1Zd7lJQ5g+hceN813d2xavcjPkBIcwi4eVkIwEQJoech/mG9IYMfE1fmuJ5yWd5NiHfqSuwfZj3Ffew+GGw3rivWrdu+MxT6t0/X1xFROJUQjJvR0XHo16LJTM6+gBozOcUfAxFlGKurgsG/X7N2bTMEEYCCMIjYA2ucUifXI7G75x4a7Lwsvuf8NGU5cQc7jMmg/L4a6mq1a/pzg+hccIvbo3pQVqJ8gBriAzFWpynDKRDPstfPNv3LBMSPbwxYCa8pi9dM1/oXADgyR3W+H13zAF4JK2ilJ0xMc2wHBTWAumLdum27Ojuf0oGtlKR/oNK0Lm6gOwJY6xoRvL3FMB5esnHjZggiAAVhkHIb4kfqGA7gJwmWe8o1/VVk5s4V28umKsvJ+67pTJzGbMcXdgdUeDNc7/9c0xci+3x++Yo7QfHHciiUz7WFVKwpeBfSB2G8hcOjdJTb58G8LAXg5YgPIAnZr2zYgPh8jzqAS3N8/TlHI/Gg50PETU1zbAeXENyyJbIoGHyjORp92aPrSaNyDTsJtEs4xLl+plLhCPDC4vr6p67buLFNHg8iAAVhMNMKa7g2J0vQtX/bC4gfYmo8gO9nUP6PYPWdirERqcezdSdX/lKa8icD+EaW+9zomh6T4XqbYeVNdN537kNuc7j1F6+5pk/pQVnPIz4v2nSXSH8+w3KczcAXuYSNidRjMJMtAJ2s7Ob+uEcGuQK5C8pphzWmtpMv9rBM97FbOxRuZNdt3Ni2cP36zQXMG3WihOLNIOKwQ/y5PtsRbWt79Fuh0AcQRAAKwhDhbsT3EypA4r5I7gdVDVK7b18F8OM0Zbj5p2t6Abo2w8UYCSuQpSjL/X3TNZ3NyCQ/RryDeAYsZ7Asg3UJVhPiC3l4DtQj3gnuyWgtB22h77w/f6uHAvAal+gKIXVuxHmITzjege4Pp/cn1zGfjMSjnHSXlQDezmF5cx3v98JyMYcMl9fXNy4KBjcaXu97hlJdkn2brr5+Coiwpq1bGgy+es3WrWF5HIgAFIShRATxKWFiwsud+HaV6yGq2wLsHlswDLdfp8Fyxv7XdW0+AOCRNNvylOth6IOVmqYKVjSnD9awZUthJQGeaX9PNribDm8F8BlYTY3pnJ2NABa75n0aVt64X9j7PgqWKzgCh3Mv/h5WapPHkP04wH2BQvzQaMeha1+ybFjtmi5L8Vkynk+yfqJj6Gaha/pv6Or8ZkpjgvM2l8EgBhJ3u+gOxyDevX8MQzRy9VuvvXZg/4YNb/iAfWaC5l8AME1zN2naC9WBwC55DAiCMFBxj/vbnR9Rm11l/C3BckUA/oXEYw2nev0dmadrOQdWDq9Myt0AK+1FNvt/JKzo50zKT2o0wIpY5m6+evt4dofPuL7zih6UdWGS/c5m5ASC5UomKufTKdYbAcvxcy4/r4d1c76rvA4kTgzek+P2ag/OlxhVWdTTkKFm3jxPrd8/+u4ZM468w+8/aXlFxaxl06aVS80IgiAC0OKLCcqZnWA5D4Cfweo/mE7otNjuhp7ltnwJVoqMVGU/jcMJpbPd/8/BakLsiVDz29uQqeiL2qJ6bp4KQB1WgEbsO//Vg7JGwOqn596Ph7Ms55Ek9ZgqT+FVruXfQc/77BEsl9dZ7tIcH7dzciAAH3Oss7Mb192g5uGpU321fv/ohy++WOpFEAQRgC7WJBBZyRgH4NsAHoeV2LbNfr1nz7sGPUvCOw5WgEoQVr63DvthvgrAJ1wP9e7s/zgAP7C39UNb0KpulDMLVt/GF2D1pWyD5Q7utbf9PgCXIfnoJ/kiAAErN106lytT1ifYj6uyLOPbCcp4Nc06QdfyP8pR3dzgKjfYC8ftPz0QgCMR70r/Qm6LgiAIgiBkwhGwAh5SuVxCfnK147h1IncjoAiCIAiCMARY7hASIamOAUO947jdLdUhCIIgCEI2HAkrP11MTJwrVZL3OINU2tH9ofwEQRAEQRjC3OIQFP+R6sh7nMEfN0t1CIIgCILQHYYD+MghKuZIleQtpzmO00cAhkmVCIIgCILQXeY7hMUzUh15yzOO43SxVIcgCIIgCIIgCIIgCIIgCIIgCIIgCIIgCIIgCIIgCIIgCIIgCIIgCIIgCIIgCIIgCIIgCIIgCIIgCIIgCIIgCIIgCIIgCIIgCIIgCIIgCIIgCIIgCIIgCIIgCIIgCIIgCIIgCIIgCIIgCIIgCIIgCIIgCIIgCIIgCIIgCIIgCIIgDDD+P8wFMylqaKTuAAAAJXRFWHRkYXRlOmNyZWF0ZQAyMDIzLTA0LTIzVDEzOjIwOjMwKzAwOjAw117R/wAAACV0RVh0ZGF0ZTptb2RpZnkAMjAyMy0wNC0yM1QxMzoyMDozMCswMDowMKYDaUMAAAAASUVORK5CYII=;" vertex="1" parent="1">
          <mxGeometry x="40" y="79.12" width="686.83" height="440" as="geometry" />
        </mxCell>
        <mxCell id="UpuPV8C9MVdIR5FXl3d1-2" value="&lt;font style=&quot;font-size: 16px;&quot;&gt;172.16.10.0/24&lt;/font&gt;" style="text;html=1;strokeColor=none;fillColor=none;align=center;verticalAlign=middle;whiteSpace=wrap;rounded=0;rotation=36;" vertex="1" parent="1">
          <mxGeometry x="231.91" y="254.12" width="107" height="30" as="geometry" />
        </mxCell>
        <mxCell id="UpuPV8C9MVdIR5FXl3d1-3" value="&lt;font style=&quot;font-size: 16px;&quot;&gt;192.168.10.0/24&lt;/font&gt;" style="text;html=1;strokeColor=none;fillColor=none;align=center;verticalAlign=middle;whiteSpace=wrap;rounded=0;rotation=326;" vertex="1" parent="1">
          <mxGeometry x="460" y="300" width="120" height="30" as="geometry" />
        </mxCell>
        <mxCell id="UpuPV8C9MVdIR5FXl3d1-4" value="&lt;font color=&quot;#0000ff&quot; style=&quot;font-size: 16px;&quot;&gt;.1&lt;/font&gt;" style="text;html=1;strokeColor=none;fillColor=none;align=center;verticalAlign=middle;whiteSpace=wrap;rounded=0;rotation=36;" vertex="1" parent="1">
          <mxGeometry x="374.21" y="284.12" width="18.41" height="30" as="geometry" />
        </mxCell>
        <mxCell id="UpuPV8C9MVdIR5FXl3d1-5" value="&lt;font color=&quot;#0000ff&quot; style=&quot;font-size: 16px;&quot;&gt;.2&lt;/font&gt;" style="text;html=1;strokeColor=none;fillColor=none;align=center;verticalAlign=middle;whiteSpace=wrap;rounded=0;rotation=36;" vertex="1" parent="1">
          <mxGeometry x="213.49999999999997" y="170" width="18.41" height="30" as="geometry" />
        </mxCell>
        <mxCell id="UpuPV8C9MVdIR5FXl3d1-6" value="&lt;font color=&quot;#0000ff&quot; style=&quot;font-size: 16px;&quot;&gt;.1&lt;/font&gt;" style="text;html=1;strokeColor=none;fillColor=none;align=center;verticalAlign=middle;whiteSpace=wrap;rounded=0;rotation=326;" vertex="1" parent="1">
          <mxGeometry x="440.00000000000006" y="300" width="20" height="30" as="geometry" />
        </mxCell>
        <mxCell id="UpuPV8C9MVdIR5FXl3d1-7" value="&lt;font color=&quot;#0000ff&quot; style=&quot;font-size: 16px;&quot;&gt;.100&lt;br&gt;&lt;/font&gt;" style="text;html=1;strokeColor=none;fillColor=none;align=center;verticalAlign=middle;whiteSpace=wrap;rounded=0;rotation=326;" vertex="1" parent="1">
          <mxGeometry x="540" y="230" width="20" height="30" as="geometry" />
        </mxCell>
      </root>
    </mxGraphModel>
  </diagram>
</mxfile>
